<?xml version="1.0" encoding="utf-8"?>
<!-- Generator: Adobe Illustrator 21.0.0, SVG Export Plug-In . SVG Version: 6.00 Build 0)  -->
<svg version="1.1" id="Vrstva_1" xmlns="http://www.w3.org/2000/svg" xmlns:xlink="http://www.w3.org/1999/xlink" x="0px" y="0px"
	 viewBox="0 0 448 512" style="enable-background:new 0 0 448 512;" xml:space="preserve">
<g>
	<path id="XMLID_49_" d="M277.2,430.5v13.6c0,10.9-8,19.9-18.3,21.4l-3.4,12.4c-1.8,6.7-7.9,11.4-14.9,11.4h-33.3
		c-7,0-13.1-4.7-14.9-11.4l-3.3-12.4c-10.5-1.6-18.4-10.6-18.4-21.5v-13.6c0-7.3,5.9-13.2,13.2-13.2h80.2
		C271.4,417.4,277.2,423.2,277.2,430.5z M339,246.7c0,31-12.3,59.2-32.3,79.8c-15.2,15.8-25,35.8-28.2,57.2c-1.4,9.2-9.4,16-18.8,16
		h-71.4c-9.3,0-17.4-6.7-18.7-15.9c-3.4-21.4-13.3-41.8-28.4-57.4c-19.6-20.4-31.8-48-32.1-78.5c-0.7-64,50.2-115.7,114.2-116.2
		C287.1,131.2,339,182.9,339,246.7z M237,177c0-7.1-5.8-13-13-13c-45.7,0-83,37.2-83,83c0,7.1,5.8,13,13,13c7.1,0,13-5.8,13-13
		c0-31.5,25.6-57.1,57.1-57.1C231.2,190,237,184.2,237,177z M224,94c7.1,0,13-5.8,13-13V35.6c0-7.1-5.8-13-13-13s-13,5.8-13,13V81
		C211,88.2,216.9,94,224,94z M71.4,246.6c0-7.1-5.8-13-13-13H13c-7.1,0-13,5.8-13,13c0,7.1,5.8,13,13,13h45.4
		C65.6,259.6,71.4,253.8,71.4,246.6z M435,233.6h-45.4c-7.1,0-13,5.8-13,13c0,7.1,5.8,13,13,13H435c7.1,0,13-5.8,13-13
		C448,239.5,442.2,233.6,435,233.6z M97.8,354.6l-32.2,32.2c-5.1,5.1-5.1,13.3,0,18.3c2.5,2.5,5.9,3.7,9.1,3.7
		c3.3,0,6.6-1.2,9.1-3.7l32.2-32.2c5.1-5.1,5.1-13.3,0-18.3C111,349.5,102.8,349.5,97.8,354.6z M341.1,142.5c3.3,0,6.6-1.2,9.1-3.7
		l32.2-32.2c5.1-5.1,5.1-13.3,0-18.3c-5.1-5.1-13.3-5.1-18.3,0l-32.2,32.2c-5.1,5.1-5.1,13.3,0,18.3
		C334.5,141.2,337.7,142.5,341.1,142.5z M97.8,138.6c2.5,2.5,5.9,3.7,9.1,3.7s6.6-1.2,9.1-3.7c5.1-5.1,5.1-13.3,0-18.3L83.9,88.1
		c-5.1-5.1-13.3-5.1-18.3,0c-5.1,5.1-5.1,13.3,0,18.3L97.8,138.6z M350.2,354.6c-5.1-5.1-13.3-5.1-18.3,0c-5.1,5.1-5.1,13.3,0,18.3
		l32.2,32.2c2.5,2.5,5.9,3.7,9.1,3.7s6.6-1.2,9.1-3.7c5.1-5.1,5.1-13.3,0-18.3L350.2,354.6z"/>
</g>
</svg>
