<?xml version="1.0" encoding="utf-8"?>
<!-- Generator: Adobe Illustrator 21.0.0, SVG Export Plug-In . SVG Version: 6.00 Build 0)  -->
<svg version="1.1" id="Vrstva_1" xmlns="http://www.w3.org/2000/svg" xmlns:xlink="http://www.w3.org/1999/xlink" x="0px" y="0px"
	 viewBox="0 0 448 512" style="enable-background:new 0 0 448 512;" xml:space="preserve">
<g>
	<g>
		<path d="M443.7,455l-15.5-15.4c2.7-20.5,6.4-76.2-25.8-108.3c-6.6-6.7-14.8-12.1-24.2-16.4c0.8-2.1,1.6-4.1,2.3-6.2l54.9-9.1
			c7-1.2,12.2-7.3,12.2-14.4v-58.4c0-7.1-5.2-13.2-12.2-14.4l-54.9-9.1c-2.4-7.2-5.3-14.2-8.6-20.8l32.4-45.3
			c4.2-5.8,3.5-13.8-1.6-18.8L361.5,77c-5-5-13-5.7-18.8-1.5l-45.3,32.3c-6.7-3.3-13.6-6.2-20.7-8.6l-9.2-55
			c-1.2-7-7.3-12.2-14.4-12.2h-58.4c-7.1,0-13.2,5.2-14.4,12.2l-9.1,54.9c-7.1,2.4-14,5.3-20.8,8.6L105,75.4
			C99.2,71.3,91.3,72,86.2,77L45,118.3c-5,5-5.7,13-1.6,18.8l32.3,45.3c-3.3,6.7-6.2,13.7-8.6,20.8l-55,9.1
			C5.2,213.5,0,219.6,0,226.7v58.4c0,7.1,5.2,13.2,12.2,14.4l55,9.1c2.4,7.1,5.2,14.1,8.6,20.8l-32.3,45.3
			c-4.1,5.8-3.5,13.8,1.6,18.8l41.3,41.3c5,5.1,13,5.7,18.8,1.6l45.3-32.3c6.8,3.3,13.7,6.2,20.8,8.6l9.1,54.9
			c1.2,7,7.3,12.2,14.4,12.2h58.4c7.1,0,13.2-5.2,14.4-12.2l9.2-55c2.1-0.7,4.1-1.5,6.1-2.3c4.3,9.4,9.7,17.5,16.4,24.1
			c22.6,22.6,56.7,27.6,82.2,27.6c10.9,0,20.1-0.9,26.3-1.7l15.5,15.4c2.9,2.8,6.6,4.3,10.3,4.3c3.7,0,7.5-1.4,10.4-4.3
			C449.4,469.9,449.4,460.7,443.7,455z M279.3,310.6c-0.1,0.1-0.2,0.3-0.4,0.4c-0.1,0.1-0.3,0.3-0.4,0.4
			c-14.7,14.4-34.1,22.4-54.7,22.4c-42.9,0-77.9-34.9-77.9-77.9s34.9-77.9,77.9-77.9s77.9,34.9,77.9,77.9
			C301.7,276.5,293.8,295.9,279.3,310.6z M367.1,378.5c-5.7-5.7-15-5.7-20.6,0c-5.7,5.7-5.7,15,0,20.6l33.7,33.6
			c-37.4-0.3-65.1-10.8-75.1-45.9c-4.7-16.5-5.1-35.9-3.2-53c26.3-2.8,61.4-0.7,79.9,18c14.7,14.6,18.8,39.4,19,60.2L367.1,378.5z"
			/>
	</g>
</g>
</svg>
