<?xml version="1.0" encoding="utf-8"?>
<!-- Generator: Adobe Illustrator 21.0.0, SVG Export Plug-In . SVG Version: 6.00 Build 0)  -->
<svg version="1.1" id="Vrstva_1" xmlns="http://www.w3.org/2000/svg" xmlns:xlink="http://www.w3.org/1999/xlink" x="0px" y="0px"
	 viewBox="0 0 448 512" style="enable-background:new 0 0 448 512;" xml:space="preserve">
<g>
	<g>
		<g>
			<g>
				<g>
					<path d="M344.1,272.3c-57.4,0-103.9,46.5-103.9,103.9c0,57.4,46.5,103.9,103.9,103.9c57.4,0,103.9-46.5,103.9-103.9
						C448,318.8,401.5,272.3,344.1,272.3z M350.8,452.9v-9c0-3.7-3-6.7-6.7-6.7c-3.7,0-6.7,3-6.7,6.7v9
						c-37.2-3.2-66.9-32.9-70.1-70.1h9c3.7,0,6.7-3,6.7-6.7c0-3.7-3-6.7-6.7-6.7h-9c3.2-37.2,32.9-66.9,70.1-70.1v9
						c0,3.7,3,6.7,6.7,6.7c3.7,0,6.7-3,6.7-6.7v-9c37.2,3.2,66.9,32.9,70.1,70.1h-9c-3.7,0-6.7,3-6.7,6.7c0,3.7,3,6.7,6.7,6.7h9
						C417.7,420,388,449.7,350.8,452.9z"/>
				</g>
			</g>
		</g>
		<g>
			<g>
				<g>
					<path d="M382.8,366.1h-24.1c-3.2-4.6-8.5-7.7-14.6-7.7c-0.1,0-0.2,0-0.3,0l-22-30.9c-3.2-4.5-9.4-5.5-14-2.4
						c-4.5,3.2-5.6,9.5-2.4,14l22,30.9c-0.7,1.9-1.1,3.9-1.1,6.1c0,9.8,7.9,17.7,17.7,17.7c6.1,0,11.4-3,14.6-7.7h24.1
						c5.5,0,10-4.5,10-10C392.9,370.6,388.4,366.1,382.8,366.1z"/>
				</g>
			</g>
		</g>
		<g>
			<g>
				<g>
					<path d="M307,96.2l-17.6-15.8l-20.7-4l-0.5,9.5l20.3,19.8l9.9,11.7l-11.2,5.8l-9.1-2.7l-13.6-5.7l0.5-11l-17.9-7.4l-5.9,25.8
						l-18,4.1l1.8,14.4l23.4,4.5l4-23l19.4,2.9l9,5.3h14.5l9.9,19.8l26.2,26.6l-1.9,10.4l-21.1-2.7L271.9,203l-26.3,31.5l-3.4,14
						h-9.4l-17.6-8.1l-17.1,8.1l4.3,18l7.4-8.6l13.1-0.4l-0.9,16.2l10.8,3.2l10.8,12.2l14.7-4.1c22.5-21.2,52.7-34.3,85.9-34.3
						c36.8,0,69.8,16,92.8,41.3c2.3-12.9,3.6-26.1,3.6-39.7c0-45.4-13.7-87.5-37.3-122.6l-6.6,2.1l-35.1,3.1l-9.9,15.8l-7.2-2.3
						l-27.9-25.2l-4.1-13.1L307,96.2z"/>
				</g>
			</g>
		</g>
		<g>
			<g>
				<g>
					<path d="M218.6,376.1c0-26.1,8-50.3,21.6-70.4l-10.7-3.2L213,286l-36.6-8.2l-12.2-25.5v15.1h-5.4l-31.6-42.8v-35.1l-23.2-37.6
						l-36.7,6.6H42.7l-12.5-8.2l15.9-12.6l-15.8,3.6C11.1,173.9,0,211.7,0,252.3c0,121.6,98.6,220.3,220.3,220.3
						c9.4,0,18.5-0.8,27.6-1.9l-1.4-15.7C229.1,433.3,218.6,406,218.6,376.1z"/>
				</g>
			</g>
		</g>
		<g>
			<g>
				<g>
					<path d="M81.9,103l39.1-5.4l18-9.9l20.3,5.8l32.4-1.8l11.1-17.5l16.2,2.7l39.3-3.7l10.8-11.9l15.3-10.2l21.6,3.3l7.9-1.2
						C285.5,39.7,253.8,32,220.3,32c-68.4,0-129.5,31.2-169.9,80.1h0.1L81.9,103z M229.6,53.9l22.5-12.4l14.4,8.3l-20.9,15.9
						l-19.9,2l-9-5.8L229.6,53.9z M162.9,55.7l9.9,4.1l13-4.1l7.1,12.3l-30,7.9l-14.4-8.4C148.5,67.4,162.6,58.3,162.9,55.7z"/>
				</g>
			</g>
		</g>
	</g>
</g>
</svg>
