<?xml version="1.0" encoding="utf-8"?>
<!-- Generator: Adobe Illustrator 21.0.0, SVG Export Plug-In . SVG Version: 6.00 Build 0)  -->
<svg version="1.1" id="Vrstva_1" xmlns="http://www.w3.org/2000/svg" xmlns:xlink="http://www.w3.org/1999/xlink" x="0px" y="0px"
	 viewBox="0 0 448 512" style="enable-background:new 0 0 448 512;" xml:space="preserve">
<g>
	<path d="M335.6,148.6H112.4C53.2,148.6,5,196.8,5,256c0,59.3,48.2,107.4,107.4,107.4h223.1c59.2,0,107.4-48.2,107.4-107.4
		C443,196.8,394.8,148.6,335.6,148.6z M100,261.1l0.1-0.2l0.1,0.3l13.3-46h14.7l7.1,24.5l6.1,21.5l0.1-0.2l0.1,0.3l11.4-46h16.3h4.2
		l-22.8,85h-16.1L121,255.5l-13.6,44.8H91.1l-18-67.7l-4.6-17.4h20.4l6,24.5L100,261.1z M204,300.2h-18.6v-57.8H204V300V300.2z
		 M194.6,233c-5.8,0-10.6-4.7-10.6-10.6c0-5.9,4.8-10.6,10.6-10.6c5.9,0,10.6,4.7,10.6,10.6C205.2,228.2,200.5,233,194.6,233z
		 M226.8,338.6c6-9,9.6-19.9,9.6-31.7V205.1c0-17.4,13.6-31.6,30.3-31.6v-0.2h68.8c45.6,0,82.6,37.1,82.6,82.7s-37.1,82.7-82.6,82.7
		h-70L226.8,338.6z"/>
	<polygon points="264.9,215 264.9,215 264.7,215 264.7,300.1 284.3,300.1 284.3,267.1 316.4,267.1 316.4,249.4 316.4,249.3 
		316.4,249.3 316.4,249.2 284.3,249.2 284.3,232.9 321.8,232.9 321.9,232.9 321.9,232.9 322,232.9 322,215 265.2,215 	"/>
	<polygon points="338.6,242.3 338.6,242.3 338.4,242.3 338.4,299.6 338.4,300 338.4,300 338.4,300.1 357,300.1 357,242.3 	"/>
	<path d="M347.7,233.1c5.8,0,10.6-4.8,10.6-10.6s-4.8-10.6-10.6-10.6c-5.8,0-10.6,4.8-10.6,10.6S341.8,233.1,347.7,233.1z"/>
</g>
</svg>
