<?xml version="1.0" encoding="utf-8"?>
<!-- Generator: Adobe Illustrator 21.0.0, SVG Export Plug-In . SVG Version: 6.00 Build 0)  -->
<svg version="1.1" id="Vrstva_1" xmlns="http://www.w3.org/2000/svg" xmlns:xlink="http://www.w3.org/1999/xlink" x="0px" y="0px"
	 viewBox="0 0 448 512" style="enable-background:new 0 0 448 512;" xml:space="preserve">
<g>
	<polygon points="117.6,312.8 117.6,340.8 117.6,340.9 117.6,340.9 117.6,341 138.8,341 138.8,312.8 	"/>
	<polygon points="185.9,166.3 181.2,171 181.2,192.9 187.3,186.7 199.2,174.7 207.7,166.4 207.5,166.4 207.7,166.3 	"/>
	<polygon points="216.2,234.8 216.2,234.6 215.7,235 195.5,214.8 181.3,200.4 181.3,200.6 181.2,200.4 181.2,280.2 181.2,280.3 
		147,280.3 147,364.6 147,364.9 147,364.9 147,365 181.2,365 181.2,448.6 181.2,448.8 181.2,448.8 181.2,449 216.2,449 216.2,323 
		216.3,234.7 	"/>
	<polygon points="429.4,63 366.4,125.9 330.4,125.9 305.2,125.8 349.4,81.6 330.8,63 267.8,125.9 231.8,125.9 206.5,125.8 
		250.8,81.6 232.2,63 169.3,125.9 133.2,125.9 108,125.8 152.3,81.6 133.6,63 0.4,196.3 0.1,196.5 0.1,196.5 0,196.6 18.5,215.1 
		18.5,215.2 18.5,215.2 18.6,215.3 81.5,152.3 117.6,152.3 142.8,152.4 98.8,196.4 98.7,196.5 98.7,196.5 98.6,196.6 117,215.1 
		117.1,215.2 117.1,215.2 117.2,215.3 180.1,152.3 181.2,152.3 216.2,152.3 231.1,152.3 241.4,152.4 216.2,177.6 197.3,196.5 
		197.2,196.5 197.2,196.5 197.1,196.6 215.7,215.3 216.2,214.8 278.7,152.3 314.7,152.3 340,152.4 295.9,196.5 295.8,196.5 
		295.8,196.5 295.8,196.6 314.3,215.3 448,81.6 	"/>
</g>
</svg>
