<?xml version="1.0" encoding="utf-8"?>
<!-- Generator: Adobe Illustrator 21.0.0, SVG Export Plug-In . SVG Version: 6.00 Build 0)  -->
<svg version="1.1" id="Vrstva_1" xmlns="http://www.w3.org/2000/svg" xmlns:xlink="http://www.w3.org/1999/xlink" x="0px" y="0px"
	 viewBox="0 0 448 512" style="enable-background:new 0 0 448 512;" xml:space="preserve">
<path d="M448,126.9v143.7c0,0-29,6.1-35,6.9c-5.9,0.8-24.7,7.2-38.3-6.6c-20.9-21.3-95.3-99.7-95.3-99.7s-12.8-13.3-33.4-1.8
	c-18.9,10.6-46.9,26-58.6,32.1c-22.1,12.5-40.5-7.3-40.5-22.4c0-11.7,6.9-19.6,16.7-25.5c26.7-17.1,82.9-50.6,106.4-63.8
	c14.2-8,24.5-8.7,44.1,8.8c24.1,21.4,45.5,41,45.5,41s7,6.2,18.1,3.7C405.1,137.1,448,126.9,448,126.9 M152,370.4
	c3.6-9.8,2.4-20.8-4.5-28.3c-6.2-6.7-15.3-8.5-23.9-6.4c2.4-9.1,1.1-18.7-5.2-25.6c-6.2-6.7-15.3-8.5-23.9-6.4
	c2.4-9.1,1.1-18.7-5.2-25.5c-9.8-10.6-26.7-10.2-37.8,1c-11.1,11.2-18.1,31.6-8.3,43.6c9.9,11.9,21.2,4.7,29.8,2.6
	c-2.4,9.1-9.6,17.5-0.7,29.4c8.8,11.9,21.1,4.7,29.8,2.6c-2.4,9.1-9.3,18.3-0.8,29.3c8.6,11,22.7,5.1,32,2.1
	c-3.6,9.8-11.3,20.3-1.4,32.1c9.8,11.9,32.6,6.4,43.7-4.9c11.1-11.3,12.1-29.1,2.4-39.7C171.2,369.1,161.2,367.4,152,370.4
	 M354.7,295.7c-80.3-85.1-42.6-45.1-85.8-91c0,0-13-13.7-30.1-5.7c-12,5.6-27.5,13.2-39.2,19c-12.8,7.1-22,9.3-26.3,9.3
	c-24.7-0.2-44.8-21.2-44.8-47.4c0-17,8.5-31.8,21.2-40.2c17.8-13.1,58.9-36.2,58.9-36.2s-12.5-16.8-39.9-16.8
	c-27.4,0-84.7,39.8-84.7,39.8s-16.3,11-39.4,1.1L0,110.9v164.5c0,0,12.7,3.9,24.2,8.9c2.6-7.8,6.8-15,12.5-21
	c19-19.2,50.5-19.4,67.8-0.5c5.2,5.7,8.8,12.6,10.7,20.1c7,2.3,13.3,6.3,18.4,11.8c5.2,5.7,8.8,12.6,10.7,20.1
	c7,2.3,13.3,6.4,18.4,11.9c5.7,6.3,9.5,13.8,11.3,22c7.3,2.2,13.9,6.4,19.2,12.2c10.4,11.3,14.1,26.6,11.8,41.4h0
	c0.2,0.3,6.5,7.7,10.4,11.9c7.7,8.1,20.2,8.1,27.9,0c7.6-8.1,7.7-21.4,0-29.5c-0.3-0.3-27.6-30.6-25.4-33c2.2-2.3,37,36.1,37.7,36.8
	c7.6,8.1,20.1,8.1,27.8,0c7.7-8.1,7.6-21.3,0-29.5c-0.4-0.4-2-2-2.5-2.6c0,0-34.6-32.6-31.9-35.4c2.6-2.8,45.6,39.7,45.7,39.7
	c7.7,7.4,19.6,7.3,27-0.6c7.2-7.7,7.4-19.8,1-27.9c-0.2-0.4-32.7-36.5-30.2-39.2c2.6-2.8,34.8,32.4,34.9,32.5
	c7.6,8.1,20.2,8.1,27.8,0c7.7-8.1,7.7-21.3,0-29.5C355,295.8,354.8,295.8,354.7,295.7"/>
</svg>
