<?xml version="1.0" encoding="utf-8"?>
<!-- Generator: Adobe Illustrator 21.0.0, SVG Export Plug-In . SVG Version: 6.00 Build 0)  -->
<svg version="1.1" id="Vrstva_1" xmlns="http://www.w3.org/2000/svg" xmlns:xlink="http://www.w3.org/1999/xlink" x="0px" y="0px"
	 viewBox="0 0 448 512" style="enable-background:new 0 0 448 512;" xml:space="preserve">
<g>
	<g>
		<g>
			<path d="M224,105.1c-83.2,0-150.9,67.7-150.9,150.9S140.8,406.9,224,406.9S374.9,339.2,374.9,256S307.2,105.1,224,105.1z
				 M237.1,387.9c3.6-17.9,8.6-57.2-0.6-110.2c15-0.4,42.1-3.9,60.2-22c25.7-25.7,22-69.4,21.8-71.2c-0.4-4.4-3.9-7.9-8.3-8.3
				c-1.8-0.2-45.5-3.9-71.2,21.8c-7.6,7.6-12.7,16.9-16,26.1c-1.5-4.6-3.1-9.2-4.8-13.8c-1.7-4.7-7-7.2-11.7-5.4
				c-4.7,1.7-7.2,7-5.4,11.7c6.3,17.3,11.4,34.9,15,52.3c0.5,2.6,1.1,5.2,1.5,7.7c-6.8-7.7-15.4-14.6-25.9-18.9
				c-33.7-13.6-72.4,6.9-74.1,7.7c-3.9,2.1-5.7,6.6-4.4,10.8c0.6,1.8,14.2,43.4,47.9,57c8.4,3.4,17,4.7,25.4,4.7
				c14.3,0,27.6-3.8,36.7-7.1c0.5,28.6-3.1,48.8-5.1,57.5c-70.5-3-126.8-61.3-126.8-132.4c0-73.1,59.5-132.6,132.6-132.6
				S356.6,182.9,356.6,256C356.6,324.7,304.1,381.3,237.1,387.9z M269.6,225.2c-3.6-3.6-9.4-3.6-12.9,0l-20.1,20.1
				c1.8-11.4,6-24.9,15.5-34.4c13.9-13.9,36.5-16.4,48.5-16.7c-0.2,12-2.7,34.5-16.7,48.5c-9.5,9.5-22.9,13.6-34.3,15.4l20.1-20.1
				C273.2,234.6,273.2,228.8,269.6,225.2z M179.4,306.6l26.3,10.6c-11.2,2.8-25.2,4.2-37.6-0.8c-18.3-7.4-29.4-27.2-34.3-38.1
				c11.1-4.5,32.8-11,51.2-3.6c12.4,5,21.5,15.7,27.6,25.6l-26.3-10.6c-4.7-1.9-10,0.4-11.9,5.1
				C172.5,299.4,174.7,304.7,179.4,306.6z"/>
			<path d="M438.9,219.4h-26.3c-1.7-8.8-4-17.5-7-26l22.8-13.2c4.4-2.5,5.9-8.1,3.3-12.5l-27.4-47.5c-2.5-4.4-8.1-5.9-12.5-3.3
				l-22.8,13.2c-5.9-6.8-12.3-13.1-19-19l13.2-22.8c1.2-2.1,1.5-4.6,0.9-6.9s-2.2-4.3-4.3-5.6l-47.5-27.4c-2.1-1.2-4.6-1.5-6.9-0.9
				c-2.3,0.6-4.3,2.2-5.6,4.3l-13.2,22.8c-8.5-2.9-17.2-5.3-26-7V41.1c0-5-4.1-9.1-9.1-9.1h-54.9c-5,0-9.1,4.1-9.1,9.1v26.3
				c-8.8,1.7-17.5,4-26,7l-13.2-22.8c-1.2-2.1-3.2-3.6-5.6-4.3c-2.3-0.6-4.8-0.3-6.9,0.9L88.2,75.7c-2.1,1.2-3.6,3.2-4.3,5.6
				c-0.6,2.3-0.3,4.8,0.9,6.9l13.2,22.8c-6.8,5.9-13.1,12.3-19,19l-22.8-13.2c-4.4-2.5-10-1-12.5,3.3l-27.4,47.5
				c-2.5,4.4-1,10,3.3,12.5l22.8,13.2c-2.9,8.5-5.3,17.2-7,26H9.1c-5,0-9.1,4.1-9.1,9.1v54.9c0,5,4.1,9.1,9.1,9.1h26.3
				c1.7,8.8,4,17.5,7,26l-22.8,13.2c-4.4,2.5-5.9,8.1-3.3,12.5l27.4,47.5c2.5,4.4,8.1,5.9,12.5,3.3l22.8-13.2
				c5.9,6.8,12.3,13.1,19,19l-13.2,22.8c-1.2,2.1-1.5,4.6-0.9,6.9s2.2,4.3,4.3,5.6l47.5,27.4c2.1,1.2,4.6,1.5,6.9,0.9
				c2.3-0.6,4.3-2.2,5.6-4.3l13.2-22.8c8.5,2.9,17.2,5.3,26,7v26.3c0,5,4.1,9.1,9.1,9.1h54.9c5,0,9.1-4.1,9.1-9.1v-26.3
				c8.8-1.7,17.5-4,26-7l13.2,22.8c1.2,2.1,3.2,3.6,5.6,4.3c2.3,0.6,4.8,0.3,6.9-0.9l47.5-27.4c2.1-1.2,3.6-3.2,4.3-5.6
				c0.6-2.3,0.3-4.8-0.9-6.9l-13.2-22.8c6.8-5.9,13.1-12.3,19-19l22.8,13.2c4.4,2.5,10,1,12.5-3.3l27.4-47.5c2.5-4.4,1-10-3.3-12.5
				l-22.8-13.2c2.9-8.5,5.3-17.2,7-26h26.3c5,0,9.1-4.1,9.1-9.1v-54.9C448,223.5,443.9,219.4,438.9,219.4z M429.7,274.3h-24.9
				c-4.5,0-8.4,3.3-9,7.8c-1.9,12.7-5.3,25.3-10,37.3c-1.6,4.2,0,9,3.9,11.3l21.5,12.4L393,374.7l-21.6-12.5
				c-3.9-2.3-8.9-1.3-11.7,2.2c-8,10.1-17.2,19.2-27.3,27.3c-3.5,2.8-4.5,7.8-2.2,11.7l12.5,21.6L311,443.3l-12.4-21.5
				c-2.3-3.9-7-5.6-11.3-3.9c-12,4.7-24.5,8-37.3,10c-4.5,0.7-7.8,4.5-7.8,9v24.9h-36.6v-24.9c0-4.5-3.3-8.4-7.8-9
				c-12.7-1.9-25.3-5.3-37.3-10c-4.2-1.7-9,0-11.3,3.9L137,443.3L105.3,425l12.5-21.6c2.3-3.9,1.3-8.9-2.2-11.7
				c-10.1-8-19.2-17.2-27.3-27.3c-2.8-3.5-7.8-4.5-11.7-2.2L55,374.7L36.7,343l21.5-12.4c3.9-2.3,5.6-7,3.9-11.3
				c-4.7-12-8-24.5-10-37.3c-0.7-4.5-4.5-7.8-9-7.8H18.3v-36.6h24.9c4.5,0,8.4-3.3,9-7.8c1.9-12.7,5.3-25.3,10-37.3
				c1.6-4.2,0-9-3.9-11.3L36.7,169L55,137.3l21.6,12.5c3.9,2.3,8.9,1.3,11.7-2.2c8-10.1,17.2-19.2,27.3-27.3
				c3.5-2.8,4.5-7.8,2.2-11.7L105.3,87L137,68.7l12.4,21.5c2.3,3.9,7,5.6,11.3,3.9c12-4.7,24.5-8,37.3-10c4.5-0.7,7.8-4.5,7.8-9
				V50.3h36.6v24.9c0,4.5,3.3,8.4,7.8,9c12.7,1.9,25.3,5.3,37.3,10c4.2,1.7,9,0,11.3-3.9L311,68.7L342.7,87l-12.5,21.6
				c-2.3,3.9-1.3,8.9,2.2,11.7c10.1,8,19.2,17.2,27.3,27.3c2.8,3.5,7.8,4.5,11.7,2.2l21.6-12.5l18.3,31.7l-21.5,12.4
				c-3.9,2.3-5.6,7-3.9,11.3c4.7,12,8,24.5,10,37.3c0.7,4.5,4.5,7.8,9,7.8h24.9L429.7,274.3L429.7,274.3z"/>
			<path d="M201.6,170.8c-2.2-4.5-7.7-6.5-12.2-4.3c-4.5,2.2-6.5,7.7-4.3,12.2l0.8,1.7c1.6,3.3,4.8,5.2,8.3,5.2
				c1.3,0,2.7-0.3,3.9-0.9c4.6-2.2,6.5-7.6,4.3-12.2L201.6,170.8z"/>
		</g>
	</g>
</g>
</svg>
