<?xml version="1.0" encoding="utf-8"?>
<!-- Generator: Adobe Illustrator 21.0.0, SVG Export Plug-In . SVG Version: 6.00 Build 0)  -->
<svg version="1.1" id="Vrstva_1" xmlns="http://www.w3.org/2000/svg" xmlns:xlink="http://www.w3.org/1999/xlink" x="0px" y="0px"
	 viewBox="0 0 448 512" style="enable-background:new 0 0 448 512;" xml:space="preserve">
<g>
	<polygon points="149.2,175 149.2,174.9 130.7,174.9 130.6,174.9 130.6,174.9 130.5,174.9 130.5,217.7 149.2,217.7 149.2,175.2 	"/>
	<polygon points="191.3,175 191.3,174.9 172.8,174.9 172.7,174.9 172.7,174.9 172.5,174.9 172.5,217.7 191.3,217.7 191.3,175.2 	"/>
	<polygon points="233.4,175 233.4,174.9 214.9,174.9 214.8,174.9 214.8,174.9 214.6,174.9 214.6,217.7 233.4,217.7 233.4,175.2 	"/>
	<polygon points="275.5,175 275.5,174.9 256.9,174.9 256.8,174.9 256.8,174.9 256.7,174.9 256.7,217.7 275.5,217.7 275.5,175.2 	"/>
	<polygon points="298.8,174.9 298.8,174.9 298.7,174.9 298.7,217.7 317.5,217.7 317.5,174.9 298.9,174.9 	"/>
	<path d="M421,63.5H27c-14.9,0-27,12.1-27,27.1v330.8c0,14.9,12.1,27,27,27h394c14.9,0,27-12.1,27-27V90.6
		C448,75.6,435.9,63.5,421,63.5z M320.8,304.4L320.8,304.4h-0.1v50.1h-64.1h-0.4l0,0H256v23.9h-63.7H192v-23.7v-0.1l0,0v-0.1h-64.5
		h-0.3v-49.8v-0.2l0,0v-0.1H79.9h-0.2V135.6h288.4v168.8H321L320.8,304.4L320.8,304.4z"/>
</g>
</svg>
