<?xml version="1.0" encoding="utf-8"?>
<!-- Generator: Adobe Illustrator 21.0.0, SVG Export Plug-In . SVG Version: 6.00 Build 0)  -->
<svg version="1.1" id="Vrstva_1" xmlns="http://www.w3.org/2000/svg" xmlns:xlink="http://www.w3.org/1999/xlink" x="0px" y="0px"
	 viewBox="0 0 448 512" style="enable-background:new 0 0 448 512;" xml:space="preserve">
<g>
	<path d="M128.3,354.2h64.5v23.7v0.1l0,0v0.1h63.8v-23.9h64.5v-49.9h47.3V136H81v168.3h47.3V354.2z M131.5,217.8v-42.7h18.7v42.7
		H131.5z M173.4,217.8v-42.7h18.7v42.7H173.4z M215.4,217.8v-42.7h18.7v42.7H215.4z M257.3,217.8v-42.7H276v42.7H257.3z
		 M299.2,217.8v-42.7h18.7v42.7H299.2z"/>
	<path d="M421,64.2H28.4c-14.9,0-26.9,12.1-26.9,27V421c0,14.9,12.1,27,26.9,27H421c14.9,0,27-12.1,27-27V91.1
		C448,76.2,435.9,64.2,421,64.2z M421,91.1V420v0.9H28.4V91.1H420H421z"/>
</g>
</svg>
