<?xml version="1.0" encoding="utf-8"?>
<!-- Generator: Adobe Illustrator 21.0.0, SVG Export Plug-In . SVG Version: 6.00 Build 0)  -->
<svg version="1.1" id="Vrstva_1" xmlns="http://www.w3.org/2000/svg" xmlns:xlink="http://www.w3.org/1999/xlink" x="0px" y="0px"
	 viewBox="0 0 448 512" style="enable-background:new 0 0 448 512;" xml:space="preserve">
<g>
	<path d="M300,0H148c-16.2,0-29.3,13.1-29.3,29.3v419.5v1.3l0,0v0.2h210.6v-421C329.3,13.1,316.2,0,300,0z M263.1,336.7l-14.3-14.3
		c3.3-4.8,5.3-10.7,5.3-17s-1.9-12.2-5.3-17l14.3-14.3c6.9,8.6,11,19.5,11,31.3c0,11-3.6,21-9.6,29.2
		C264,335.3,263.6,336,263.1,336.7z M251.2,388.5v9.6c0,2.4-2,4.4-4.4,4.4h-11.6c-2.4,0-4.4-2-4.4-4.4v-9.6c0-2.4,2-4.4,4.4-4.4
		h11.6C249.3,384.1,251.2,386.1,251.2,388.5z M217.1,388.5v9.6c0,2.4-2,4.4-4.4,4.4h-11.6c-2.4,0-4.4-2-4.4-4.4v-9.6
		c0-2.4,2-4.4,4.4-4.4h11.6C215.2,384.1,217.1,386.1,217.1,388.5z M184.9,336.7c-6.9-8.6-11-19.5-11-31.3c0-11.9,4.1-22.7,11-31.3
		l14.3,14.3c-3.3,4.8-5.3,10.7-5.3,17s2,12.2,5.3,17l-13,13L184.9,336.7z M257.7,210.8c0-8.9,7.3-16.2,16.2-16.2
		c8.9,0,16.2,7.3,16.2,16.2s-7.3,16.2-16.2,16.2S257.7,219.8,257.7,210.8z M273.9,173.4c-8.9,0-16.2-7.3-16.2-16.2
		S265,141,273.9,141c8.9,0,16.2,7.3,16.2,16.2C290.1,166.2,282.9,173.4,273.9,173.4z M273.9,119.8c-8.9,0-16.2-7.3-16.2-16.2
		s7.3-16.2,16.2-16.2c8.9,0,16.2,7.3,16.2,16.2C290.1,112.6,282.9,119.8,273.9,119.8z M219.8,313.5c-4.7,2.8-11.1,1.2-13.7-4
		c-0.3-0.6-0.5-1.2-0.7-1.8c-0.1-0.4-0.2-0.8-0.3-1.2c-0.3-1.3-0.5-2.6-0.5-3.9c0-0.4,0-0.8,0-1.1c0-0.7,0.1-1.4,0.2-2.1
		c1.2-6.4,6.3-11.5,12.7-12.7c4-0.8,7.8,0,10.9,1.8c5.5,3.1,6.1,10.8,1.7,15.2l-8.3,8.3c-0.5,0.5-1.1,0.9-1.7,1.3
		C220,313.4,219.9,313.4,219.8,313.5z M255.3,266.3L241,280.6c-4.8-3.3-10.7-5.3-17-5.3s-12.2,2-17,5.3l-13-13l-1.3-1.3
		c8.6-6.9,19.5-11,31.3-11c11,0,21,3.6,29.3,9.6C253.9,265.4,254.7,265.7,255.3,266.3z M224,119.8c-8.9,0-16.2-7.3-16.2-16.2
		s7.3-16.2,16.2-16.2s16.2,7.3,16.2,16.2C240.2,112.6,232.9,119.8,224,119.8z M224,141c8.9,0,16.2,7.3,16.2,16.2
		s-7.3,16.2-16.2,16.2s-16.2-7.3-16.2-16.2S215.1,141,224,141z M224,194.6c8.9,0,16.2,7.3,16.2,16.2S232.9,227,224,227
		s-16.2-7.2-16.2-16.2C207.8,201.9,215.1,194.6,224,194.6z M174.1,141c8.9,0,16.2,7.3,16.2,16.2s-7.3,16.2-16.2,16.2
		s-16.2-7.3-16.2-16.2C157.9,148.3,165.1,141,174.1,141z M174.1,119.8c-8.9,0-16.2-7.3-16.2-16.2s7.3-16.2,16.2-16.2
		s16.2,7.3,16.2,16.2C190.3,112.6,183,119.8,174.1,119.8z M174.1,194.6c8.9,0,16.2,7.3,16.2,16.2S183,227,174.1,227
		s-16.2-7.2-16.2-16.2C157.9,201.9,165.1,194.6,174.1,194.6z M141.4,40.6c0-8.5,6.9-15.4,15.4-15.4h21.5c3,0,4.7,3.5,2.8,5.9
		l-33.3,41.4c-2.1,2.7-6.4,1.1-6.4-2.3V40.6L141.4,40.6z M162.7,388.5c0-2.4,2-4.4,4.4-4.4h11.6c2.4,0,4.4,2,4.4,4.4v9.6
		c0,2.4-2,4.4-4.4,4.4h-11.6c-2.4,0-4.4-2-4.4-4.4V388.5z M192.7,344.5l14.3-14.3c4.8,3.3,10.7,5.3,17,5.3s12.2-1.9,17-5.3
		l12.9,12.9l1.4,1.4c-8.6,6.9-19.5,11-31.3,11c-11,0-21-3.7-29.3-9.6C194.1,345.4,193.3,345,192.7,344.5z M265,388.5
		c0-2.4,2-4.4,4.4-4.4H281c2.4,0,4.4,2,4.4,4.4v9.6c0,2.4-2,4.4-4.4,4.4h-11.6c-2.4,0-4.4-2-4.4-4.4V388.5z"/>
	<path d="M118.7,461.2v21.4c0,16.2,13.1,29.3,29.3,29.3h152c16.2,0,29.3-13.1,29.3-29.3v-21.4H118.7z"/>
</g>
</svg>
