<?xml version="1.0" encoding="utf-8"?>
<!-- Generator: Adobe Illustrator 21.0.0, SVG Export Plug-In . SVG Version: 6.00 Build 0)  -->
<svg version="1.1" id="Vrstva_1" xmlns="http://www.w3.org/2000/svg" xmlns:xlink="http://www.w3.org/1999/xlink" x="0px" y="0px"
	 viewBox="0 0 448 512" style="enable-background:new 0 0 448 512;" xml:space="preserve">
<g>
	<path d="M411.6,453.9c0-1.2-1.2-2.2-2.8-2.2H378c-13.8,0-25.2-11.2-25.2-25.2v-1.7h21V394h-0.3c-0.1,0-0.1,0-0.1,0h-0.2
		c-0.3,0-0.7,0-1,0c-0.1,0-0.2,0-0.3,0v-0.2h-22.6v-59.6l0.1-46.4c0,0-0.1,0.1-0.1,0.2v-0.3c-5.3,6.7-11,13.1-17.2,19.3
		c-28,28-61.9,47.5-98.5,57.2v29.6H211v0.2c-0.4,0-0.9,0-1.3,0c-0.1,0-0.2,0-0.3,0h-0.3v30.8h21v1.7c0,14-11.4,25.2-25.2,25.2H174
		c-1.6,0-2.8,1-2.8,2.2l-12.7,55.9c0,1.2,1.3,2.2,2.7,2.2h260.2c1.5,0,2.8-1,2.8-2.2L411.6,453.9z"/>
	<path d="M86.4,321.6c0.5,0.3,1,0.6,1.4,0.8c3.4,1.8,7,3.5,10.5,5c1.1,0.5,2.2,1,3.3,1.5c3.4,1.4,6.8,2.7,10.2,3.9
		c1.3,0.4,2.6,0.9,3.8,1.3c3.5,1.1,7.1,2.2,10.6,3.1c1,0.3,2,0.5,3.1,0.7c4,0.9,8,1.8,12,2.4h0.1c12.4,2,24.9,2.7,37.6,2.1
		c0.6,0,1.2,0,1.8-0.1c4.8-0.3,9.7-0.7,14.5-1.4c1.4-0.2,2.8-0.3,4.2-0.5c2.4-0.4,4.9-0.8,7.3-1.3c3.2-0.6,6.4-1.3,9.6-2.1
		c2.1-0.5,4.2-1.1,6.3-1.7c3.2-0.9,6.3-1.9,9.5-3c1.8-0.6,3.6-1.2,5.4-1.9c3.5-1.3,7-2.7,10.4-4.3c1.6-0.7,3.2-1.4,4.8-2.1
		c3.6-1.7,7.1-3.6,10.6-5.5c1.9-1,3.8-2.1,5.7-3.2c3.1-1.9,6.2-3.8,9.2-5.9c2.2-1.5,4.4-3.1,6.6-4.7c1.4-1,2.7-2.1,4.1-3.1
		c3.7-2.9,7.4-5.9,10.9-9.1c0.9-0.8,1.8-1.6,2.6-2.4c1.9-1.8,3.9-3.4,5.8-5.3c50.8-50.8,68.4-121.6,52-183.8
		c-0.2-0.8-0.3-1.6-0.5-2.4c-0.6-2.2-1.4-4.3-2.1-6.5c-5.9-18.6-14.8-36.4-27.1-52.4c0,0.1,0,0.2,0,0.3c-0.1-0.1-0.1-0.2-0.2-0.3
		c10.2,51-19.9,122.3-82.4,184.8c-60.2,60.2-128.6,90.3-179.1,83.2c-1.9-0.3-3.8-0.5-5.6-1c0.1,0.1,0.2,0.1,0.3,0.2
		c-0.1,0-0.2,0-0.3-0.1C70.7,312.5,78.4,317.3,86.4,321.6z"/>
	<path d="M61.9,274.8c3.1,1.1,6.4,1.9,9.9,2.5c0.2,0,0.4,0.1,0.7,0.1c12.6,2,27.3,0.5,43.1-4c1-0.3,2-0.6,3-0.9
		c2.3-0.7,4.5-1.4,6.9-2.2c1.2-0.4,2.4-0.9,3.6-1.4c3.9-1.5,7.9-3.1,11.9-4.9c1.4-0.6,2.8-1.2,4.2-1.9c2.3-1.1,4.6-2.3,7-3.5
		c1.1-0.6,2.2-1.2,3.3-1.8c23.8-12.8,48.3-31,71.2-53.9c67.2-67.2,94.7-148.7,61.4-182c-8.5-8.5-20.2-13-34-14
		c-0.5-0.1-1.1-0.2-1.7-0.2L97.7,0c-5-0.2-9.3,3.7-9.5,8.7s3.7,9.3,8.7,9.5l49.1,2.1l42.8,2c-21.4,10.1-43.8,24.8-65.4,43.6
		c-0.6,0.5-1.2,1-1.8,1.6l0,0l-0.1,0.1l44.7,44.7c8.3,8.3,8.3,21.9,0,30.1c-4.2,4.2-9.6,6.2-15.1,6.2s-10.9-2.1-15.1-6.2l-42.3-42.3
		L91.5,98l0,0l-0.1-0.1c-18.5,20.9-33.1,42.6-43.4,63.5c-0.6,1.3-1.4,2.6-2,3.8l-4-91.9c-0.2-5-4.5-9-9.5-8.7c-5,0.2-9,4.5-8.7,9.5
		l6.7,154.6c0,0.6,0.1,1.2,0.2,1.7c0.9,13.8,5.4,25.5,14,34c4.7,4.7,10.4,8,16.8,10.4C61.6,274.7,61.8,274.7,61.9,274.8z"/>
	<path d="M121.3,67.9L121.3,67.9L121.3,67.9l0.2-0.2L73.7,19.9c-4.1-4.1-9.6-6.2-15.1-6.2s-10.9,2-15.1,6.2
		c-8.3,8.3-8.3,21.9,0,30.1l47.8,47.8c4.6-5.3,9.5-10.4,14.6-15.5C111,77.3,116.1,72.5,121.3,67.9z"/>
</g>
</svg>
