<?xml version="1.0" encoding="utf-8"?>
<!-- Generator: Adobe Illustrator 21.0.0, SVG Export Plug-In . SVG Version: 6.00 Build 0)  -->
<svg version="1.1" id="Vrstva_1" xmlns="http://www.w3.org/2000/svg" xmlns:xlink="http://www.w3.org/1999/xlink" x="0px" y="0px"
	 viewBox="0 0 448 512" style="enable-background:new 0 0 448 512;" xml:space="preserve">
<g>
	<path d="M0,38.8v323.8h448V38.8H0z M381.9,104.9v191.6H66.1V104.9H381.9z"/>
	<rect x="72.3" y="397.8" width="303.4" height="75.3"/>
	<polygon points="131.8,197.4 131.8,197.6 140.9,189.7 146.7,184.8 146.7,240.2 165.3,240.2 165.3,161.8 148.4,161.8 131.8,176.2 
		131.8,189 131.7,197.5 	"/>
	<path d="M179.1,233.7c2.3,2.1,5.1,3.8,8.1,4.9c3,1.1,6.4,1.6,9.9,1.6s6.8-0.6,9.9-1.7c3.1-1.2,5.8-2.9,8.1-5c2.3-2.2,4.1-4.9,5.4-8
		c1.3-3.1,2-6.7,2-10.7c0-3.7-0.6-7.1-1.8-10.1s-2.8-5.6-4.9-7.7c-2-2.1-4.4-3.7-7-4.8s-5.4-1.7-8.2-1.7c-0.2,0-0.4,0-0.6,0h-0.1
		l10.1-20.1l4.6-9h-0.1l0.1-0.1h-20.5L178,194.4c-1.7,3.4-3.1,6.8-4.4,10c-1.3,3.4-2,7.1-2,10.7c0,4,0.7,7.6,2,10.7
		C174.9,228.8,176.8,231.5,179.1,233.7z M203.9,222.8c-1.8,1.8-4,2.8-6.8,2.8c-2.7,0-5-0.9-6.8-2.8c-1.8-1.9-2.7-4.5-2.7-7.9
		s0.9-6.1,2.7-7.9c1.8-1.8,4-2.7,6.8-2.7c2.9,0,5.2,1,6.9,2.9s2.6,4.5,2.6,7.8C206.5,218.3,205.6,220.9,203.9,222.8z"/>
	<path d="M272,204.4c2,2.1,4.4,3.7,7,4.9c2.6,1.1,5.4,1.7,8.2,1.7h0.6h0.1l-10.1,20l-4.6,9h0.1l-0.1,0.1h20.4l16.2-33.1
		c1.7-3.4,3.1-6.8,4.4-10c1.3-3.4,2-7,2-10.7c0-4-0.7-7.6-2-10.7c-1.3-3.1-3.1-5.8-5.5-8c-2.3-2.1-5.1-3.8-8.1-4.9
		c-3-1.1-6.4-1.6-9.9-1.6s-6.8,0.6-9.9,1.7c-3.1,1.2-5.8,2.9-8.1,5c-2.3,2.2-4.1,4.9-5.5,8.1c-1.3,3.1-1.9,6.7-1.9,10.6
		c0,3.8,0.6,7.2,1.9,10.2C268.4,199.8,270,202.3,272,204.4z M284,178.6c1.8-1.8,4-2.8,6.8-2.8c2.7,0,5,0.9,6.8,2.8
		c1.8,1.9,2.7,4.5,2.7,7.9s-0.9,6.1-2.7,7.9c-1.8,1.8-4,2.7-6.8,2.7c-2.9,0-5.2-1-6.9-2.9c-1.7-1.9-2.6-4.5-2.6-7.8
		C281.3,183.1,282.2,180.5,284,178.6z"/>
	<rect x="237.5" y="179.5" width="15.2" height="15.2"/>
	<rect x="237.5" y="207.3" width="15.2" height="15.2"/>
</g>
</svg>
