<?xml version="1.0" encoding="utf-8"?>
<!-- Generator: Adobe Illustrator 21.0.0, SVG Export Plug-In . SVG Version: 6.00 Build 0)  -->
<svg version="1.1" id="Vrstva_1" xmlns="http://www.w3.org/2000/svg" xmlns:xlink="http://www.w3.org/1999/xlink" x="0px" y="0px"
	 viewBox="0 0 448 512" style="enable-background:new 0 0 448 512;" xml:space="preserve">
<g>
	<path d="M423.6,0H24.4c-7.6,0-13.9,6.1-13.9,13.9v292.5c0,7.6,6.3,13.9,13.9,13.9h168.4v28.3h-64.3L116,375.2l-5.4,11.3h0.1
		l-0.1,0.2h226.7l-17.6-38h-64.4l0,0v-28.3h168.4c4.8,0,9.1-2.6,11.6-6.1c1.4-2.2,2.2-4.9,2.2-7.7V13.9C437.5,6.1,431.4,0,423.6,0z
		 M89.2,97.1l-45.4,45.2v-109h64l45.1,0.1L89.2,97.1z"/>
	<path d="M134.3,512c3.4,0,6.1-2.7,6.1-6.1v-12.7H98.3v12.7c0,3.4,2.7,6.1,6.1,6.1H134.3z"/>
	<path d="M393.6,400.7H54.4c-2.8,0-5.2,2.2-5.2,5.2v73.2c0,4.1,3.4,7.5,7.6,7.5h26.9l14.6,0.1v0.2h42.2v-0.2h108.3l58.8,0.1v0.2
		h42.2v-0.2v-0.1h41.7c4.2,0,7.4-3.4,7.4-7.5V406C398.8,403,396.5,400.7,393.6,400.7z M273,449.1H81.7v-26.9H273V449.1z
		 M325.9,459.1h-18.3V441h18.3V459.1z M364.5,459.1h-18.1V441h18.1V459.1z"/>
	<path d="M307.5,505.9c0,3.4,2.7,6.1,6.1,6.1h29.9c3.4,0,6.1-2.7,6.1-6.1v-12.5l0,0v-0.2h-42.2v12.7H307.5z"/>
</g>
</svg>
