<?xml version="1.0" encoding="utf-8"?>
<!-- Generator: Adobe Illustrator 21.0.0, SVG Export Plug-In . SVG Version: 6.00 Build 0)  -->
<svg version="1.1" id="Vrstva_1" xmlns="http://www.w3.org/2000/svg" xmlns:xlink="http://www.w3.org/1999/xlink" x="0px" y="0px"
	 viewBox="0 0 448 512" style="enable-background:new 0 0 448 512;" xml:space="preserve">
<g>
	<path d="M0,86.7v267.4c0,6.9,5.6,12.6,12.5,12.6h422.9c4.4,0,8.2-2.2,10.4-5.6c1.3-2,2.2-4.4,2.2-7V86.7c0-6.9-5.6-12.5-12.6-12.5
		H12.5C5.6,74.2,0,79.7,0,86.7z M46.8,98.4h94.6h28L152.8,152c-1.4,3.3-0.1,7.2,3.1,9c3.4,2,7.8,0.7,9.7-2.7L191,98.4h55.5l20.1,0.1
		c-12.2,31.4-45.5,118-45.5,118c-1.2,3.1,0,6.9,3,8.7c3.4,2,7.8,0.9,9.8-2.5c0,0,42.9-92.8,57.4-124.2h109.9h0.2v235.1H46.8V98.4z"
		/>
	<path d="M320.2,437.8h26.2c3.2,0,5.8-2.6,5.8-5.8v-11.1h24.1c3.6,0,6.5-2.9,6.5-6.4v-37v-0.1v-0.1H65.2v37.3c0,3.6,2.9,6.4,6.5,6.4
		h24.1v11c0,3.2,2.6,5.8,5.8,5.8h26.2c3.2,0,5.8-2.6,5.8-5.8v-11.1H314h0.4V432C314.4,435.2,317,437.8,320.2,437.8z M342.7,395.4
		c2.2,0,4.1,1.8,4.1,4s-1.8,4.1-4.1,4.1c-2.2,0-4-1.8-4-4.1C338.7,397.3,340.5,395.4,342.7,395.4z M322,395.4c2.2,0,4,1.8,4,4
		s-1.8,4.1-4,4.1s-4-1.8-4-4.1C318,397.3,319.8,395.4,322,395.4z M224,408.4c-4.9,0-8.9-4-8.9-8.9s4-8.9,8.9-8.9s8.9,4,8.9,8.9
		S228.9,408.4,224,408.4z"/>
</g>
</svg>
