<?xml version="1.0" encoding="utf-8"?>
<!-- Generator: Adobe Illustrator 21.0.0, SVG Export Plug-In . SVG Version: 6.00 Build 0)  -->
<svg version="1.1" id="Vrstva_1" xmlns="http://www.w3.org/2000/svg" xmlns:xlink="http://www.w3.org/1999/xlink" x="0px" y="0px"
	 viewBox="0 0 448 512" style="enable-background:new 0 0 448 512;" xml:space="preserve">
<g>
	<polygon points="180.1,384.2 174.4,407 169.5,426.5 157.3,384.2 143.7,384.2 137.1,406.9 131.3,426.4 121,384.2 106,384.2 
		102.2,384.1 102.2,384.2 102.1,384.2 123.1,462.8 137.9,462.8 144.8,440.1 150.5,421.6 163,462.8 177.9,462.8 194.6,400.5 
		199,384.3 198.9,384.3 199,384.2 	"/>
	<rect x="213.7" y="409.4" width="17.2" height="53.4"/>
	<path d="M222.2,381c-5.4,0-9.8,4.4-9.8,9.8s4.4,9.8,9.8,9.8c5.4,0,9.8-4.4,9.8-9.8S227.6,381,222.2,381z"/>
	<polygon points="256,384.2 256,462.4 256,462.7 256,462.7 256,462.8 274.1,462.8 274.1,432.3 303.8,432.3 303.8,415.7 274.1,415.7 
		274.1,400.7 309,400.7 309,384.2 	"/>
	<polygon points="327.6,409.4 327.6,462.5 327.6,462.7 327.6,462.7 327.6,462.8 344.7,462.8 344.7,409.4 	"/>
	<path d="M336.1,381.3c-5.4,0-9.8,4.4-9.8,9.8s4.4,9.8,9.8,9.8s9.8-4.4,9.8-9.8C345.9,385.6,341.5,381.3,336.1,381.3z"/>
	<path d="M38.3,199.2c0-33.8,9.1-65.5,24.9-92.8c8.1-14.1,18.1-27,29.5-38.4L74,49.2C60.9,62.3,49.6,77,40.2,93.1
		c-18.1,31.2-28.5,67.5-28.5,106.1s10.4,74.9,28.5,106.1c9.3,16.1,20.7,30.9,33.8,43.9l18.8-18.8C81.3,319,71.4,306.1,63.2,292
		C47.4,264.7,38.3,233,38.3,199.2z"/>
	<path d="M407.8,93.1c-9.2-15.9-20.4-30.4-33.2-43.3c-0.2-0.2-0.3-0.4-0.5-0.5l0,0l-0.1-0.1L355.2,68c11.4,11.4,21.4,24.4,29.5,38.4
		c15.9,27.3,24.9,59.1,24.9,92.8c0,33.8-9.1,65.5-24.9,92.8c-8.1,14.1-18.1,27-29.5,38.4l18.8,18.8c13.1-13.1,24.5-27.8,33.8-43.9
		c18.1-31.2,28.5-67.5,28.5-106.1S425.9,124.3,407.8,93.1z"/>
	<path d="M361.8,278.8c13.6-23.4,21.4-50.6,21.4-79.6s-7.8-56.1-21.4-79.6c-6.9-11.9-15.2-22.7-24.8-32.4c-0.1-0.1-0.3-0.3-0.4-0.4
		l0,0l-0.1-0.1l-18.8,18.8c8.2,8.2,15.3,17.4,21.1,27.4c11.3,19.5,17.8,42.2,17.8,66.3s-6.5,46.8-17.8,66.3
		c-5.8,10.1-12.9,19.3-21.1,27.4l18.8,18.8C346.3,301.9,354.9,290.9,361.8,278.8z"/>
	<path d="M64.8,199.2c0,29,7.8,56.2,21.4,79.6c7,12.1,15.5,23.1,25.3,32.9l18.8-18.8c-8.2-8.2-15.3-17.4-21.1-27.4
		c-11.3-19.5-17.8-42.2-17.8-66.3s6.5-46.8,17.8-66.3c5.8-10.1,12.9-19.3,21.1-27.4l-18.8-18.8c-9.8,9.8-18.3,20.9-25.3,33
		C72.6,143.1,64.8,170.2,64.8,199.2z"/>
	<path d="M132.1,252.3c4.6,8,10.3,15.4,16.9,21.9l18.8-18.7c-4.9-4.9-9.2-10.5-12.7-16.5c-6.8-11.7-10.7-25.3-10.7-39.8
		s3.9-28.1,10.7-39.8c3.5-6,7.7-11.6,12.7-16.5L149,124.2c-6.5,6.5-12.2,13.9-16.9,21.9c-9,15.6-14.2,33.7-14.2,53.1
		S123.1,236.6,132.1,252.3z"/>
	<path d="M315.9,146.1c-4.6-7.9-10.2-15.1-16.5-21.6c-0.1-0.1-0.2-0.2-0.2-0.3l0,0l-0.1-0.1L280.2,143c4.9,4.9,9.2,10.4,12.7,16.5
		c6.8,11.7,10.7,25.3,10.7,39.8s-3.9,28.1-10.7,39.8c-3.5,6-7.7,11.6-12.7,16.5l18.8,18.7c6.5-6.5,12.2-13.9,16.9-21.9
		c9-15.6,14.2-33.7,14.2-53.1S324.9,161.8,315.9,146.1z"/>
	<path d="M245.7,184.3c-0.5-0.8-1.1-1.5-1.7-2.3c-0.4-0.5-0.8-1.1-1.2-1.6c-0.5-0.5-1.1-0.8-1.6-1.2c-0.7-0.6-1.5-1.2-2.3-1.7
		c-0.6-0.4-1-0.9-1.6-1.2c-3.9-2.3-8.4-3.6-13.3-3.6s-9.4,1.3-13.3,3.6c-0.6,0.3-1.1,0.9-1.6,1.2c-0.8,0.5-1.5,1.1-2.3,1.7
		c-0.5,0.4-1.1,0.8-1.6,1.2c-0.5,0.5-0.8,1.1-1.2,1.6c-0.6,0.7-1.2,1.5-1.7,2.3c-0.4,0.6-0.9,1-1.2,1.6c-2.3,3.9-3.6,8.4-3.6,13.3
		c0,4.9,1.3,9.4,3.6,13.3c0.3,0.6,0.8,1,1.2,1.6c0.6,0.8,1.2,1.6,1.8,2.4c0.4,0.5,0.7,1.1,1.2,1.5c0.5,0.5,1.1,0.8,1.6,1.2
		c0.7,0.6,1.5,1.2,2.3,1.7c0.6,0.4,1,0.9,1.6,1.2c3.9,2.3,8.4,3.6,13.3,3.6s9.4-1.3,13.3-3.6c0.6-0.3,1.1-0.9,1.6-1.2
		c0.8-0.5,1.5-1.1,2.3-1.7c0.5-0.4,1.1-0.8,1.6-1.2c0.5-0.5,0.8-1.1,1.2-1.5c0.6-0.7,1.2-1.5,1.8-2.4c0.4-0.6,0.9-1,1.2-1.6
		c2.3-3.9,3.6-8.4,3.6-13.3c0-4.8-1.3-9.4-3.6-13.3C246.6,185.4,246.1,184.9,245.7,184.3z"/>
</g>
</svg>
