<?xml version="1.0" encoding="utf-8"?>
<!-- Generator: Adobe Illustrator 21.0.0, SVG Export Plug-In . SVG Version: 6.00 Build 0)  -->
<svg version="1.1" id="Vrstva_1" xmlns="http://www.w3.org/2000/svg" xmlns:xlink="http://www.w3.org/1999/xlink" x="0px" y="0px"
	 viewBox="0 0 448 512" style="enable-background:new 0 0 448 512;" xml:space="preserve">
<g>
	<polygon points="155.4,337.3 155.4,337.3 155.2,337.3 155.2,355.3 155.2,355.3 155.2,355.3 155.2,355.5 169,355.5 169,337.3 	"/>
	<polygon points="213.5,242.7 213.3,242.7 213.5,242.6 199.4,242.6 196.3,245.6 196.3,259.8 200.3,255.8 208,248 	"/>
	<polygon points="356.7,175.9 316,216.5 292.8,216.5 276.5,216.4 305,187.8 293.1,176 293.1,176 293.1,176 293,175.9 252.3,216.5 
		229.1,216.5 212.7,216.4 241.3,187.8 229.3,175.9 188.6,216.5 165.4,216.5 149.1,216.4 177.6,187.8 165.6,175.9 79.7,261.7 
		79.4,262.1 79.4,262.1 79.3,262.2 91.3,274.2 132,233.5 155.3,233.5 171.5,233.6 143.2,262 143,262.1 143,262.1 142.9,262.2 
		155,274.2 195.6,233.5 196.3,233.5 218.9,233.5 228.6,233.5 235.2,233.6 218.9,249.9 206.8,262 206.7,262.1 206.7,262.1 
		206.6,262.2 218.7,274.2 218.9,274 259.4,233.5 282.7,233.5 298.9,233.6 270.6,262 270.5,262.1 270.5,262.1 270.4,262.2 
		282.3,274.2 368.7,187.8 	"/>
	<path d="M224,32C100.3,32,0,132.3,0,256s100.3,224,224,224s224-100.3,224-224S347.7,32,224,32z M224,424c-1.7,0-3.4-0.1-5.1-0.1
		V286.7l-0.1,0.1v-0.1l-0.2,0.3l-13-13l-9.2-9.3v0.1l-0.1-0.1v51.6l0,0h-21.9h-0.1l0,0h-0.1v54.4v0.2l0,0v0.1h22.1v43.5v7.2
		C116.8,408.4,56,339.2,56,256c0-92.6,75.4-168,168-168s168,75.4,168,168S316.6,424,224,424z"/>
</g>
</svg>
