<?xml version="1.0" encoding="utf-8"?>
<!-- Generator: Adobe Illustrator 21.0.0, SVG Export Plug-In . SVG Version: 6.00 Build 0)  -->
<svg version="1.1" id="Vrstva_1" xmlns="http://www.w3.org/2000/svg" xmlns:xlink="http://www.w3.org/1999/xlink" x="0px" y="0px"
	 viewBox="0 0 448 512" style="enable-background:new 0 0 448 512;" xml:space="preserve">
<g>
	<path d="M292.7,374.5h-0.1l0.1-0.1h-82.9v29.2v0.1l0,0v0.1h68.9c0.1-0.3,0.2-0.7,0.3-1.1c1.6-5.1,4.9-9.4,9.2-12.3
		c-0.4-5.2,0.9-10.4,3.8-14.9c0.2-0.3,0.4-0.6,0.6-0.9C292.6,374.6,292.7,374.5,292.7,374.5z"/>
	<path d="M43.3,269.9l1-1l0.7-0.5v135.5h63v-29.4H74.4V238.6L217.7,94.9l0.4-0.4l143.8,144.2V307v23.1l0,0v0.1
		c2.6-0.9,5.4-1.5,8.2-1.5c5.8,0,11.4,2.1,15.6,5.8c1.8-0.5,3.6-0.9,5.5-1v-38.3l0.1-26.9l1.7,1.7l36.4-24.8l6.7-4.5l0,0l0.1-0.1
		l-83.8-84v-93v-0.3l0,0v-0.2h-46.7v27.2l-0.1,19.2L218.3,22l-0.1-0.1l0,0l-0.1-0.1L34.4,206L0.1,240.3l0,0L0,240.4L43.3,269.9z"/>
	<polygon points="192.1,240.4 125.6,240.4 125.6,374.3 125.6,389 192.1,389 192.1,374.3 	"/>
	<rect x="109.2" y="416.4" width="99.4" height="26.5"/>
	<rect x="91.5" y="458.8" width="134.7" height="26.5"/>
	<rect x="21.6" y="437" width="52.9" height="23.7"/>
	<path d="M279.6,447.8c-2.4-3.1-4-6.8-4.6-10.8h-29.9v23.5v0.1l0,0v0.1H281C279.3,456.5,278.9,452,279.6,447.8z"/>
	<path d="M243.2,317.8h68.9v-77.4h-68.9L243.2,317.8L243.2,317.8z M260.9,300.1V258h33.6v42.1H260.9z"/>
	<path d="M445.6,428.1l-2.8-2.2c-2.6-2.1-3.2-5.7-1.5-8.5l2.5-3.8c2.2-3.4,0.7-8-3.1-9.4l-4.1-1.6c-3.2-1.2-4.8-4.7-3.8-7.9l1.4-4.3
		c1.2-3.8-1.4-7.8-5.4-8.3l-4.5-0.5c-3.4-0.4-5.8-3.3-5.6-6.6l0.2-4.4c0.2-3.8-2.8-6.8-6.4-6.8c-0.4,0-0.6,0-1,0.1l-4.5,0.7
		c-0.4,0.1-0.7,0.1-1,0.1c-2.9,0-5.5-1.9-6.2-4.8l-1.1-4.1c-0.7-2.9-3.4-4.8-6.2-4.8c-0.5,0-1,0.1-1.5,0.2s-1.1,0.4-1.5,0.6
		l-3.9,2.1c-0.3,0.2-0.7,0.3-1,0.4s-0.6,0.2-0.9,0.2c-0.4,0.1-0.7,0.1-1.1,0.1c-1.9,0-3.9-0.9-5.1-2.5l-2.5-3.4
		c-1.3-1.7-3.2-2.5-5.1-2.5s-3.8,0.8-5.1,2.5l-2.5,3.4c-0.2,0.2-0.4,0.5-0.6,0.7c-1.2,1.2-2.8,1.8-4.5,1.8c-0.4,0-0.7-0.1-1.1-0.1
		c-0.3-0.1-0.6-0.1-0.9-0.2c-0.4-0.1-0.7-0.2-1-0.4l-3.9-2.1c-1-0.6-2.1-0.8-3.1-0.8c-2.8,0-5.5,1.9-6.2,4.8l-1.1,4.1
		c-0.7,2.9-3.3,4.8-6.2,4.8c-0.3,0-0.6-0.1-1-0.1l-4.5-0.7c-0.4,0-0.6-0.1-1-0.1c-3.6,0-6.5,3-6.4,6.8l0.2,3.7l0.1,0.7
		c0.2,3.4-2.2,6.3-5.6,6.7l-4.5,0.5c-4,0.5-6.6,4.5-5.4,8.3l1.4,4.3c1.1,3.2-0.6,6.6-3.8,7.9l-2.9,1.1l-1.2,0.5
		c-3.8,1.4-5.3,6-3.1,9.4l2.5,3.8c1.8,2.8,1.2,6.4-1.5,8.5l-2.8,2.1c-2.8,2.2-3.2,6.3-1.1,8.9c0.4,0.6,0.9,1.1,1.5,1.5l1.2,0.8
		c3,1.9,3.8,6.1,1.7,9c-2.7,3.9-0.4,9.3,4.3,9.9l0.2,0.1c1.7,0.2,3.2,1.2,4.1,2.5c1,1.3,1.5,3,1.2,4.8l-0.1,0.4
		c-0.6,4,2.5,7.4,6.3,7.4c0.6,0,1.2-0.1,1.9-0.3h0.1c0.6-0.2,1.2-0.3,1.8-0.3c2.9,0,5.5,2,6.2,4.9l0.2,0.8c0.7,3.1,3.4,5,6.2,5
		c1.2,0,2.5-0.4,3.6-1.1l0.4-0.2c1.1-0.8,2.4-1.1,3.6-1.1c2.3,0,4.5,1.2,5.6,3.5l0.4,0.8c1.1,2.3,3.4,3.5,5.7,3.5
		c1.6,0,3.2-0.6,4.5-1.9l0.5-0.5c1.2-1.3,2.9-1.9,4.5-1.9c1.9,0,3.9,0.9,5.1,2.6l0.5,0.6c1.2,1.7,3.2,2.6,5.1,2.6s3.9-0.9,5.1-2.6
		l0.5-0.6c1.3-1.8,3.2-2.6,5.2-2.6c1.6,0,3.3,0.6,4.5,1.9l0.5,0.5c1.2,1.3,2.9,1.9,4.5,1.9c2.3,0,4.5-1.2,5.7-3.5l0.4-0.8
		c1.1-2.2,3.4-3.5,5.7-3.5c1.2,0,2.5,0.4,3.6,1.1l0.4,0.2c1.1,0.8,2.4,1.1,3.6,1.1c2.8,0,5.5-1.9,6.2-4.9l0.2-0.8
		c0.7-3,3.4-4.9,6.2-4.9c0.6,0,1.2,0.1,1.8,0.2l0.1,0.1c0.6,0.2,1.2,0.3,1.9,0.3c3.7,0,6.8-3.4,6.2-7.4l-0.1-0.4
		c-0.3-1.8,0.2-3.5,1.2-4.8s2.5-2.2,4.2-2.5h0.2c4.7-0.7,7-6.1,4.3-10h-0.1c-2.1-2.9-1.2-7.1,1.8-9l1.2-0.8c0.7-0.4,1.2-0.9,1.6-1.5
		C448.7,434.3,448.4,430.3,445.6,428.1z M340.8,387.6l0.1-0.1c3.8-1.1,7.2-3.3,9.8-6.2l0.1-0.1h3.3c1.9,0,3.8-0.5,5.5-1.2l2.5-1.1
		l2.5,1.1c1.7,0.8,3.6,1.2,5.4,1.2h3.3l1.7,1.9c1.1,1.2,2.4,2.2,3.8,2.9l-0.1,10.6c-4.9,2.4-9.6,5.4-14,8.9
		c-9.6,8.1-16.5,18.4-19.9,29.9l-8.6,3.4c-0.7-0.4-1.4-0.8-2.2-1.1l-2.2-0.8l-1-2.1c-0.3-0.7-0.7-1.2-1.1-1.7
		c-0.5-0.6-0.9-1.1-1.4-1.6l-1.5-1.6l-0.1-2.2c0-0.6-0.1-1.2-0.2-1.9c-0.1-0.8-0.4-1.6-0.6-2.3l-1-2.4c1.8-3.7,2.4-7.8,1.9-11.9
		l-0.1-0.2l1.9-2c1.8-1.9,2.9-4.3,3.2-6.9l0.4-2.8l2.3-1.5c2.3-1.4,4-3.4,5-5.8l0.6-1.5L340.8,387.6z"/>
</g>
</svg>
