<?xml version="1.0" encoding="utf-8"?>
<!-- Generator: Adobe Illustrator 21.0.0, SVG Export Plug-In . SVG Version: 6.00 Build 0)  -->
<svg version="1.1" id="Vrstva_1" xmlns="http://www.w3.org/2000/svg" xmlns:xlink="http://www.w3.org/1999/xlink" x="0px" y="0px"
	 viewBox="0 0 448 512" style="enable-background:new 0 0 448 512;" xml:space="preserve">
<g>
	<path d="M434,263.4l13.9,0.1l-0.1-0.1h0.2L324.3,109.5H125.9h-3.3l-11.4,14.2l-69,86.1L0,262.3h0.1L0,262.5h39.4v106.7H13.9v33.3
		h420.2v-33.3h-22.3V263.4H434L434,263.4z M49.1,242.5l-6.7-0.1l60.3-75.3l20-24.9l73.9,119.1v102.9h-47.8v-90h-46.4v90H60.2V242.5
		H49.1z M391,263.4v100.7H217.5V263.4H391z"/>
	<rect x="241.7" y="287.3" width="49.5" height="39.2"/>
	<rect x="315.5" y="287.3" width="49.5" height="39.2"/>
</g>
</svg>
