<?xml version="1.0" encoding="utf-8"?>
<!-- Generator: Adobe Illustrator 21.0.0, SVG Export Plug-In . SVG Version: 6.00 Build 0)  -->
<svg version="1.1" id="Vrstva_1" xmlns="http://www.w3.org/2000/svg" xmlns:xlink="http://www.w3.org/1999/xlink" x="0px" y="0px"
	 viewBox="0 0 448 512" style="enable-background:new 0 0 448 512;" xml:space="preserve">
<polygon points="395.3,107.5 409.9,107.5 409.9,63.2 395.3,63.2 395.3,72.9 275.1,72.9 275.1,0 173,0 173,182.3 52.7,182.3 
	52.7,172.5 38.1,172.5 38.1,216.9 52.7,216.9 173,216.9 173,401 52.7,401 52.7,391.2 38.1,391.2 38.1,435.6 52.7,435.6 173,435.6 
	173,518 275.1,518 275.1,326.2 395.3,326.2 409.9,326.2 409.9,281.9 395.3,281.9 395.3,291.6 275.1,291.6 275.1,107.5 "/>
</svg>
