<?xml version="1.0" encoding="utf-8"?>
<!-- Generator: Adobe Illustrator 21.0.0, SVG Export Plug-In . SVG Version: 6.00 Build 0)  -->
<svg version="1.1" id="Vrstva_1" xmlns="http://www.w3.org/2000/svg" xmlns:xlink="http://www.w3.org/1999/xlink" x="0px" y="0px"
	 viewBox="0 0 448 512" style="enable-background:new 0 0 448 512;" xml:space="preserve">
<style type="text/css">
	.st0{display:none;}
	.st1{display:inline;}
	.st2{display:none;fill:#374149;}
</style>
<polygon class="st0" points="395.3,107.5 409.9,107.5 409.9,63.2 395.3,63.2 395.3,72.9 275.1,72.9 275.1,0 173,0 173,182.3 
	52.7,182.3 52.7,172.5 38.1,172.5 38.1,216.9 52.7,216.9 173,216.9 173,401 52.7,401 52.7,391.2 38.1,391.2 38.1,435.6 52.7,435.6 
	173,435.6 173,518 275.1,518 275.1,326.2 395.3,326.2 409.9,326.2 409.9,281.9 395.3,281.9 395.3,291.6 275.1,291.6 275.1,107.5 "/>
<g class="st0">
	<polygon class="st1" points="100.6,392.6 100.6,392.3 100.6,392.3 100.6,392.1 71.8,392.1 71.8,511.5 71.8,511.8 71.8,511.8 
		71.8,512 155.1,512 155.1,486.7 100.6,486.7 	"/>
	<path class="st1" d="M217.5,392.1l-33.5,87.9l-12.2,31.7h0.1l-0.1,0.2H202l7.2-20.2h38.9l7.1,20.2h30.3l-46-119.8L217.5,392.1
		L217.5,392.1z M243.8,470.3h-22.3l-7.5-0.1l15.1-41.6l11.1,31.3L243.8,470.3z"/>
	<polygon class="st1" points="377.6,392.1 377.6,427.2 377.4,456 334.1,392.1 309.1,392.1 309.1,512 337.9,512 337.9,476.8 338,448 
		381.4,512 406.4,512 406.4,392.1 	"/>
	<polygon class="st1" points="169.9,93.9 169.9,93.8 169.9,93.8 169.9,93.6 154.1,93.6 154.1,129.6 169.9,129.6 	"/>
	<polygon class="st1" points="189.5,129.4 189.5,129.6 205.3,129.6 205.3,93.6 189.5,93.6 189.5,129.3 	"/>
	<rect x="219" y="93.6" class="st1" width="15.8" height="36"/>
	<rect x="260.2" y="93.6" class="st1" width="15.8" height="36"/>
	<rect x="295.5" y="93.6" class="st1" width="15.8" height="36"/>
	<path class="st1" d="M411,0H42.9C30.3,0,20.2,10.2,20.2,22.8v278c0,12.5,10.2,22.7,22.7,22.7H411c12.5,0,22.7-10.2,22.7-22.7v-278
		C433.7,10.2,423.5,0,411,0z M357.3,202.1v0.3h-49.2v42.1h-53.9l-0.3,0v0h-0.2v20.1H200v-20.1h-54.2h-0.2v-42.1H96.5V60.5h260.2
		l0.6,0V202.1z"/>
</g>
<g class="st0">
	<path class="st1" d="M224,53.5C112.2,53.5,21.5,144.2,21.5,256S112.2,458.5,224,458.5c111.8,0,202.5-90.7,202.5-202.5
		S335.8,53.5,224,53.5z M365.7,310.6c-1.2,3.2-2.6,6.3-4,9.4c-0.3,0.6-0.6,1.2-0.9,1.8c-1.3,2.6-2.5,5.2-3.9,7.7
		c-0.4,0.8-0.9,1.5-1.3,2.2c-1.4,2.3-2.7,4.7-4.2,7c-0.4,0.7-0.9,1.3-1.3,1.9c-1.6,2.3-3.2,4.6-4.8,6.9c-0.3,0.5-0.7,0.9-1.1,1.3
		c-1.8,2.4-3.7,4.7-5.7,7c-0.2,0.2-0.4,0.5-0.7,0.7c-2.2,2.4-4.4,4.8-6.7,7.1c-0.1,0.1-0.1,0.1-0.2,0.2c-2.5,2.4-5,4.8-7.6,7.1
		c0,0,0,0-0.1,0c-2.7,2.3-5.4,4.5-8.2,6.6c-0.4,0.3-0.8,0.5-1.2,0.8c-2.4,1.8-4.9,3.6-7.5,5.2c-6,3.9-12.3,7.3-18.9,10.4l-4.3-30.1
		l-1.7-12.4c0,0,0,0,0,0l0-0.1c-17.4,10.9-37.3,17.2-58.2,18.5l-5.4,37.9C136.9,404.4,72.1,337.7,72.1,256
		c0-83.7,68.1-151.9,151.9-151.9c83.7,0,151.9,68.1,151.9,151.9c0,19.1-3.5,37.4-10,54.2C365.8,310.3,365.8,310.4,365.7,310.6z"/>
	<path class="st1" d="M153.8,192.6L153.8,192.6c0,0-0.1,0.1-0.1,0.1l34.3,48l2.4,3.4l20.3-20.3l3.4-3.4l0,0l0.1-0.1l-3.4-2.4
		l-42.1-30l-5.8-4.2c0,0,0,0,0,0l-0.1-0.1c-1,1.9-2.3,3.6-3.9,5.2c-1.5,1.5-3.2,2.7-4.9,3.7C153.8,192.6,153.8,192.6,153.8,192.6z"
		/>
	<path class="st1" d="M150.7,180.7c1.1-1.1,2-2.4,2.5-3.8c1.7-4.2,0.9-9.1-2.5-12.5c-4.5-4.5-11.8-4.5-16.3,0
		c-4.5,4.5-4.5,11.8,0,16.3c3.4,3.4,8.3,4.2,12.5,2.5C148.3,182.6,149.5,181.8,150.7,180.7z"/>
	<path class="st1" d="M287.4,174L287.4,174C287.4,174,287.3,173.9,287.4,174L143.9,317.3c19.8,19.8,45.8,29.7,71.7,29.7
		c3.6,0,7.2-0.2,10.9-0.6c18.2-1.9,36-8.8,51.2-20.6c3.3-2.6,6.6-5.4,9.7-8.5c38.9-38.9,39.5-101.5,1.9-141.3
		C288.6,175.4,288.1,174.7,287.4,174z M292.7,255.6c-7.1,2.6-16-3.8-19.9-14.4c-3.9-10.5-1.2-21.2,5.9-23.8
		c7.1-2.6,16,3.8,19.9,14.4C302.5,242.4,299.8,253,292.7,255.6z"/>
</g>
<g class="st0">
	<path class="st1" d="M393.1,434.3c0-1.1-1.1-2-2.5-2h-27.8c-12.5,0-22.7-10.1-22.7-22.7V408h18.9v-27.7h-0.3c-0.1,0-0.1,0-0.1,0
		h-0.1c-0.3,0-0.6,0-0.9,0c-0.1,0-0.2,0-0.3,0v-0.1h-20.3v-53.7l0.1-41.8c0,0-0.1,0.1-0.1,0.1v-0.2c-4.7,6-9.9,11.8-15.5,17.4
		c-25.2,25.2-55.8,42.8-88.7,51.6v26.6h-20.4v0.2c-0.4,0-0.8,0-1.2,0c-0.1,0-0.2,0-0.3,0h-0.2V408h18.9v1.6
		c0,12.6-10.2,22.7-22.7,22.7H179c-1.5,0-2.5,0.9-2.5,2l-11.4,50.4c0,1,1.2,2,2.5,2H402c1.3,0,2.5-0.9,2.5-2L393.1,434.3z"/>
	<path class="st1" d="M100,315.1c0.4,0.2,0.9,0.5,1.3,0.7c3.1,1.6,6.3,3.1,9.5,4.5c1,0.4,2,0.9,3,1.3c3,1.3,6.1,2.4,9.2,3.5
		c1.1,0.4,2.3,0.8,3.5,1.1c3.2,1,6.4,2,9.6,2.8c0.9,0.2,1.8,0.4,2.8,0.6c3.6,0.8,7.2,1.6,10.9,2.2c0,0,0.1,0,0.1,0
		c11.1,1.8,22.5,2.4,33.8,1.9c0.5,0,1.1,0,1.6-0.1c4.4-0.2,8.7-0.7,13.1-1.2c1.3-0.2,2.5-0.3,3.8-0.5c2.2-0.3,4.4-0.7,6.6-1.2
		c2.9-0.6,5.8-1.2,8.6-1.9c1.9-0.5,3.8-1,5.7-1.6c2.9-0.8,5.7-1.7,8.5-2.7c1.6-0.6,3.2-1.1,4.9-1.7c3.2-1.2,6.3-2.5,9.3-3.8
		c1.4-0.6,2.9-1.3,4.3-1.9c3.2-1.5,6.4-3.2,9.5-4.9c1.7-0.9,3.4-1.9,5.1-2.9c2.8-1.7,5.6-3.4,8.3-5.3c2-1.4,4-2.8,5.9-4.2
		c1.2-0.9,2.5-1.9,3.7-2.8c3.4-2.6,6.6-5.3,9.9-8.2c0.8-0.7,1.6-1.5,2.4-2.2c1.7-1.6,3.5-3.1,5.2-4.8
		c45.8-45.8,61.6-109.6,46.9-165.6c-0.2-0.7-0.3-1.4-0.5-2.1c-0.5-2-1.3-3.9-1.9-5.8c-5.3-16.8-13.3-32.8-24.4-47.3
		c0,0.1,0,0.2,0,0.3c-0.1-0.1-0.1-0.2-0.2-0.3c9.2,45.9-17.9,110.2-74.2,166.5c-54.3,54.3-115.9,81.3-161.4,75
		c-1.7-0.3-3.4-0.5-5-0.9c0.1,0.1,0.2,0.1,0.2,0.2c-0.1,0-0.2,0-0.3,0C85.8,306.9,92.8,311.2,100,315.1z"/>
	<path class="st1" d="M78,272.9c2.8,1,5.8,1.7,8.9,2.3c0.2,0,0.4,0.1,0.6,0.1c11.4,1.8,24.6,0.5,38.9-3.6c0.9-0.3,1.8-0.5,2.7-0.8
		c2-0.6,4.1-1.3,6.2-2c1.1-0.4,2.2-0.8,3.2-1.2c3.5-1.3,7.1-2.8,10.7-4.4c1.2-0.6,2.5-1.1,3.7-1.7c2.1-1,4.2-2.1,6.3-3.1
		c1-0.5,2-1.1,3-1.6c21.4-11.6,43.5-27.9,64.2-48.6c60.6-60.6,85.3-134,55.3-163.9c-7.7-7.7-18.2-11.8-30.6-12.6
		c-0.5-0.1-1-0.2-1.5-0.2l-139.3-6.1c-4.5-0.2-8.4,3.3-8.6,7.9c-0.2,4.5,3.3,8.4,7.9,8.6l44.2,1.9l38.6,1.8
		c-19.3,9.1-39.5,22.4-58.9,39.3c-0.6,0.5-1.1,0.9-1.7,1.4l0,0c0,0-0.1,0.1-0.1,0.1l40.3,40.3c7.5,7.5,7.5,19.7,0,27.2
		c-3.7,3.7-8.7,5.6-13.6,5.6c-4.9,0-9.9-1.9-13.6-5.6l-38.1-38.1l-2.1-2.1l0,0l-0.1-0.1c-16.6,18.8-29.8,38.4-39.1,57.2
		c-0.6,1.2-1.3,2.3-1.8,3.5L60,91.3c-0.2-4.5-4-8.1-8.6-7.9c-4.5,0.2-8.1,4-7.9,8.6l6.1,139.3c0,0.5,0.1,1,0.2,1.5
		c0.8,12.4,4.9,22.9,12.6,30.6c4.2,4.2,9.4,7.3,15.2,9.4C77.7,272.9,77.8,272.9,78,272.9z"/>
	<path class="st1" d="M131.5,86.5c0,0,0.1-0.1,0.1-0.1l0,0c0,0,0.1-0.1,0.1-0.1L88.6,43.2c-3.7-3.7-8.7-5.6-13.6-5.6
		c-4.9,0-9.8,1.8-13.6,5.6c-7.5,7.5-7.5,19.7,0,27.2l43.1,43.1c4.2-4.8,8.6-9.4,13.2-14C122.2,95,126.8,90.6,131.5,86.5z"/>
</g>
<g class="st0">
	<path class="st1" d="M411.5,262.6l12.4,0.1l-0.1-0.1h0.2L313.6,125.2H136.4h-2.9l-10.2,12.7l-61.6,76.9L24,261.7h0.1l-0.1,0.1h35.2
		V357H36.4v29.8h375.2V357h-19.9v-94.4L411.5,262.6L411.5,262.6z M67.8,243.9l-6-0.1l53.9-67.2l17.9-22.2l66,106.4v91.8h-42.7v-80.4
		h-41.4v80.4H77.8V243.9H67.8z M373.1,262.6v89.9H218.2v-89.9H373.1z"/>
	<rect x="239.8" y="284" class="st1" width="44.2" height="35"/>
	<rect x="305.7" y="284" class="st1" width="44.2" height="35"/>
</g>
<g class="st0">
	<path class="st1" d="M279.8,352.1L279.8,352.1c-0.1,0,0-0.1,0-0.1h-67.3v23.7v0.1l0,0v0.1h55.9c0-0.3,0.1-0.6,0.2-0.9
		c1.3-4.1,4-7.6,7.4-10c-0.3-4.2,0.7-8.4,3.1-12.1c0.1-0.3,0.3-0.5,0.5-0.7C279.7,352.2,279.7,352.1,279.8,352.1z"/>
	<path class="st1" d="M77.4,267.2l0.8-0.8l0.5-0.4v109.9h51.1V352h-27.2V241.9l116.2-116.6l0.4-0.4l116.6,117v55.4l0,18.7
		c0,0,0,0,0,0v0.1c2.1-0.8,4.4-1.2,6.7-1.2c4.7,0,9.2,1.7,12.7,4.7c1.5-0.4,3-0.7,4.5-0.8v-31.1l0.1-21.8l1.3,1.3l29.5-20.1l5.5-3.7
		l0,0l0.1-0.1l-68-68.1V99.9v-0.2l0,0v-0.1h-37.9v22.1l-0.1,15.6l-70.8-71l-0.1-0.1l0,0l-0.1-0.1L70.2,215.4l-27.8,27.8l0,0
		l-0.1,0.1L77.4,267.2z"/>
	<polygon class="st1" points="198.2,243.4 144.2,243.4 144.2,352 144.2,363.9 198.2,363.9 198.2,352 	"/>
	<rect x="130.9" y="386.1" class="st1" width="80.6" height="21.5"/>
	<rect x="116.5" y="420.5" class="st1" width="109.3" height="21.5"/>
	<rect x="59.8" y="402.8" class="st1" width="42.9" height="19.2"/>
	<path class="st1" d="M269.1,411.5c-1.9-2.5-3.2-5.5-3.7-8.7h-24.2v19.1v0.1l0,0v0.1h29.1C268.9,418.7,268.5,415,269.1,411.5z"/>
	<path class="st1" d="M239.6,306.1h55.9v-62.8h-55.9L239.6,306.1L239.6,306.1z M253.9,291.8v-34.1h27.2v34.1H253.9z"/>
	<path class="st1" d="M403.7,395.6l-2.2-1.8c-2.1-1.7-2.6-4.6-1.2-6.9l2.1-3.1c1.8-2.8,0.6-6.5-2.5-7.6l-3.3-1.3
		c-2.6-1-3.9-3.8-3.1-6.4l1.1-3.5c1-3.1-1.1-6.3-4.3-6.7l-3.6-0.4c-2.7-0.3-4.7-2.7-4.5-5.4l0.2-3.5c0.1-3.1-2.2-5.5-5.2-5.5
		c-0.3,0-0.5,0-0.8,0l-3.6,0.6c-0.3,0-0.6,0.1-0.8,0.1c-2.3,0-4.4-1.6-5-3.9L366,337c-0.6-2.4-2.7-3.9-5-3.9c-0.4,0-0.8,0-1.2,0.1
		c-0.4,0.1-0.9,0.3-1.2,0.5l-3.2,1.7c-0.3,0.2-0.6,0.2-0.8,0.3c-0.2,0.1-0.5,0.1-0.8,0.2c-0.3,0-0.6,0.1-0.9,0.1
		c-1.6,0-3.1-0.7-4.2-2.1l-2-2.7c-1-1.4-2.6-2.1-4.2-2.1c-1.6,0-3.1,0.7-4.2,2.1l-2,2.7c-0.1,0.2-0.3,0.4-0.5,0.6
		c-1,1-2.3,1.5-3.6,1.5c-0.3,0-0.6-0.1-0.9-0.1c-0.3,0-0.5-0.1-0.7-0.2c-0.3-0.1-0.6-0.2-0.8-0.3l-3.1-1.7c-0.8-0.5-1.7-0.7-2.5-0.7
		c-2.3,0-4.4,1.5-5,3.9l-0.9,3.3c-0.6,2.3-2.7,3.9-5,3.9c-0.2,0-0.5,0-0.8-0.1l-3.6-0.6c-0.3,0-0.5,0-0.8,0c-2.9,0-5.3,2.4-5.2,5.5
		l0.1,3l0,0.5c0.2,2.7-1.8,5.1-4.5,5.4l-3.6,0.4c-3.2,0.4-5.3,3.6-4.3,6.7l1.1,3.5c0.9,2.6-0.5,5.4-3.1,6.4l-2.3,0.9l-1,0.4
		c-3.1,1.1-4.3,4.9-2.5,7.6l2.1,3.1c1.4,2.2,1,5.2-1.2,6.9l-2.2,1.7c-2.3,1.8-2.6,5.1-0.9,7.3c0.3,0.5,0.8,0.9,1.2,1.2l1,0.6
		c2.4,1.6,3.1,4.9,1.4,7.3c-2.2,3.1-0.3,7.5,3.5,8.1l0.1,0c1.4,0.2,2.6,1,3.3,2c0.8,1,1.2,2.4,1,3.9l0,0.3c-0.5,3.2,2.1,6,5.1,6
		c0.5,0,1-0.1,1.5-0.2h0c0.5-0.1,1-0.2,1.5-0.2c2.4,0,4.5,1.6,5.1,4l0.1,0.6c0.6,2.5,2.8,4.1,5.1,4.1c1,0,2-0.3,2.9-0.9l0.3-0.2
		c0.9-0.6,1.9-0.9,2.9-0.9c1.9,0,3.7,1,4.6,2.8l0.3,0.6c0.9,1.9,2.8,2.8,4.6,2.8c1.3,0,2.6-0.5,3.7-1.5l0.4-0.4
		c1-1.1,2.3-1.6,3.7-1.6c1.6,0,3.2,0.7,4.2,2.1l0.4,0.5c1,1.4,2.6,2.1,4.2,2.1c1.6,0,3.2-0.7,4.2-2.1l0.4-0.5c1-1.4,2.6-2.1,4.2-2.1
		c1.3,0,2.7,0.5,3.7,1.6l0.4,0.4c1,1,2.3,1.5,3.7,1.5c1.9,0,3.7-1,4.6-2.8l0.3-0.6c0.9-1.8,2.8-2.8,4.6-2.8c1,0,2,0.3,2.9,0.9
		l0.3,0.2c0.9,0.6,1.9,0.9,2.9,0.9c2.3,0,4.4-1.5,5-4l0.1-0.6c0.6-2.4,2.7-4,5.1-4c0.5,0,1,0,1.5,0.2l0.1,0c0.5,0.1,1,0.2,1.5,0.2
		c3,0,5.5-2.7,5.1-6l0-0.3c-0.2-1.5,0.2-2.9,1-3.9c0.8-1,2-1.8,3.4-2h0.1c3.8-0.6,5.7-5,3.5-8.1h0c-1.7-2.4-1-5.7,1.4-7.3l1-0.6
		c0.5-0.3,1-0.7,1.3-1.2C406.3,400.6,406,397.4,403.7,395.6z M318.8,362.7l0.1,0c3.1-0.9,5.9-2.7,8-5.1l0.1-0.1h2.7
		c1.5,0,3.1-0.4,4.4-1l2-0.9l2,0.9c1.4,0.6,2.9,1,4.4,1h2.7l1.4,1.6c0.9,1,2,1.8,3.1,2.3l-0.1,8.6c-4,1.9-7.8,4.3-11.4,7.2
		c-7.8,6.5-13.4,14.9-16.1,24.3l-7,2.8c-0.6-0.3-1.1-0.6-1.8-0.9l-1.8-0.7l-0.8-1.7c-0.3-0.6-0.6-1-0.9-1.4
		c-0.4-0.5-0.8-0.9-1.1-1.3l-1.2-1.3l-0.1-1.8c0-0.5-0.1-1-0.2-1.5c-0.1-0.6-0.3-1.3-0.5-1.9l-0.8-2c1.4-3,2-6.3,1.5-9.6l0-0.2
		l1.6-1.6c1.4-1.6,2.3-3.5,2.6-5.6l0.3-2.2l1.9-1.2c1.9-1.1,3.2-2.8,4.1-4.7l0.5-1.2L318.8,362.7z"/>
</g>
<rect y="-83.7" class="st2" width="448" height="50"/>
<rect x="-130" class="st2" width="42" height="512"/>
<g class="st0">
	<polygon class="st1" points="149.2,175 149.2,174.9 130.7,174.9 130.6,174.9 130.6,174.9 130.5,174.9 130.5,217.7 149.2,217.7 
		149.2,175.2 	"/>
	<polygon class="st1" points="191.3,175 191.3,174.9 172.8,174.9 172.7,174.9 172.7,174.9 172.5,174.9 172.5,217.7 191.3,217.7 
		191.3,175.2 	"/>
	<polygon class="st1" points="233.4,175 233.4,174.9 214.9,174.9 214.8,174.9 214.8,174.9 214.6,174.9 214.6,217.7 233.4,217.7 
		233.4,175.2 	"/>
	<polygon class="st1" points="275.5,175 275.5,174.9 256.9,174.9 256.8,174.9 256.8,174.9 256.7,174.9 256.7,217.7 275.5,217.7 
		275.5,175.2 	"/>
	<polygon class="st1" points="298.8,174.9 298.8,174.9 298.7,174.9 298.7,217.7 317.5,217.7 317.5,174.9 298.9,174.9 	"/>
	<path class="st1" d="M421,63.5H27c-14.9,0-27,12.1-27,27.1v330.8c0,14.9,12.1,27,27,27h394c14.9,0,27-12.1,27-27V90.6
		C448,75.6,435.9,63.5,421,63.5z M320.8,304.4L320.8,304.4h-0.1v50.1h-64.1h-0.4l0,0H256v23.9h-63.7H192v-23.7v-0.1l0,0v-0.1h-64.5
		h-0.3v-49.8v-0.2l0,0v-0.1H79.9h-0.2V135.6h288.4v168.8h-47.1H320.8z"/>
</g>
<g class="st0">
	<path class="st1" d="M207.1,382.2l-96.9-0.1c0,0,0.1,0.1,0.1,0.1h-0.2C140.2,409.5,180.2,426,224,426c37.7,0,72.5-12.3,100.7-33.1
		c0.6-0.4,1.2-0.8,1.7-1.3c3-2.3,5.9-4.7,8.7-7.1c0.9-0.8,1.9-1.4,2.7-2.2h-0.2c0,0,0.1-0.1,0.2-0.1H207.1z"/>
	<path class="st1" d="M338,129.8C307.8,102.5,267.8,86,224,86c-37.7,0-72.5,12.3-100.7,33.1c-0.6,0.4-1.2,0.8-1.8,1.3
		c-3,2.3-5.9,4.6-8.7,7.1c-0.9,0.8-1.9,1.4-2.7,2.2h0.2c-0.1,0-0.1,0.1-0.2,0.1C110.1,129.8,338,129.8,338,129.8z"/>
	<path class="st1" d="M333.5,150.5H114.5C56.3,150.5,9,197.9,9,256c0,58.2,47.3,105.5,105.5,105.5h219.1
		c58.1,0,105.5-47.3,105.5-105.5C439,197.9,391.7,150.5,333.5,150.5z M102.2,261l0.1-0.2l0.1,0.3l13.1-45.1h14.4l7,24.2l5.9,20.9
		l0.1-0.2l0.1,0.3l11.2-45.2h16.1l4,0l-22.4,83.5H136l-13.3-44l-13.4,44H93.6l-17.7-66.5l-4.5-17h20l5.9,24.1L102.2,261z
		 M204.4,242.7v56.7h-18.3v-56.7L204.4,242.7L204.4,242.7z M195.2,233.4c-5.7,0-10.4-4.7-10.4-10.4c0-5.7,4.7-10.4,10.4-10.4
		c5.8,0,10.4,4.7,10.4,10.4C205.6,228.7,200.9,233.4,195.2,233.4z M226.8,337.1c5.9-8.9,9.4-19.6,9.4-31.1V206
		c0-17.1,13.4-31,29.8-31v-0.2h67.6c44.7,0,81.1,36.4,81.1,81.1c0,44.7-36.4,81.1-81.1,81.1h-68.8L226.8,337.1z"/>
	<polygon class="st1" points="264,215.8 264,299.3 283.2,299.3 283.2,266.9 314.8,266.9 314.8,249.3 283.2,249.3 283.2,233.4 
		320.2,233.4 320.2,215.8 	"/>
	<rect x="336.3" y="242.5" class="st1" width="18.2" height="56.8"/>
	<path class="st1" d="M345.4,233.5c5.7,0,10.4-4.7,10.4-10.4s-4.7-10.4-10.4-10.4c-5.7,0-10.4,4.7-10.4,10.4
		S339.7,233.5,345.4,233.5z"/>
</g>
<g class="st0">
	<polygon class="st1" points="180.1,384.2 174.4,407 169.5,426.5 157.3,384.2 143.7,384.2 137.1,406.9 131.3,426.4 121,384.2 
		106,384.2 102.2,384.1 102.2,384.2 102.1,384.2 123.1,462.8 137.9,462.8 144.8,440.1 150.5,421.6 163,462.8 177.9,462.8 
		194.6,400.5 199,384.3 198.9,384.3 199,384.2 	"/>
	<rect x="213.7" y="409.4" class="st1" width="17.2" height="53.4"/>
	<path class="st1" d="M222.2,381c-5.4,0-9.8,4.4-9.8,9.8c0,5.4,4.4,9.8,9.8,9.8c5.4,0,9.8-4.4,9.8-9.8
		C232,385.4,227.6,381,222.2,381z"/>
	<polygon class="st1" points="256,384.2 256,462.4 256,462.7 256,462.7 256,462.8 274.1,462.8 274.1,432.3 303.8,432.3 303.8,415.7 
		274.1,415.7 274.1,400.7 309,400.7 309,384.2 	"/>
	<polygon class="st1" points="327.6,409.4 327.6,462.5 327.6,462.7 327.6,462.7 327.6,462.8 344.7,462.8 344.7,409.4 	"/>
	<path class="st1" d="M336.1,381.3c-5.4,0-9.8,4.4-9.8,9.8c0,5.4,4.4,9.8,9.8,9.8c5.4,0,9.8-4.4,9.8-9.8
		C345.9,385.6,341.5,381.3,336.1,381.3z"/>
	<path class="st1" d="M38.3,199.2c0-33.8,9.1-65.5,24.9-92.8c8.1-14.1,18.1-27,29.5-38.4L74,49.2C60.9,62.3,49.6,77,40.2,93.1
		c-18.1,31.2-28.5,67.5-28.5,106.1s10.4,74.9,28.5,106.1c9.3,16.1,20.7,30.9,33.8,43.9l18.8-18.8C81.3,319,71.4,306.1,63.2,292
		C47.4,264.7,38.3,233,38.3,199.2z"/>
	<path class="st1" d="M407.8,93.1c-9.2-15.9-20.4-30.4-33.2-43.3c-0.2-0.2-0.3-0.4-0.5-0.5l0,0c0,0-0.1-0.1-0.1-0.1L355.2,68
		c11.4,11.4,21.4,24.4,29.5,38.4c15.9,27.3,24.9,59.1,24.9,92.8c0,33.8-9.1,65.5-24.9,92.8c-8.1,14.1-18.1,27-29.5,38.4l18.8,18.8
		c13.1-13.1,24.5-27.8,33.8-43.9c18.1-31.2,28.5-67.5,28.5-106.1S425.9,124.3,407.8,93.1z"/>
	<path class="st1" d="M361.8,278.8c13.6-23.4,21.4-50.6,21.4-79.6s-7.8-56.1-21.4-79.6c-6.9-11.9-15.2-22.7-24.8-32.4
		c-0.1-0.1-0.3-0.3-0.4-0.4l0,0c0,0-0.1-0.1-0.1-0.1l-18.8,18.8c8.2,8.2,15.3,17.4,21.1,27.4c11.3,19.5,17.8,42.2,17.8,66.3
		s-6.5,46.8-17.8,66.3c-5.8,10.1-12.9,19.3-21.1,27.4l18.8,18.8C346.3,301.9,354.9,290.9,361.8,278.8z"/>
	<path class="st1" d="M64.8,199.2c0,29,7.8,56.2,21.4,79.6c7,12.1,15.5,23.1,25.3,32.9l18.8-18.8c-8.2-8.2-15.3-17.4-21.1-27.4
		c-11.3-19.5-17.8-42.2-17.8-66.3s6.5-46.8,17.8-66.3c5.8-10.1,12.9-19.3,21.1-27.4l-18.8-18.8c-9.8,9.8-18.3,20.9-25.3,33
		C72.6,143.1,64.8,170.2,64.8,199.2z"/>
	<path class="st1" d="M132.1,252.3c4.6,8,10.3,15.4,16.9,21.9l18.8-18.7c-4.9-4.9-9.2-10.5-12.7-16.5c-6.8-11.7-10.7-25.3-10.7-39.8
		c0-14.5,3.9-28.1,10.7-39.8c3.5-6,7.7-11.6,12.7-16.5L149,124.2c-6.5,6.5-12.2,13.9-16.9,21.9c-9,15.6-14.2,33.7-14.2,53.1
		S123.1,236.6,132.1,252.3z"/>
	<path class="st1" d="M315.9,146.1c-4.6-7.9-10.2-15.1-16.5-21.6c-0.1-0.1-0.2-0.2-0.2-0.3l0,0c0,0-0.1-0.1-0.1-0.1L280.2,143
		c4.9,4.9,9.2,10.4,12.7,16.5c6.8,11.7,10.7,25.3,10.7,39.8c0,14.5-3.9,28.1-10.7,39.8c-3.5,6-7.7,11.6-12.7,16.5l18.8,18.7
		c6.5-6.5,12.2-13.9,16.9-21.9c9-15.6,14.2-33.7,14.2-53.1S324.9,161.8,315.9,146.1z"/>
	<path class="st1" d="M245.7,184.3c-0.5-0.8-1.1-1.5-1.7-2.3c-0.4-0.5-0.8-1.1-1.2-1.6c-0.5-0.5-1.1-0.8-1.6-1.2
		c-0.7-0.6-1.5-1.2-2.3-1.7c-0.6-0.4-1-0.9-1.6-1.2c-3.9-2.3-8.4-3.6-13.3-3.6s-9.4,1.3-13.3,3.6c-0.6,0.3-1.1,0.9-1.6,1.2
		c-0.8,0.5-1.5,1.1-2.3,1.7c-0.5,0.4-1.1,0.8-1.6,1.2c-0.5,0.5-0.8,1.1-1.2,1.6c-0.6,0.7-1.2,1.5-1.7,2.3c-0.4,0.6-0.9,1-1.2,1.6
		c-2.3,3.9-3.6,8.4-3.6,13.3c0,4.9,1.3,9.4,3.6,13.3c0.3,0.6,0.8,1,1.2,1.6c0.6,0.8,1.2,1.6,1.8,2.4c0.4,0.5,0.7,1.1,1.2,1.5
		c0.5,0.5,1.1,0.8,1.6,1.2c0.7,0.6,1.5,1.2,2.3,1.7c0.6,0.4,1,0.9,1.6,1.2c3.9,2.3,8.4,3.6,13.3,3.6s9.4-1.3,13.3-3.6
		c0.6-0.3,1.1-0.9,1.6-1.2c0.8-0.5,1.5-1.1,2.3-1.7c0.5-0.4,1.1-0.8,1.6-1.2c0.5-0.5,0.8-1.1,1.2-1.5c0.6-0.7,1.2-1.5,1.8-2.4
		c0.4-0.6,0.9-1,1.2-1.6c2.3-3.9,3.6-8.4,3.6-13.3c0-4.8-1.3-9.4-3.6-13.3C246.6,185.4,246.1,184.9,245.7,184.3z"/>
</g>
<g class="st0">
	<path class="st1" d="M335.6,148.6H112.4C53.2,148.6,5,196.8,5,256c0,59.3,48.2,107.4,107.4,107.4h223.1
		c59.2,0,107.4-48.2,107.4-107.4C443,196.8,394.8,148.6,335.6,148.6z M100,261.1l0.1-0.2l0.1,0.3l13.3-46h14.7l7.1,24.5l6.1,21.5
		l0.1-0.2l0.1,0.3l11.4-46h16.3l4.2,0l-22.8,85h-16.1l-13.6-44.8l-13.6,44.8H91.1l-18-67.7l-4.6-17.4h20.4l6,24.5L100,261.1z
		 M204,300.2h-18.6v-57.8H204V300V300.2z M194.6,233c-5.8,0-10.6-4.7-10.6-10.6c0-5.9,4.8-10.6,10.6-10.6c5.9,0,10.6,4.7,10.6,10.6
		C205.2,228.2,200.5,233,194.6,233z M226.8,338.6c6-9,9.6-19.9,9.6-31.7V205.1c0-17.4,13.6-31.6,30.3-31.6v-0.2h68.8
		c45.6,0,82.6,37.1,82.6,82.7s-37.1,82.7-82.6,82.7h-70L226.8,338.6z"/>
	<polygon class="st1" points="264.9,215 264.9,215 264.7,215 264.7,300.1 284.3,300.1 284.3,267.1 316.4,267.1 316.4,249.4 
		316.4,249.3 316.4,249.3 316.4,249.2 284.3,249.2 284.3,232.9 321.8,232.9 321.9,232.9 321.9,232.9 322,232.9 322,215 265.2,215 	
		"/>
	<polygon class="st1" points="338.6,242.3 338.6,242.3 338.4,242.3 338.4,299.6 338.4,300 338.4,300 338.4,300.1 357,300.1 
		357,242.3 338.6,242.3 	"/>
	<path class="st1" d="M347.7,233.1c5.8,0,10.6-4.8,10.6-10.6c0-5.8-4.8-10.6-10.6-10.6c-5.8,0-10.6,4.8-10.6,10.6
		C337.1,228.3,341.8,233.1,347.7,233.1z"/>
</g>
<g>
	<path d="M128.3,354.2h64.5v23.7v0.1l0,0v0.1h63.8v-23.9h64.5v-49.9h47.3V136H81v168.3h47.3V354.2z M131.5,217.8v-42.7h18.7v42.7
		H131.5z M173.4,217.8v-42.7h18.7v42.7H173.4z M215.4,217.8v-42.7h18.7v42.7H215.4z M257.3,217.8v-42.7H276v42.7H257.3z
		 M299.2,217.8v-42.7h18.7v42.7H299.2z"/>
	<path d="M421,64.2H28.4c-14.9,0-26.9,12.1-26.9,27v329.8c0,14.9,12.1,27,26.9,27H421c14.9,0,27-12.1,27-27V91.1
		C448,76.2,435.9,64.2,421,64.2z M421,91.1V420v0.9H28.4V91.1H420H421z"/>
</g>
</svg>
