<?xml version="1.0" encoding="utf-8"?>
<!-- Generator: Adobe Illustrator 21.0.0, SVG Export Plug-In . SVG Version: 6.00 Build 0)  -->
<svg version="1.1" id="Vrstva_1" xmlns="http://www.w3.org/2000/svg" xmlns:xlink="http://www.w3.org/1999/xlink" x="0px" y="0px"
	 viewBox="0 0 448 512" style="enable-background:new 0 0 448 512;" xml:space="preserve">
<g>
	<path d="M347.7,0h-26.5H126.8h-26.5c-2.2,0-4,1.8-4,4v26.5v428.9c0,29.1,23.6,52.7,52.7,52.7h150c29.1,0,52.7-23.6,52.7-52.7V30.5
		V4C351.7,1.8,349.9,0,347.7,0z M321.2,414.5H126.8v-380c0-2.2,1.8-4,4-4h186.4c2.2,0,4,1.8,4,4V414.5z M299,481.5H149
		c-12.2,0-22.2-9.9-22.2-22.2v-37.2h194.4v37.2C321.2,471.6,311.3,481.5,299,481.5z"/>
	<path d="M197.5,320.7l-9.6-9.6l0,0l0,0l-0.1-0.1l-18.9,18.9c-3.6,3.6-3.6,9.4,0,13l19,19l9.8-9.8c-2.8-4.6-4.3-10-4.3-15.7
		C193.2,330.7,194.7,325.3,197.5,320.7z"/>
	<path d="M217.5,281.1l-18.7,18.8l0,0l0,0l-0.1,0.1l9.8,9.8c4.6-2.7,9.9-4.3,15.6-4.3c5.8,0,11.1,1.5,15.7,4.3l9.8-9.8l-19-19.1
		C226.9,277.6,221.1,277.6,217.5,281.1z"/>
	<path d="M224,367.2c-5.7,0-11.1-1.5-15.6-4.3l-9.6,9.6l0,0l0,0l-0.1,0.1l18.9,18.9c3.6,3.6,9.4,3.6,13,0l18.9-18.9l-9.8-9.8
		C235.1,365.6,229.7,367.2,224,367.2z"/>
	<path d="M260.3,311l-9.8,9.8c2.7,4.6,4.3,10,4.3,15.6s-1.5,11.1-4.3,15.6l9.8,9.8l18.9-18.9c3.6-3.6,3.6-9.4,0-13L260.3,311z"/>
	<path d="M188.9,119c0-1.9-1.5-3.4-3.4-3.4H163c-1.9,0-3.4,1.5-3.4,3.4v14.6c0,1.9,1.5,3.4,3.4,3.4h22.6c1.9,0,3.4-1.5,3.4-3.4V119
		H188.9z"/>
	<path d="M212.7,137h22.6c1.9,0,3.4-1.5,3.4-3.4V119c0-1.9-1.5-3.4-3.4-3.4h-22.6c-1.9,0-3.4,1.5-3.4,3.4v14.6
		C209.3,135.5,210.8,137,212.7,137z"/>
	<path d="M285,115.6h-22.6c-1.9,0-3.4,1.5-3.4,3.4v14.6c0,1.9,1.5,3.4,3.4,3.4H285c1.9,0,3.4-1.5,3.4-3.4V119
		C288.5,117.1,286.9,115.6,285,115.6z"/>
	<path d="M185.5,173.7H163c-1.9,0-3.4,1.5-3.4,3.4v14.6c0,1.9,1.5,3.4,3.4,3.4h22.6c1.9,0,3.4-1.5,3.4-3.4v-14.6
		C188.9,175.2,187.4,173.7,185.5,173.7z"/>
	<path d="M212.7,195.1h22.6c1.9,0,3.4-1.5,3.4-3.4v-14.6c0-1.9-1.5-3.4-3.4-3.4h-22.6c-1.9,0-3.4,1.5-3.4,3.4v14.6
		C209.3,193.6,210.8,195.1,212.7,195.1z"/>
	<path d="M285,173.7h-22.6c-1.9,0-3.4,1.5-3.4,3.4v14.6c0,1.9,1.5,3.4,3.4,3.4H285c1.9,0,3.4-1.5,3.4-3.4v-14.6
		C288.5,175.2,286.9,173.7,285,173.7z"/>
	<path d="M188.9,249.8v-14.6c0-1.9-1.5-3.4-3.4-3.4H163c-1.9,0-3.4,1.5-3.4,3.4v14.6c0,1.9,1.5,3.4,3.4,3.4h22.6
		C187.4,253.3,188.9,251.7,188.9,249.8z"/>
	<path d="M212.7,253.3h22.6c1.9,0,3.4-1.5,3.4-3.4v-14.6c0-1.9-1.5-3.4-3.4-3.4h-22.6c-1.9,0-3.4,1.5-3.4,3.4v14.6
		C209.3,251.7,210.8,253.3,212.7,253.3z"/>
	<path d="M285,231.8h-22.6c-1.9,0-3.4,1.5-3.4,3.4v14.6c0,1.9,1.5,3.4,3.4,3.4H285c1.9,0,3.4-1.5,3.4-3.4v-14.6
		C288.5,233.3,286.9,231.8,285,231.8z"/>
	<path d="M234,336.3c0-5.5-4.5-10-10-10s-10,4.5-10,10s4.5,10,10,10C229.5,346.4,234,341.9,234,336.3z"/>
	<polygon points="192.1,51.6 191.9,51.6 192.1,51.5 150,51.5 150,93.5 174.6,68.9 	"/>
</g>
</svg>
