<?xml version="1.0" encoding="utf-8"?>
<!-- Generator: Adobe Illustrator 21.0.0, SVG Export Plug-In . SVG Version: 6.00 Build 0)  -->
<svg version="1.1" id="Vrstva_1" xmlns="http://www.w3.org/2000/svg" xmlns:xlink="http://www.w3.org/1999/xlink" x="0px" y="0px"
	 viewBox="0 0 448 512" style="enable-background:new 0 0 448 512;" xml:space="preserve">
<g>
	<path d="M447,184.4l-16.1-16.1L313,50.4l-16.1-16.1c-1.3-1.3-3.5-1.3-4.8,0L276,50.4L15.8,310.6c-17.6,17.6-17.6,46.3,0,63.9l91,91
		c17.6,17.6,46.3,17.6,63.9,0l260.2-260.2l16.1-16.1C448.3,187.9,448.3,185.7,447,184.4z M34.3,329.1l22.6-22.6l117.8,117.8l0.2,0.2
		L152.2,447c-7.4,7.4-19.5,7.4-26.9,0l-91-91C26.9,348.5,26.9,336.5,34.3,329.1z M410,189.2L179.4,419.8l-117.9-118L292.1,71.3
		c1.3-1.3,3.5-1.3,4.8,0L410,184.4C411.3,185.7,411.3,187.9,410,189.2z"/>
	<path d="M142.3,306.9c1.1-4.5,3.4-8.7,6.9-12.2c3.4-3.4,7.6-5.8,12.1-6.9V276h-22.9c-4.3,0-7.9,3.5-7.9,7.9v23H142.3L142.3,306.9z"
		/>
	<path d="M197.5,275.9h-23v11.8c4.4,1.1,8.6,3.4,12.1,6.9s5.8,7.7,6.9,12.2h11.8v-23.1C205.3,279.5,201.8,276,197.5,275.9z"/>
	<path d="M149.2,332.1c-3.5-3.5-5.8-7.6-6.9-12.1h-11.7l0,0l0,0h-0.1v23c0,4.3,3.5,7.9,7.9,7.9h22.9V339
		C156.8,337.9,152.7,335.6,149.2,332.1z"/>
	<path d="M186.6,332.1c-3.4,3.4-7.6,5.8-12.1,6.9v11.8h22.9c4.4,0,7.9-3.5,7.9-7.9V320h-11.8C192.3,324.5,190,328.7,186.6,332.1z"/>
	<path d="M265.5,169.1c1.1,1.1,3,1.1,4.1,0l8.9-8.9c1.1-1.1,1.1-3,0-4.2l-13.7-13.7c-1.1-1.1-3-1.1-4.1,0l-8.9,8.9
		c-1.1,1.1-1.1,3,0,4.2L265.5,169.1z"/>
	<path d="M295,172.6c-1.1-1.1-3-1.1-4.1,0l-8.9,8.9c-1.1,1.1-1.1,3,0,4.1l13.7,13.7c1.1,1.1,3,1.1,4.2,0l8.9-8.9
		c1.1-1.1,1.1-3,0-4.1L295,172.6z"/>
	<path d="M325.2,202.8c-1.1-1.1-3-1.1-4.1,0l-8.9,8.9c-1.1,1.1-1.1,3,0,4.2l13.7,13.7c1.1,1.1,3,1.1,4.2,0l8.9-8.9
		c1.1-1.1,1.1-3,0-4.2L325.2,202.8z"/>
	<path d="M230.2,204.4c1.1,1.1,3,1.1,4.1,0l8.9-8.9c1.1-1.1,1.1-3,0-4.1l-13.7-13.7c-1.1-1.1-3-1.1-4.2,0l-8.9,8.9
		c-1.1,1.1-1.1,3,0,4.1L230.2,204.4z"/>
	<path d="M259.7,207.9c-1.1-1.1-3-1.1-4.2,0l-8.9,8.9c-1.1,1.1-1.1,3,0,4.2l13.7,13.7c1.1,1.1,3,1.1,4.1,0l8.9-8.9
		c1.1-1.1,1.1-3,0-4.1L259.7,207.9z"/>
	<path d="M289.9,238c-1.1-1.1-3-1.1-4.1,0l-8.9,8.9c-1.1,1.1-1.1,3,0,4.2l13.7,13.7c1.1,1.1,3,1.1,4.2,0l8.9-8.9
		c1.1-1.1,1.1-3,0-4.2L289.9,238z"/>
	<path d="M194.3,212.9c-1.1-1.1-3-1.1-4.1,0l-8.9,8.9c-1.1,1.1-1.1,3,0,4.2l13.7,13.7c1.1,1.1,3,1.1,4.2,0l8.9-8.9
		c1.1-1.1,1.1-3,0-4.2L194.3,212.9z"/>
	<path d="M224.5,243.1c-1.1-1.1-3-1.1-4.2,0l-8.9,8.9c-1.1,1.1-1.1,3,0,4.1l13.7,13.7c1.1,1.1,3,1.1,4.1,0l8.9-8.9
		c1.1-1.1,1.1-3,0-4.1L224.5,243.1z"/>
	<path d="M254.6,273.3c-1.1-1.1-3-1.1-4.1,0l-8.9,8.9c-1.1,1.1-1.1,3,0,4.1l13.7,13.7c1.1,1.1,3,1.1,4.1,0l8.9-8.9
		c1.1-1.1,1.1-3,0-4.1L254.6,273.3z"/>
	<path d="M173.9,307.3c-3.4-3.4-8.8-3.4-12.1,0c-3.4,3.4-3.4,8.8,0,12.1c3.4,3.4,8.8,3.4,12.1,0
		C177.3,316.1,177.3,310.7,173.9,307.3z"/>
	<polygon points="321.3,121.2 295.8,95.6 280.9,110.6 270.3,121 270.4,121 270.3,121.2 	"/>
</g>
</svg>
