<?xml version="1.0" encoding="utf-8"?>
<!-- Generator: Adobe Illustrator 21.0.0, SVG Export Plug-In . SVG Version: 6.00 Build 0)  -->
<svg version="1.1" id="Vrstva_1" xmlns="http://www.w3.org/2000/svg" xmlns:xlink="http://www.w3.org/1999/xlink" x="0px" y="0px"
	 viewBox="0 0 448 512" style="enable-background:new 0 0 448 512;" xml:space="preserve">
<g>
	<path d="M440.1,138.8l-98.9-98.9c-10.5-10.5-27.6-10.5-38.2,0l-274,274L166.1,451l274-274C450.6,166.5,450.6,149.4,440.1,138.8z
		 M331.3,213.7c5.8,5.8,5.8,15.3,0,21.1s-15.3,5.8-21.1,0c-5.8-5.8-5.8-15.3,0-21.1C316.1,207.8,325.5,207.8,331.3,213.7z
		 M312.7,167.4c-5.8-5.8-5.8-15.3,0-21.1s15.3-5.8,21.1,0c5.8,5.8,5.8,15.3,0,21.1C327.9,173.2,318.5,173.2,312.7,167.4z M330.6,62
		l14,14c2,2,0.8,5.4-2,5.7l-48.7,5.2c-3.1,0.3-4.9-3.4-2.7-5.7L310.5,62C316,56.4,325,56.4,330.6,62z M296.5,248.6
		c5.8,5.8,5.8,15.3,0,21.1c-5.8,5.8-15.3,5.8-21.1,0c-5.8-5.8-5.8-15.3,0-21.1C281.2,242.7,290.6,242.7,296.5,248.6z M277.8,202.2
		c-5.8-5.8-5.8-15.3,0-21.1s15.3-5.8,21.1,0c5.8,5.8,5.8,15.3,0,21.1C293,208.1,283.6,208.1,277.8,202.2z M280.1,134.8
		c-5.8-5.8-5.8-15.3,0-21.1c5.8-5.8,15.3-5.8,21.1,0c5.8,5.8,5.8,15.3,0,21.1C295.4,140.7,286,140.7,280.1,134.8z M366.2,199.9
		c-5.8,5.8-15.3,5.8-21.1,0c-5.8-5.8-5.8-15.3,0-21.1s15.3-5.8,21.1,0C372.1,184.6,372.1,194,366.2,199.9z M263.9,216.1
		c5.8,5.8,5.8,15.3,0,21.1s-15.3,5.8-21.1,0s-5.8-15.3,0-21.1C248.7,210.2,258.1,210.2,263.9,216.1z M245.3,169.7
		c-5.8-5.8-5.8-15.3,0-21.1s15.3-5.8,21.1,0s5.8,15.3,0,21.1S251.1,175.6,245.3,169.7z M186.8,334c-10.1-1.1-19.8-5.5-27.5-13.2
		s-12.1-17.5-13.2-27.6h18.6c1,5.3,3.5,10.4,7.6,14.5s9.2,6.7,14.5,7.6v16.9L186.8,334z M146,283.1c1.1-10.1,5.5-19.8,13.2-27.5
		c7.7-7.7,17.5-12.1,27.6-13.2V261c-5.3,1-10.4,3.5-14.5,7.6s-6.7,9.2-7.6,14.5h-16.9H146z M177.6,279.2c1-2.9,2.9-5.5,5.7-7.4
		c4.9-3.4,11.6-3.4,16.5,0c3.1,2.1,5.1,5.1,6,8.2c1.5,5.6-3,11-8.8,11h-10.8C180,291,175.6,285,177.6,279.2z M237.7,283.1h-18.6
		c-1-5.3-3.5-10.4-7.6-14.5s-9.2-6.6-14.5-7.6v-18.6c10.1,1.1,19.8,5.5,27.6,13.2c7.1,7.1,11.3,16,12.8,25.3
		C237.4,281.6,237.6,282.3,237.7,283.1z M210.4,183.6c5.8-5.8,15.3-5.8,21.1,0s5.8,15.3,0,21.1s-15.3,5.8-21.1,0
		C204.5,198.8,204.5,189.4,210.4,183.6z M155.5,360l-6.2,6.2c-1.6,1.6-4.1,1.6-5.7,0l-7.5-7.5c-1.6-1.6-1.6-4.1,0-5.7l6.2-6.2
		c1.6-1.6,4.1-1.6,5.7,0l7.5,7.5C157,355.9,157,358.4,155.5,360z M158.2,375.2l6.2-6.2c1.6-1.6,4.1-1.6,5.7,0l7.5,7.5
		c1.6,1.6,1.6,4.1,0,5.7l-6.2,6.2c-1.6,1.6-4.1,1.6-5.7,0l-7.5-7.5C156.6,379.3,156.6,376.8,158.2,375.2z M196.9,334v-18.6
		c5.3-1,10.4-3.5,14.5-7.6s6.7-9.2,7.6-14.5h17h1.8c-1.1,10.1-5.5,19.8-13.2,27.5c-7.1,7.1-16.1,11.3-25.3,12.8
		C198.4,333.7,197.7,333.9,196.9,334z M133.3,337.8L127,344c-1.6,1.6-4.1,1.6-5.7,0l-7.5-7.5c-1.6-1.6-1.6-4.1,0-5.7l6.2-6.2
		c1.6-1.6,4.1-1.6,5.7,0l7.5,7.5C134.8,333.7,134.8,336.2,133.3,337.8z M91.6,308.6l6.2-6.2c1.6-1.6,4.1-1.6,5.7,0l7.5,7.5
		c1.6,1.6,1.6,4.1,0,5.7l-6.2,6.2c-1.6,1.6-4.1,1.6-5.7,0l-7.5-7.5C90,312.7,90,310.2,91.6,308.6z"/>
	<path d="M22,321.2L22,321.2l-0.1-0.1l-14,14c-10.5,10.5-10.5,27.6,0,38.2l98.9,98.9c10.5,10.5,27.6,10.5,38.2,0l14-14L22,321.2
		L22,321.2z"/>
</g>
</svg>
