<?xml version="1.0" encoding="utf-8"?>
<!-- Generator: Adobe Illustrator 21.0.0, SVG Export Plug-In . SVG Version: 6.00 Build 0)  -->
<svg version="1.1" id="Vrstva_1" xmlns="http://www.w3.org/2000/svg" xmlns:xlink="http://www.w3.org/1999/xlink" x="0px" y="0px"
	 viewBox="0 0 448 512" style="enable-background:new 0 0 448 512;" xml:space="preserve">
<style type="text/css">
	.st0{display:none;}
	.st1{display:inline;}
	.st2{display:none;fill:#374149;}
</style>
<polygon class="st0" points="395.3,107.5 409.9,107.5 409.9,63.2 395.3,63.2 395.3,72.9 275.1,72.9 275.1,0 173,0 173,182.3 
	52.7,182.3 52.7,172.5 38.1,172.5 38.1,216.9 52.7,216.9 173,216.9 173,401 52.7,401 52.7,391.2 38.1,391.2 38.1,435.6 52.7,435.6 
	173,435.6 173,518 275.1,518 275.1,326.2 395.3,326.2 409.9,326.2 409.9,281.9 395.3,281.9 395.3,291.6 275.1,291.6 275.1,107.5 "/>
<g class="st0">
	<polygon class="st1" points="100.6,392.6 100.6,392.3 100.6,392.3 100.6,392.1 71.8,392.1 71.8,511.5 71.8,511.8 71.8,511.8 
		71.8,512 155.1,512 155.1,486.7 100.6,486.7 	"/>
	<path class="st1" d="M217.5,392.1l-33.5,87.9l-12.2,31.7h0.1l-0.1,0.2H202l7.2-20.2h38.9l7.1,20.2h30.3l-46-119.8L217.5,392.1
		L217.5,392.1z M243.8,470.3h-22.3l-7.5-0.1l15.1-41.6l11.1,31.3L243.8,470.3z"/>
	<polygon class="st1" points="377.6,392.1 377.6,427.2 377.4,456 334.1,392.1 309.1,392.1 309.1,512 337.9,512 337.9,476.8 338,448 
		381.4,512 406.4,512 406.4,392.1 	"/>
	<polygon class="st1" points="169.9,93.9 169.9,93.8 169.9,93.8 169.9,93.6 154.1,93.6 154.1,129.6 169.9,129.6 	"/>
	<polygon class="st1" points="189.5,129.4 189.5,129.6 205.3,129.6 205.3,93.6 189.5,93.6 189.5,129.3 	"/>
	<rect x="219" y="93.6" class="st1" width="15.8" height="36"/>
	<rect x="260.2" y="93.6" class="st1" width="15.8" height="36"/>
	<rect x="295.5" y="93.6" class="st1" width="15.8" height="36"/>
	<path class="st1" d="M411,0H42.9C30.3,0,20.2,10.2,20.2,22.8v278c0,12.5,10.2,22.7,22.7,22.7H411c12.5,0,22.7-10.2,22.7-22.7v-278
		C433.7,10.2,423.5,0,411,0z M357.3,202.1v0.3h-49.2v42.1h-53.9l-0.3,0v0h-0.2v20.1H200v-20.1h-54.2h-0.2v-42.1H96.5V60.5h260.2
		l0.6,0V202.1z"/>
</g>
<g class="st0">
	<path class="st1" d="M224,32C100.3,32,0,132.3,0,256s100.3,224,224,224c123.7,0,224-100.3,224-224S347.7,32,224,32z M380.8,316.4
		c-1.4,3.5-2.8,7-4.4,10.4c-0.3,0.7-0.7,1.3-1,2c-1.4,2.9-2.8,5.7-4.4,8.5c-0.5,0.8-1,1.6-1.5,2.5c-1.5,2.6-3,5.2-4.7,7.7
		c-0.5,0.7-1,1.4-1.5,2.1c-1.7,2.6-3.5,5.1-5.4,7.6c-0.4,0.5-0.8,1-1.2,1.5c-2,2.6-4.1,5.2-6.3,7.7c-0.2,0.3-0.5,0.5-0.7,0.8
		c-2.4,2.7-4.8,5.3-7.4,7.9c-0.1,0.1-0.1,0.1-0.2,0.2c-2.7,2.7-5.5,5.3-8.4,7.8c0,0,0,0-0.1,0.1c-2.9,2.5-6,5-9.1,7.3
		c-0.4,0.3-0.9,0.6-1.3,0.9c-2.7,2-5.4,3.9-8.3,5.8c-6.6,4.3-13.6,8.1-20.9,11.5l-4.7-33.2l-1.9-13.7c0,0,0,0-0.1,0l0-0.2
		c-19.3,12-41.3,19.1-64.3,20.4l-5.9,41.9C127.7,420.2,56,346.3,56,256c0-92.6,75.4-168,168-168c92.6,0,168,75.4,168,168
		c0,21.1-3.9,41.3-11.1,60C380.9,316.1,380.8,316.2,380.8,316.4z"/>
	<path class="st1" d="M146.3,185.9L146.3,185.9c0,0-0.1,0.1-0.1,0.1l37.9,53.1l2.7,3.7l22.5-22.5l3.8-3.7l0,0l0.1-0.1l-3.7-2.7
		l-46.5-33.2l-6.5-4.6c0,0,0,0,0,0l-0.1-0.1c-1.1,2.1-2.6,4-4.3,5.7c-1.7,1.7-3.5,3-5.5,4.1C146.4,185.8,146.3,185.9,146.3,185.9z"
		/>
	<path class="st1" d="M142.9,172.7c1.2-1.2,2.2-2.7,2.8-4.2c1.9-4.6,1-10.1-2.8-13.8c-5-5-13-5-18,0c-5,5-5,13.1,0,18
		c3.7,3.7,9.2,4.7,13.8,2.8C140.2,174.8,141.6,173.9,142.9,172.7z"/>
	<path class="st1" d="M294.1,165.3L294.1,165.3C294.1,165.3,294.1,165.2,294.1,165.3L135.4,323.8c21.9,21.9,50.6,32.9,79.3,32.9
		c4,0,8-0.2,12-0.7c20.1-2.2,39.8-9.7,56.6-22.8c3.7-2.8,7.3-6,10.7-9.4c43-43,43.7-112.3,2.2-156.2
		C295.5,166.8,294.9,166,294.1,165.3z M300,255.6c-7.9,2.9-17.7-4.2-22-15.9c-4.3-11.7-1.3-23.4,6.5-26.3c7.9-2.9,17.7,4.2,22,15.9
		C310.8,240.9,307.9,252.7,300,255.6z"/>
</g>
<g class="st0">
	<path class="st1" d="M411.6,453.9c0-1.2-1.2-2.2-2.8-2.2H378c-13.8,0-25.2-11.2-25.2-25.2v-1.7h21V394h-0.3c-0.1,0-0.1,0-0.1,0
		h-0.2c-0.3,0-0.7,0-1,0c-0.1,0-0.2,0-0.3,0v-0.2h-22.6v-59.6l0.1-46.4c0,0-0.1,0.1-0.1,0.2v-0.3c-5.3,6.7-11,13.1-17.2,19.3
		c-28,28-61.9,47.5-98.5,57.2v29.6H211v0.2c-0.4,0-0.9,0-1.3,0c-0.1,0-0.2,0-0.3,0h-0.3v30.8h21v1.7c0,14-11.4,25.2-25.2,25.2H174
		c-1.6,0-2.8,1-2.8,2.2l-12.7,55.9c0,1.2,1.3,2.2,2.7,2.2h260.2c1.5,0,2.8-1,2.8-2.2L411.6,453.9z"/>
	<path class="st1" d="M86.4,321.6c0.5,0.3,1,0.6,1.4,0.8c3.4,1.8,7,3.5,10.5,5c1.1,0.5,2.2,1,3.3,1.5c3.4,1.4,6.8,2.7,10.2,3.9
		c1.3,0.4,2.6,0.9,3.8,1.3c3.5,1.1,7.1,2.2,10.6,3.1c1,0.3,2,0.5,3.1,0.7c4,0.9,8,1.8,12,2.4c0,0,0.1,0,0.1,0
		c12.4,2,24.9,2.7,37.6,2.1c0.6,0,1.2,0,1.8-0.1c4.8-0.3,9.7-0.7,14.5-1.4c1.4-0.2,2.8-0.3,4.2-0.5c2.4-0.4,4.9-0.8,7.3-1.3
		c3.2-0.6,6.4-1.3,9.6-2.1c2.1-0.5,4.2-1.1,6.3-1.7c3.2-0.9,6.3-1.9,9.5-3c1.8-0.6,3.6-1.2,5.4-1.9c3.5-1.3,7-2.7,10.4-4.3
		c1.6-0.7,3.2-1.4,4.8-2.1c3.6-1.7,7.1-3.6,10.6-5.5c1.9-1,3.8-2.1,5.7-3.2c3.1-1.9,6.2-3.8,9.2-5.9c2.2-1.5,4.4-3.1,6.6-4.7
		c1.4-1,2.7-2.1,4.1-3.1c3.7-2.9,7.4-5.9,10.9-9.1c0.9-0.8,1.8-1.6,2.6-2.4c1.9-1.8,3.9-3.4,5.8-5.3c50.8-50.8,68.4-121.6,52-183.8
		c-0.2-0.8-0.3-1.6-0.5-2.4c-0.6-2.2-1.4-4.3-2.1-6.5c-5.9-18.6-14.8-36.4-27.1-52.4c0,0.1,0,0.2,0,0.3c-0.1-0.1-0.1-0.2-0.2-0.3
		c10.2,51-19.9,122.3-82.4,184.8c-60.2,60.2-128.6,90.3-179.1,83.2c-1.9-0.3-3.8-0.5-5.6-1c0.1,0.1,0.2,0.1,0.3,0.2
		c-0.1,0-0.2,0-0.3-0.1C70.7,312.5,78.4,317.3,86.4,321.6z"/>
	<path class="st1" d="M61.9,274.8c3.1,1.1,6.4,1.9,9.9,2.5c0.2,0,0.4,0.1,0.7,0.1c12.6,2,27.3,0.5,43.1-4c1-0.3,2-0.6,3-0.9
		c2.3-0.7,4.5-1.4,6.9-2.2c1.2-0.4,2.4-0.9,3.6-1.4c3.9-1.5,7.9-3.1,11.9-4.9c1.4-0.6,2.8-1.2,4.2-1.9c2.3-1.1,4.6-2.3,7-3.5
		c1.1-0.6,2.2-1.2,3.3-1.8c23.8-12.8,48.3-31,71.2-53.9c67.2-67.2,94.7-148.7,61.4-182c-8.5-8.5-20.2-13-34-14
		c-0.5-0.1-1.1-0.2-1.7-0.2L97.7,0c-5-0.2-9.3,3.7-9.5,8.7c-0.2,5,3.7,9.3,8.7,9.5l49.1,2.1l42.8,2c-21.4,10.1-43.8,24.8-65.4,43.6
		c-0.6,0.5-1.2,1-1.8,1.6l0,0c0,0-0.1,0.1-0.1,0.1l44.7,44.7c8.3,8.3,8.3,21.9,0,30.1c-4.2,4.2-9.6,6.2-15.1,6.2
		c-5.5,0-10.9-2.1-15.1-6.2l-42.3-42.3L91.5,98l0,0l-0.1-0.1c-18.5,20.9-33.1,42.6-43.4,63.5c-0.6,1.3-1.4,2.6-2,3.8l-4-91.9
		c-0.2-5-4.5-9-9.5-8.7c-5,0.2-9,4.5-8.7,9.5l6.7,154.6c0,0.6,0.1,1.2,0.2,1.7c0.9,13.8,5.4,25.5,14,34c4.7,4.7,10.4,8,16.8,10.4
		C61.6,274.7,61.8,274.7,61.9,274.8z"/>
	<path class="st1" d="M121.3,67.9c0,0,0.1-0.1,0.1-0.1l0,0c0,0,0.1-0.1,0.1-0.1L73.7,19.9c-4.1-4.1-9.6-6.2-15.1-6.2
		c-5.5,0-10.9,2-15.1,6.2c-8.3,8.3-8.3,21.9,0,30.1l47.8,47.8c4.6-5.3,9.5-10.4,14.6-15.5C111,77.3,116.1,72.5,121.3,67.9z"/>
</g>
<g class="st0">
	<path class="st1" d="M434,263.4l13.9,0.1l-0.1-0.1h0.2L324.3,109.5H125.9h-3.3l-11.4,14.2l-69,86.1L0,262.3h0.1L0,262.5h39.4v106.7
		H13.9v33.3h420.2v-33.3h-22.3V263.4L434,263.4L434,263.4z M49.1,242.5l-6.7-0.1l60.3-75.3l20-24.9l73.9,119.1v102.9h-47.8v-90
		h-46.4v90H60.2V242.5H49.1z M391,263.4v100.7H217.5V263.4H391z"/>
	<rect x="241.7" y="287.3" class="st1" width="49.5" height="39.2"/>
	<rect x="315.5" y="287.3" class="st1" width="49.5" height="39.2"/>
</g>
<g class="st0">
	<path class="st1" d="M292.7,374.5h-0.1c0,0,0.1-0.1,0.1-0.1h-82.9v29.2v0.1l0,0v0.1h68.9c0.1-0.3,0.2-0.7,0.3-1.1
		c1.6-5.1,4.9-9.4,9.2-12.3c-0.4-5.2,0.9-10.4,3.8-14.9c0.2-0.3,0.4-0.6,0.6-0.9C292.6,374.6,292.7,374.5,292.7,374.5z"/>
	<path class="st1" d="M43.3,269.9l1-1l0.7-0.5v135.5H108v-29.4H74.4V238.6L217.7,94.9l0.4-0.4l143.8,144.2V307l0,23.1c0,0,0,0,0,0
		v0.1c2.6-0.9,5.4-1.5,8.2-1.5c5.8,0,11.4,2.1,15.6,5.8c1.8-0.5,3.6-0.9,5.5-1v-38.3l0.1-26.9l1.7,1.7l36.4-24.8l6.7-4.5l0,0
		l0.1-0.1l-83.8-84V63.6v-0.3l0,0v-0.2h-46.7v27.2l-0.1,19.2L218.3,22l-0.1-0.1l0,0l-0.1-0.1L34.4,206L0.1,240.3l0,0L0,240.4
		L43.3,269.9z"/>
	<polygon class="st1" points="192.1,240.4 125.6,240.4 125.6,374.3 125.6,389 192.1,389 192.1,374.3 	"/>
	<rect x="109.2" y="416.4" class="st1" width="99.4" height="26.5"/>
	<rect x="91.5" y="458.8" class="st1" width="134.7" height="26.5"/>
	<rect x="21.6" y="437" class="st1" width="52.9" height="23.7"/>
	<path class="st1" d="M279.6,447.8c-2.4-3.1-4-6.8-4.6-10.8h-29.9v23.5v0.1l0,0v0.1H281C279.3,456.5,278.9,452,279.6,447.8z"/>
	<path class="st1" d="M243.2,317.8h68.9v-77.4h-68.9L243.2,317.8L243.2,317.8z M260.9,300.1v-42.1h33.6v42.1H260.9z"/>
	<path class="st1" d="M445.6,428.1l-2.8-2.2c-2.6-2.1-3.2-5.7-1.5-8.5l2.5-3.8c2.2-3.4,0.7-8-3.1-9.4l-4.1-1.6
		c-3.2-1.2-4.8-4.7-3.8-7.9l1.4-4.3c1.2-3.8-1.4-7.8-5.4-8.3l-4.5-0.5c-3.4-0.4-5.8-3.3-5.6-6.6l0.2-4.4c0.2-3.8-2.8-6.8-6.4-6.8
		c-0.4,0-0.6,0-1,0.1l-4.5,0.7c-0.4,0.1-0.7,0.1-1,0.1c-2.9,0-5.5-1.9-6.2-4.8l-1.1-4.1c-0.7-2.9-3.4-4.8-6.2-4.8
		c-0.5,0-1,0.1-1.5,0.2c-0.5,0.1-1.1,0.4-1.5,0.6l-3.9,2.1c-0.3,0.2-0.7,0.3-1,0.4c-0.3,0.1-0.6,0.2-0.9,0.2
		c-0.4,0.1-0.7,0.1-1.1,0.1c-1.9,0-3.9-0.9-5.1-2.5l-2.5-3.4c-1.3-1.7-3.2-2.5-5.1-2.5c-1.9,0-3.8,0.8-5.1,2.5l-2.5,3.4
		c-0.2,0.2-0.4,0.5-0.6,0.7c-1.2,1.2-2.8,1.8-4.5,1.8c-0.4,0-0.7-0.1-1.1-0.1c-0.3-0.1-0.6-0.1-0.9-0.2c-0.4-0.1-0.7-0.2-1-0.4
		l-3.9-2.1c-1-0.6-2.1-0.8-3.1-0.8c-2.8,0-5.5,1.9-6.2,4.8l-1.1,4.1c-0.7,2.9-3.3,4.8-6.2,4.8c-0.3,0-0.6-0.1-1-0.1l-4.5-0.7
		c-0.4,0-0.6-0.1-1-0.1c-3.6,0-6.5,3-6.4,6.8l0.2,3.7l0.1,0.7c0.2,3.4-2.2,6.3-5.6,6.7l-4.5,0.5c-4,0.5-6.6,4.5-5.4,8.3l1.4,4.3
		c1.1,3.2-0.6,6.6-3.8,7.9l-2.9,1.1l-1.2,0.5c-3.8,1.4-5.3,6-3.1,9.4l2.5,3.8c1.8,2.8,1.2,6.4-1.5,8.5l-2.8,2.1
		c-2.8,2.2-3.2,6.3-1.1,8.9c0.4,0.6,0.9,1.1,1.5,1.5l1.2,0.8c3,1.9,3.8,6.1,1.7,9c-2.7,3.9-0.4,9.3,4.3,9.9l0.2,0.1
		c1.7,0.2,3.2,1.2,4.1,2.5c1,1.3,1.5,3,1.2,4.8l-0.1,0.4c-0.6,4,2.5,7.4,6.3,7.4c0.6,0,1.2-0.1,1.9-0.3h0.1c0.6-0.2,1.2-0.3,1.8-0.3
		c2.9,0,5.5,2,6.2,4.9l0.2,0.8c0.7,3.1,3.4,5,6.2,5c1.2,0,2.5-0.4,3.6-1.1l0.4-0.2c1.1-0.8,2.4-1.1,3.6-1.1c2.3,0,4.5,1.2,5.6,3.5
		l0.4,0.8c1.1,2.3,3.4,3.5,5.7,3.5c1.6,0,3.2-0.6,4.5-1.9l0.5-0.5c1.2-1.3,2.9-1.9,4.5-1.9c1.9,0,3.9,0.9,5.1,2.6l0.5,0.6
		c1.2,1.7,3.2,2.6,5.1,2.6c1.9,0,3.9-0.9,5.1-2.6l0.5-0.6c1.3-1.8,3.2-2.6,5.2-2.6c1.6,0,3.3,0.6,4.5,1.9l0.5,0.5
		c1.2,1.3,2.9,1.9,4.5,1.9c2.3,0,4.5-1.2,5.7-3.5l0.4-0.8c1.1-2.2,3.4-3.5,5.7-3.5c1.2,0,2.5,0.4,3.6,1.1l0.4,0.2
		c1.1,0.8,2.4,1.1,3.6,1.1c2.8,0,5.5-1.9,6.2-4.9l0.2-0.8c0.7-3,3.4-4.9,6.2-4.9c0.6,0,1.2,0.1,1.8,0.2l0.1,0.1
		c0.6,0.2,1.2,0.3,1.9,0.3c3.7,0,6.8-3.4,6.2-7.4l-0.1-0.4c-0.3-1.8,0.2-3.5,1.2-4.8c1-1.3,2.5-2.2,4.2-2.5h0.2
		c4.7-0.7,7-6.1,4.3-10h-0.1c-2.1-2.9-1.2-7.1,1.8-9l1.2-0.8c0.7-0.4,1.2-0.9,1.6-1.5C448.7,434.3,448.4,430.3,445.6,428.1z
		 M340.8,387.6l0.1-0.1c3.8-1.1,7.2-3.3,9.8-6.2l0.1-0.1h3.3c1.9,0,3.8-0.5,5.5-1.2l2.5-1.1l2.5,1.1c1.7,0.8,3.6,1.2,5.4,1.2h3.3
		l1.7,1.9c1.1,1.2,2.4,2.2,3.8,2.9l-0.1,10.6c-4.9,2.4-9.6,5.4-14,8.9c-9.6,8.1-16.5,18.4-19.9,29.9l-8.6,3.4
		c-0.7-0.4-1.4-0.8-2.2-1.1l-2.2-0.8l-1-2.1c-0.3-0.7-0.7-1.2-1.1-1.7c-0.5-0.6-0.9-1.1-1.4-1.6l-1.5-1.6l-0.1-2.2
		c0-0.6-0.1-1.2-0.2-1.9c-0.1-0.8-0.4-1.6-0.6-2.3l-1-2.4c1.8-3.7,2.4-7.8,1.9-11.9l-0.1-0.2l1.9-2c1.8-1.9,2.9-4.3,3.2-6.9l0.4-2.8
		l2.3-1.5c2.3-1.4,4-3.4,5-5.8l0.6-1.5L340.8,387.6z"/>
</g>
<rect y="-83.7" class="st2" width="448" height="50"/>
<rect x="-130" class="st2" width="42" height="512"/>
<g class="st0">
	<polygon class="st1" points="149.2,175 149.2,174.9 130.7,174.9 130.6,174.9 130.6,174.9 130.5,174.9 130.5,217.7 149.2,217.7 
		149.2,175.2 	"/>
	<polygon class="st1" points="191.3,175 191.3,174.9 172.8,174.9 172.7,174.9 172.7,174.9 172.5,174.9 172.5,217.7 191.3,217.7 
		191.3,175.2 	"/>
	<polygon class="st1" points="233.4,175 233.4,174.9 214.9,174.9 214.8,174.9 214.8,174.9 214.6,174.9 214.6,217.7 233.4,217.7 
		233.4,175.2 	"/>
	<polygon class="st1" points="275.5,175 275.5,174.9 256.9,174.9 256.8,174.9 256.8,174.9 256.7,174.9 256.7,217.7 275.5,217.7 
		275.5,175.2 	"/>
	<polygon class="st1" points="298.8,174.9 298.8,174.9 298.7,174.9 298.7,217.7 317.5,217.7 317.5,174.9 298.9,174.9 	"/>
	<path class="st1" d="M421,63.5H27c-14.9,0-27,12.1-27,27.1v330.8c0,14.9,12.1,27,27,27h394c14.9,0,27-12.1,27-27V90.6
		C448,75.6,435.9,63.5,421,63.5z M320.8,304.4L320.8,304.4h-0.1v50.1h-64.1h-0.4l0,0H256v23.9h-63.7H192v-23.7v-0.1l0,0v-0.1h-64.5
		h-0.3v-49.8v-0.2l0,0v-0.1H79.9h-0.2V135.6h288.4v168.8h-47.1H320.8z"/>
</g>
<g class="st0">
	<path class="st1" d="M207.1,382.2l-96.9-0.1c0,0,0.1,0.1,0.1,0.1h-0.2C140.2,409.5,180.2,426,224,426c37.7,0,72.5-12.3,100.7-33.1
		c0.6-0.4,1.2-0.8,1.7-1.3c3-2.3,5.9-4.7,8.7-7.1c0.9-0.8,1.9-1.4,2.7-2.2h-0.2c0,0,0.1-0.1,0.2-0.1H207.1z"/>
	<path class="st1" d="M338,129.8C307.8,102.5,267.8,86,224,86c-37.7,0-72.5,12.3-100.7,33.1c-0.6,0.4-1.2,0.8-1.8,1.3
		c-3,2.3-5.9,4.6-8.7,7.1c-0.9,0.8-1.9,1.4-2.7,2.2h0.2c-0.1,0-0.1,0.1-0.2,0.1C110.1,129.8,338,129.8,338,129.8z"/>
	<path class="st1" d="M333.5,150.5H114.5C56.3,150.5,9,197.9,9,256c0,58.2,47.3,105.5,105.5,105.5h219.1
		c58.1,0,105.5-47.3,105.5-105.5C439,197.9,391.7,150.5,333.5,150.5z M102.2,261l0.1-0.2l0.1,0.3l13.1-45.1h14.4l7,24.2l5.9,20.9
		l0.1-0.2l0.1,0.3l11.2-45.2h16.1l4,0l-22.4,83.5H136l-13.3-44l-13.4,44H93.6l-17.7-66.5l-4.5-17h20l5.9,24.1L102.2,261z
		 M204.4,242.7v56.7h-18.3v-56.7L204.4,242.7L204.4,242.7z M195.2,233.4c-5.7,0-10.4-4.7-10.4-10.4c0-5.7,4.7-10.4,10.4-10.4
		c5.8,0,10.4,4.7,10.4,10.4C205.6,228.7,200.9,233.4,195.2,233.4z M226.8,337.1c5.9-8.9,9.4-19.6,9.4-31.1V206
		c0-17.1,13.4-31,29.8-31v-0.2h67.6c44.7,0,81.1,36.4,81.1,81.1c0,44.7-36.4,81.1-81.1,81.1h-68.8L226.8,337.1z"/>
	<polygon class="st1" points="264,215.8 264,299.3 283.2,299.3 283.2,266.9 314.8,266.9 314.8,249.3 283.2,249.3 283.2,233.4 
		320.2,233.4 320.2,215.8 	"/>
	<rect x="336.3" y="242.5" class="st1" width="18.2" height="56.8"/>
	<path class="st1" d="M345.4,233.5c5.7,0,10.4-4.7,10.4-10.4s-4.7-10.4-10.4-10.4c-5.7,0-10.4,4.7-10.4,10.4
		S339.7,233.5,345.4,233.5z"/>
</g>
<g class="st0">
	<polygon class="st1" points="180.1,384.2 174.4,407 169.5,426.5 157.3,384.2 143.7,384.2 137.1,406.9 131.3,426.4 121,384.2 
		106,384.2 102.2,384.1 102.2,384.2 102.1,384.2 123.1,462.8 137.9,462.8 144.8,440.1 150.5,421.6 163,462.8 177.9,462.8 
		194.6,400.5 199,384.3 198.9,384.3 199,384.2 	"/>
	<rect x="213.7" y="409.4" class="st1" width="17.2" height="53.4"/>
	<path class="st1" d="M222.2,381c-5.4,0-9.8,4.4-9.8,9.8c0,5.4,4.4,9.8,9.8,9.8c5.4,0,9.8-4.4,9.8-9.8
		C232,385.4,227.6,381,222.2,381z"/>
	<polygon class="st1" points="256,384.2 256,462.4 256,462.7 256,462.7 256,462.8 274.1,462.8 274.1,432.3 303.8,432.3 303.8,415.7 
		274.1,415.7 274.1,400.7 309,400.7 309,384.2 	"/>
	<polygon class="st1" points="327.6,409.4 327.6,462.5 327.6,462.7 327.6,462.7 327.6,462.8 344.7,462.8 344.7,409.4 	"/>
	<path class="st1" d="M336.1,381.3c-5.4,0-9.8,4.4-9.8,9.8c0,5.4,4.4,9.8,9.8,9.8c5.4,0,9.8-4.4,9.8-9.8
		C345.9,385.6,341.5,381.3,336.1,381.3z"/>
	<path class="st1" d="M38.3,199.2c0-33.8,9.1-65.5,24.9-92.8c8.1-14.1,18.1-27,29.5-38.4L74,49.2C60.9,62.3,49.6,77,40.2,93.1
		c-18.1,31.2-28.5,67.5-28.5,106.1s10.4,74.9,28.5,106.1c9.3,16.1,20.7,30.9,33.8,43.9l18.8-18.8C81.3,319,71.4,306.1,63.2,292
		C47.4,264.7,38.3,233,38.3,199.2z"/>
	<path class="st1" d="M407.8,93.1c-9.2-15.9-20.4-30.4-33.2-43.3c-0.2-0.2-0.3-0.4-0.5-0.5l0,0c0,0-0.1-0.1-0.1-0.1L355.2,68
		c11.4,11.4,21.4,24.4,29.5,38.4c15.9,27.3,24.9,59.1,24.9,92.8c0,33.8-9.1,65.5-24.9,92.8c-8.1,14.1-18.1,27-29.5,38.4l18.8,18.8
		c13.1-13.1,24.5-27.8,33.8-43.9c18.1-31.2,28.5-67.5,28.5-106.1S425.9,124.3,407.8,93.1z"/>
	<path class="st1" d="M361.8,278.8c13.6-23.4,21.4-50.6,21.4-79.6s-7.8-56.1-21.4-79.6c-6.9-11.9-15.2-22.7-24.8-32.4
		c-0.1-0.1-0.3-0.3-0.4-0.4l0,0c0,0-0.1-0.1-0.1-0.1l-18.8,18.8c8.2,8.2,15.3,17.4,21.1,27.4c11.3,19.5,17.8,42.2,17.8,66.3
		s-6.5,46.8-17.8,66.3c-5.8,10.1-12.9,19.3-21.1,27.4l18.8,18.8C346.3,301.9,354.9,290.9,361.8,278.8z"/>
	<path class="st1" d="M64.8,199.2c0,29,7.8,56.2,21.4,79.6c7,12.1,15.5,23.1,25.3,32.9l18.8-18.8c-8.2-8.2-15.3-17.4-21.1-27.4
		c-11.3-19.5-17.8-42.2-17.8-66.3s6.5-46.8,17.8-66.3c5.8-10.1,12.9-19.3,21.1-27.4l-18.8-18.8c-9.8,9.8-18.3,20.9-25.3,33
		C72.6,143.1,64.8,170.2,64.8,199.2z"/>
	<path class="st1" d="M132.1,252.3c4.6,8,10.3,15.4,16.9,21.9l18.8-18.7c-4.9-4.9-9.2-10.5-12.7-16.5c-6.8-11.7-10.7-25.3-10.7-39.8
		c0-14.5,3.9-28.1,10.7-39.8c3.5-6,7.7-11.6,12.7-16.5L149,124.2c-6.5,6.5-12.2,13.9-16.9,21.9c-9,15.6-14.2,33.7-14.2,53.1
		S123.1,236.6,132.1,252.3z"/>
	<path class="st1" d="M315.9,146.1c-4.6-7.9-10.2-15.1-16.5-21.6c-0.1-0.1-0.2-0.2-0.2-0.3l0,0c0,0-0.1-0.1-0.1-0.1L280.2,143
		c4.9,4.9,9.2,10.4,12.7,16.5c6.8,11.7,10.7,25.3,10.7,39.8c0,14.5-3.9,28.1-10.7,39.8c-3.5,6-7.7,11.6-12.7,16.5l18.8,18.7
		c6.5-6.5,12.2-13.9,16.9-21.9c9-15.6,14.2-33.7,14.2-53.1S324.9,161.8,315.9,146.1z"/>
	<path class="st1" d="M245.7,184.3c-0.5-0.8-1.1-1.5-1.7-2.3c-0.4-0.5-0.8-1.1-1.2-1.6c-0.5-0.5-1.1-0.8-1.6-1.2
		c-0.7-0.6-1.5-1.2-2.3-1.7c-0.6-0.4-1-0.9-1.6-1.2c-3.9-2.3-8.4-3.6-13.3-3.6s-9.4,1.3-13.3,3.6c-0.6,0.3-1.1,0.9-1.6,1.2
		c-0.8,0.5-1.5,1.1-2.3,1.7c-0.5,0.4-1.1,0.8-1.6,1.2c-0.5,0.5-0.8,1.1-1.2,1.6c-0.6,0.7-1.2,1.5-1.7,2.3c-0.4,0.6-0.9,1-1.2,1.6
		c-2.3,3.9-3.6,8.4-3.6,13.3c0,4.9,1.3,9.4,3.6,13.3c0.3,0.6,0.8,1,1.2,1.6c0.6,0.8,1.2,1.6,1.8,2.4c0.4,0.5,0.7,1.1,1.2,1.5
		c0.5,0.5,1.1,0.8,1.6,1.2c0.7,0.6,1.5,1.2,2.3,1.7c0.6,0.4,1,0.9,1.6,1.2c3.9,2.3,8.4,3.6,13.3,3.6s9.4-1.3,13.3-3.6
		c0.6-0.3,1.1-0.9,1.6-1.2c0.8-0.5,1.5-1.1,2.3-1.7c0.5-0.4,1.1-0.8,1.6-1.2c0.5-0.5,0.8-1.1,1.2-1.5c0.6-0.7,1.2-1.5,1.8-2.4
		c0.4-0.6,0.9-1,1.2-1.6c2.3-3.9,3.6-8.4,3.6-13.3c0-4.8-1.3-9.4-3.6-13.3C246.6,185.4,246.1,184.9,245.7,184.3z"/>
</g>
<g class="st0">
	<path class="st1" d="M335.6,148.6H112.4C53.2,148.6,5,196.8,5,256c0,59.3,48.2,107.4,107.4,107.4h223.1
		c59.2,0,107.4-48.2,107.4-107.4C443,196.8,394.8,148.6,335.6,148.6z M100,261.1l0.1-0.2l0.1,0.3l13.3-46h14.7l7.1,24.5l6.1,21.5
		l0.1-0.2l0.1,0.3l11.4-46h16.3l4.2,0l-22.8,85h-16.1l-13.6-44.8l-13.6,44.8H91.1l-18-67.7l-4.6-17.4h20.4l6,24.5L100,261.1z
		 M204,300.2h-18.6v-57.8H204V300V300.2z M194.6,233c-5.8,0-10.6-4.7-10.6-10.6c0-5.9,4.8-10.6,10.6-10.6c5.9,0,10.6,4.7,10.6,10.6
		C205.2,228.2,200.5,233,194.6,233z M226.8,338.6c6-9,9.6-19.9,9.6-31.7V205.1c0-17.4,13.6-31.6,30.3-31.6v-0.2h68.8
		c45.6,0,82.6,37.1,82.6,82.7s-37.1,82.7-82.6,82.7h-70L226.8,338.6z"/>
	<polygon class="st1" points="264.9,215 264.9,215 264.7,215 264.7,300.1 284.3,300.1 284.3,267.1 316.4,267.1 316.4,249.4 
		316.4,249.3 316.4,249.3 316.4,249.2 284.3,249.2 284.3,232.9 321.8,232.9 321.9,232.9 321.9,232.9 322,232.9 322,215 265.2,215 	
		"/>
	<polygon class="st1" points="338.6,242.3 338.6,242.3 338.4,242.3 338.4,299.6 338.4,300 338.4,300 338.4,300.1 357,300.1 
		357,242.3 338.6,242.3 	"/>
	<path class="st1" d="M347.7,233.1c5.8,0,10.6-4.8,10.6-10.6c0-5.8-4.8-10.6-10.6-10.6c-5.8,0-10.6,4.8-10.6,10.6
		C337.1,228.3,341.8,233.1,347.7,233.1z"/>
</g>
<g class="st0">
	<path class="st1" d="M128.3,354.2h64.5v23.7v0.1l0,0v0.1h63.8v-23.9h64.5v-49.9h47.3V136H81v168.3h47.3V354.2z M131.5,217.8v-42.7
		h18.7v42.7H131.5z M173.4,217.8v-42.7h18.7v42.7H173.4z M215.4,217.8v-42.7h18.7v42.7H215.4z M257.3,217.8v-42.7H276v42.7H257.3z
		 M299.2,217.8v-42.7h18.7v42.7H299.2z"/>
	<path class="st1" d="M421,64.2H28.4c-14.9,0-26.9,12.1-26.9,27v329.8c0,14.9,12.1,27,26.9,27H421c14.9,0,27-12.1,27-27V91.1
		C448,76.2,435.9,64.2,421,64.2z M421,91.1V420v0.9H28.4V91.1H420H421z"/>
</g>
<g class="st0">
	<path class="st1" d="M347.7,0h-26.5H126.8h-26.5c-2.2,0-4,1.8-4,4v26.5v428.9c0,29.1,23.6,52.7,52.7,52.7H299
		c29.1,0,52.7-23.6,52.7-52.7V30.5V4C351.7,1.8,349.9,0,347.7,0z M321.2,414.5H126.8v-380c0-2.2,1.8-4,4-4h186.4c2.2,0,4,1.8,4,4
		V414.5z M299,481.5H149c-12.2,0-22.2-9.9-22.2-22.2v-37.2h194.4v37.2C321.2,471.6,311.3,481.5,299,481.5z"/>
	<path class="st1" d="M197.5,320.7l-9.6-9.6l0,0l0,0l-0.1-0.1l-18.9,18.9c-3.6,3.6-3.6,9.4,0,13l19,19l9.8-9.8
		c-2.8-4.6-4.3-10-4.3-15.7C193.2,330.7,194.7,325.3,197.5,320.7z"/>
	<path class="st1" d="M217.5,281.1l-18.7,18.8l0,0h0l-0.1,0.1l9.8,9.8c4.6-2.7,9.9-4.3,15.6-4.3c5.8,0,11.1,1.5,15.7,4.3l9.8-9.8
		l-19-19.1C226.9,277.6,221.1,277.6,217.5,281.1z"/>
	<path class="st1" d="M224,367.2c-5.7,0-11.1-1.5-15.6-4.3l-9.6,9.6l0,0h0l-0.1,0.1l18.9,18.9c3.6,3.6,9.4,3.6,13,0l18.9-18.9
		l-9.8-9.8C235.1,365.6,229.7,367.2,224,367.2z"/>
	<path class="st1" d="M260.3,311l-9.8,9.8c2.7,4.6,4.3,10,4.3,15.6c0,5.6-1.5,11.1-4.3,15.6l9.8,9.8l18.9-18.9c3.6-3.6,3.6-9.4,0-13
		L260.3,311z"/>
	<path class="st1" d="M188.9,119c0-1.9-1.5-3.4-3.4-3.4H163c-1.9,0-3.4,1.5-3.4,3.4v14.6c0,1.9,1.5,3.4,3.4,3.4h22.6
		c1.9,0,3.4-1.5,3.4-3.4V119z"/>
	<path class="st1" d="M212.7,137h22.6c1.9,0,3.4-1.5,3.4-3.4V119c0-1.9-1.5-3.4-3.4-3.4h-22.6c-1.9,0-3.4,1.5-3.4,3.4v14.6
		C209.3,135.5,210.8,137,212.7,137z"/>
	<path class="st1" d="M285,115.6h-22.6c-1.9,0-3.4,1.5-3.4,3.4v14.6c0,1.9,1.5,3.4,3.4,3.4H285c1.9,0,3.4-1.5,3.4-3.4V119
		C288.5,117.1,286.9,115.6,285,115.6z"/>
	<path class="st1" d="M185.5,173.7H163c-1.9,0-3.4,1.5-3.4,3.4v14.6c0,1.9,1.5,3.4,3.4,3.4h22.6c1.9,0,3.4-1.5,3.4-3.4v-14.6
		C188.9,175.2,187.4,173.7,185.5,173.7z"/>
	<path class="st1" d="M212.7,195.1h22.6c1.9,0,3.4-1.5,3.4-3.4v-14.6c0-1.9-1.5-3.4-3.4-3.4h-22.6c-1.9,0-3.4,1.5-3.4,3.4v14.6
		C209.3,193.6,210.8,195.1,212.7,195.1z"/>
	<path class="st1" d="M285,173.7h-22.6c-1.9,0-3.4,1.5-3.4,3.4v14.6c0,1.9,1.5,3.4,3.4,3.4H285c1.9,0,3.4-1.5,3.4-3.4v-14.6
		C288.5,175.2,286.9,173.7,285,173.7z"/>
	<path class="st1" d="M188.9,249.8v-14.6c0-1.9-1.5-3.4-3.4-3.4H163c-1.9,0-3.4,1.5-3.4,3.4v14.6c0,1.9,1.5,3.4,3.4,3.4h22.6
		C187.4,253.3,188.9,251.7,188.9,249.8z"/>
	<path class="st1" d="M212.7,253.3h22.6c1.9,0,3.4-1.5,3.4-3.4v-14.6c0-1.9-1.5-3.4-3.4-3.4h-22.6c-1.9,0-3.4,1.5-3.4,3.4v14.6
		C209.3,251.7,210.8,253.3,212.7,253.3z"/>
	<path class="st1" d="M285,231.8h-22.6c-1.9,0-3.4,1.5-3.4,3.4v14.6c0,1.9,1.5,3.4,3.4,3.4H285c1.9,0,3.4-1.5,3.4-3.4v-14.6
		C288.5,233.3,286.9,231.8,285,231.8z"/>
	<path class="st1" d="M234,336.3c0-5.5-4.5-10-10-10c-5.5,0-10,4.5-10,10c0,5.5,4.5,10,10,10C229.5,346.4,234,341.9,234,336.3z"/>
	<polygon class="st1" points="192.1,51.6 191.9,51.6 192.1,51.5 150,51.5 150,93.5 174.6,68.9 	"/>
</g>
<g class="st0">
	<path class="st1" d="M300,0H148c-16.2,0-29.3,13.1-29.3,29.3v419.5v1.3l0,0v0.2h210.6V29.3C329.3,13.1,316.2,0,300,0z M263.1,336.7
		l-14.3-14.3c3.3-4.8,5.3-10.7,5.3-17c0-6.3-1.9-12.2-5.3-17l14.3-14.3c6.9,8.6,11,19.5,11,31.3c0,11-3.6,21-9.6,29.2
		C264,335.3,263.6,336,263.1,336.7z M251.2,388.5v9.6c0,2.4-2,4.4-4.4,4.4h-11.6c-2.4,0-4.4-2-4.4-4.4v-9.6c0-2.4,2-4.4,4.4-4.4
		h11.6C249.3,384.1,251.2,386.1,251.2,388.5z M217.1,388.5v9.6c0,2.4-2,4.4-4.4,4.4h-11.6c-2.4,0-4.4-2-4.4-4.4v-9.6
		c0-2.4,2-4.4,4.4-4.4h11.6C215.2,384.1,217.1,386.1,217.1,388.5z M184.9,336.7c-6.9-8.6-11-19.5-11-31.3c0-11.9,4.1-22.7,11-31.3
		l14.3,14.3c-3.3,4.8-5.3,10.7-5.3,17c0,6.3,2,12.2,5.3,17l-13,13L184.9,336.7z M257.7,210.8c0-8.9,7.3-16.2,16.2-16.2
		c8.9,0,16.2,7.3,16.2,16.2c0,8.9-7.3,16.2-16.2,16.2C265,227,257.7,219.8,257.7,210.8z M273.9,173.4c-8.9,0-16.2-7.3-16.2-16.2
		c0-8.9,7.3-16.2,16.2-16.2c8.9,0,16.2,7.3,16.2,16.2C290.1,166.2,282.9,173.4,273.9,173.4z M273.9,119.8c-8.9,0-16.2-7.3-16.2-16.2
		c0-8.9,7.3-16.2,16.2-16.2c8.9,0,16.2,7.3,16.2,16.2C290.1,112.6,282.9,119.8,273.9,119.8z M219.8,313.5c-4.7,2.8-11.1,1.2-13.7-4
		c-0.3-0.6-0.5-1.2-0.7-1.8c-0.1-0.4-0.2-0.8-0.3-1.2c-0.3-1.3-0.5-2.6-0.5-3.9c0-0.4,0-0.8,0-1.1c0-0.7,0.1-1.4,0.2-2.1
		c1.2-6.4,6.3-11.5,12.7-12.7c4-0.8,7.8,0,10.9,1.8c5.5,3.1,6.1,10.8,1.7,15.2l-8.3,8.3c-0.5,0.5-1.1,0.9-1.7,1.3
		C220,313.4,219.9,313.4,219.8,313.5z M255.3,266.3L241,280.6c-4.8-3.3-10.7-5.3-17-5.3c-6.3,0-12.2,2-17,5.3l-13-13l-1.3-1.3
		c8.6-6.9,19.5-11,31.3-11c11,0,21,3.6,29.3,9.6C253.9,265.4,254.7,265.7,255.3,266.3z M224,119.8c-8.9,0-16.2-7.3-16.2-16.2
		c0-8.9,7.3-16.2,16.2-16.2c8.9,0,16.2,7.3,16.2,16.2C240.2,112.6,232.9,119.8,224,119.8z M224,141c8.9,0,16.2,7.3,16.2,16.2
		c0,8.9-7.3,16.2-16.2,16.2c-8.9,0-16.2-7.3-16.2-16.2C207.8,148.3,215.1,141,224,141z M224,194.6c8.9,0,16.2,7.3,16.2,16.2
		c0,8.9-7.3,16.2-16.2,16.2c-8.9,0-16.2-7.2-16.2-16.2C207.8,201.9,215.1,194.6,224,194.6z M174.1,141c8.9,0,16.2,7.3,16.2,16.2
		c0,8.9-7.3,16.2-16.2,16.2c-8.9,0-16.2-7.3-16.2-16.2C157.9,148.3,165.1,141,174.1,141z M174.1,119.8c-8.9,0-16.2-7.3-16.2-16.2
		c0-8.9,7.3-16.2,16.2-16.2c8.9,0,16.2,7.3,16.2,16.2C190.3,112.6,183,119.8,174.1,119.8z M174.1,194.6c8.9,0,16.2,7.3,16.2,16.2
		c0,8.9-7.3,16.2-16.2,16.2c-8.9,0-16.2-7.2-16.2-16.2C157.9,201.9,165.1,194.6,174.1,194.6z M141.4,40.6c0-8.5,6.9-15.4,15.4-15.4
		l21.5,0c3,0,4.7,3.5,2.8,5.9l-33.3,41.4c-2.1,2.7-6.4,1.1-6.4-2.3V40.6L141.4,40.6z M162.7,388.5c0-2.4,2-4.4,4.4-4.4h11.6
		c2.4,0,4.4,2,4.4,4.4v9.6c0,2.4-2,4.4-4.4,4.4h-11.6c-2.4,0-4.4-2-4.4-4.4V388.5z M192.7,344.5l14.3-14.3c4.8,3.3,10.7,5.3,17,5.3
		c6.3,0,12.2-1.9,17-5.3l12.9,12.9l1.4,1.4c-8.6,6.9-19.5,11-31.3,11c-11,0-21-3.7-29.3-9.6C194.1,345.4,193.3,345,192.7,344.5z
		 M265,388.5c0-2.4,2-4.4,4.4-4.4h11.6c2.4,0,4.4,2,4.4,4.4v9.6c0,2.4-2,4.4-4.4,4.4h-11.6c-2.4,0-4.4-2-4.4-4.4V388.5z"/>
	<path class="st1" d="M118.7,461.2v21.4c0,16.2,13.1,29.3,29.3,29.3h152c16.2,0,29.3-13.1,29.3-29.3v-21.4H118.7z"/>
</g>
<g class="st0">
	<path class="st1" d="M440.1,138.8l-98.9-98.9c-10.5-10.5-27.6-10.5-38.2,0l-274,274L166.1,451l274-274
		C450.6,166.5,450.6,149.4,440.1,138.8z M331.3,213.7c5.8,5.8,5.8,15.3,0,21.1c-5.8,5.8-15.3,5.8-21.1,0c-5.8-5.8-5.8-15.3,0-21.1
		C316.1,207.8,325.5,207.8,331.3,213.7z M312.7,167.4c-5.8-5.8-5.8-15.3,0-21.1c5.8-5.8,15.3-5.8,21.1,0c5.8,5.8,5.8,15.3,0,21.1
		C327.9,173.2,318.5,173.2,312.7,167.4z M330.6,62l14,14c2,2,0.8,5.4-2,5.7l-48.7,5.2c-3.1,0.3-4.9-3.4-2.7-5.7L310.5,62
		C316,56.4,325,56.4,330.6,62z M296.5,248.6c5.8,5.8,5.8,15.3,0,21.1c-5.8,5.8-15.3,5.8-21.1,0c-5.8-5.8-5.8-15.3,0-21.1
		C281.2,242.7,290.6,242.7,296.5,248.6z M277.8,202.2c-5.8-5.8-5.8-15.3,0-21.1c5.8-5.8,15.3-5.8,21.1,0c5.8,5.8,5.8,15.3,0,21.1
		C293,208.1,283.6,208.1,277.8,202.2z M280.1,134.8c-5.8-5.8-5.8-15.3,0-21.1c5.8-5.8,15.3-5.8,21.1,0c5.8,5.8,5.8,15.3,0,21.1
		C295.4,140.7,286,140.7,280.1,134.8z M366.2,199.9c-5.8,5.8-15.3,5.8-21.1,0c-5.8-5.8-5.8-15.3,0-21.1c5.8-5.8,15.3-5.8,21.1,0
		C372.1,184.6,372.1,194,366.2,199.9z M263.9,216.1c5.8,5.8,5.8,15.3,0,21.1c-5.8,5.8-15.3,5.8-21.1,0c-5.8-5.8-5.8-15.3,0-21.1
		C248.7,210.2,258.1,210.2,263.9,216.1z M245.3,169.7c-5.8-5.8-5.8-15.3,0-21.1c5.8-5.8,15.3-5.8,21.1,0c5.8,5.8,5.8,15.3,0,21.1
		S251.1,175.6,245.3,169.7z M186.8,334c-10.1-1.1-19.8-5.5-27.5-13.2c-7.7-7.7-12.1-17.5-13.2-27.6l18.6,0c1,5.3,3.5,10.4,7.6,14.5
		c4.1,4.1,9.2,6.7,14.5,7.6l0,16.9L186.8,334z M146,283.1c1.1-10.1,5.5-19.8,13.2-27.5c7.7-7.7,17.5-12.1,27.6-13.2l0,18.6
		c-5.3,1-10.4,3.5-14.5,7.6c-4.1,4.1-6.7,9.2-7.6,14.5h-16.9L146,283.1z M177.6,279.2c1-2.9,2.9-5.5,5.7-7.4
		c4.9-3.4,11.6-3.4,16.5,0c3.1,2.1,5.1,5.1,6,8.2c1.5,5.6-3,11-8.8,11l-10.8,0C180,291,175.6,285,177.6,279.2z M237.7,283.1l-18.6,0
		c-1-5.3-3.5-10.4-7.6-14.5c-4.1-4.1-9.2-6.6-14.5-7.6l0-18.6c10.1,1.1,19.8,5.5,27.6,13.2c7.1,7.1,11.3,16,12.8,25.3
		C237.4,281.6,237.6,282.3,237.7,283.1z M210.4,183.6c5.8-5.8,15.3-5.8,21.1,0c5.8,5.8,5.8,15.3,0,21.1c-5.8,5.8-15.3,5.8-21.1,0
		C204.5,198.8,204.5,189.4,210.4,183.6z M155.5,360l-6.2,6.2c-1.6,1.6-4.1,1.6-5.7,0l-7.5-7.5c-1.6-1.6-1.6-4.1,0-5.7l6.2-6.2
		c1.6-1.6,4.1-1.6,5.7,0l7.5,7.5C157,355.9,157,358.4,155.5,360z M158.2,375.2l6.2-6.2c1.6-1.6,4.1-1.6,5.7,0l7.5,7.5
		c1.6,1.6,1.6,4.1,0,5.7l-6.2,6.2c-1.6,1.6-4.1,1.6-5.7,0l-7.5-7.5C156.6,379.3,156.6,376.8,158.2,375.2z M196.9,334l0-18.6
		c5.3-1,10.4-3.5,14.5-7.6c4.1-4.1,6.7-9.2,7.6-14.5H236l1.8,0c-1.1,10.1-5.5,19.8-13.2,27.5c-7.1,7.1-16.1,11.3-25.3,12.8
		C198.4,333.7,197.7,333.9,196.9,334z M133.3,337.8L127,344c-1.6,1.6-4.1,1.6-5.7,0l-7.5-7.5c-1.6-1.6-1.6-4.1,0-5.7l6.2-6.2
		c1.6-1.6,4.1-1.6,5.7,0l7.5,7.5C134.8,333.7,134.8,336.2,133.3,337.8z M91.6,308.6l6.2-6.2c1.6-1.6,4.1-1.6,5.7,0l7.5,7.5
		c1.6,1.6,1.6,4.1,0,5.7l-6.2,6.2c-1.6,1.6-4.1,1.6-5.7,0l-7.5-7.5C90,312.7,90,310.2,91.6,308.6z"/>
	<path class="st1" d="M22,321.2L22,321.2l-0.1-0.1l-14,14c-10.5,10.5-10.5,27.6,0,38.2l98.9,98.9c10.5,10.5,27.6,10.5,38.2,0l14-14
		L22,321.2L22,321.2z"/>
</g>
<g class="st0">
	<path class="st1" d="M447,184.4l-16.1-16.1L313,50.4l-16.1-16.1c-1.3-1.3-3.5-1.3-4.8,0L276,50.4L15.8,310.6
		c-17.6,17.6-17.6,46.3,0,63.9l91,91c17.6,17.6,46.3,17.6,63.9,0l260.2-260.2l16.1-16.1C448.3,187.9,448.3,185.7,447,184.4z
		 M34.3,329.1l22.6-22.6l117.8,117.8l0.2,0.2L152.2,447c-7.4,7.4-19.5,7.4-26.9,0l-91-91C26.9,348.5,26.9,336.5,34.3,329.1z
		 M410,189.2L179.4,419.8L61.5,301.8L292.1,71.3c1.3-1.3,3.5-1.3,4.8,0L410,184.4C411.3,185.7,411.3,187.9,410,189.2z"/>
	<path class="st1" d="M142.3,306.9c1.1-4.5,3.4-8.7,6.9-12.2c3.4-3.4,7.6-5.8,12.1-6.9V276h-22.9c-4.3,0-7.9,3.5-7.9,7.9v23
		L142.3,306.9L142.3,306.9z"/>
	<path class="st1" d="M197.5,275.9l-23,0l0,11.8c4.4,1.1,8.6,3.4,12.1,6.9c3.5,3.5,5.8,7.7,6.9,12.2h11.8l0-23.1
		C205.3,279.5,201.8,276,197.5,275.9z"/>
	<path class="st1" d="M149.2,332.1c-3.5-3.5-5.8-7.6-6.9-12.1l-11.7,0l0,0l0,0h-0.1V343c0,4.3,3.5,7.9,7.9,7.9h22.9V339
		C156.8,337.9,152.7,335.6,149.2,332.1z"/>
	<path class="st1" d="M186.6,332.1c-3.4,3.4-7.6,5.8-12.1,6.9v11.8h22.9c4.4,0,7.9-3.5,7.9-7.9V320h-11.8
		C192.3,324.5,190,328.7,186.6,332.1z"/>
	<path class="st1" d="M265.5,169.1c1.1,1.1,3,1.1,4.1,0l8.9-8.9c1.1-1.1,1.1-3,0-4.2l-13.7-13.7c-1.1-1.1-3-1.1-4.1,0l-8.9,8.9
		c-1.1,1.1-1.1,3,0,4.2L265.5,169.1z"/>
	<path class="st1" d="M295,172.6c-1.1-1.1-3-1.1-4.1,0l-8.9,8.9c-1.1,1.1-1.1,3,0,4.1l13.7,13.7c1.1,1.1,3,1.1,4.2,0l8.9-8.9
		c1.1-1.1,1.1-3,0-4.1L295,172.6z"/>
	<path class="st1" d="M325.2,202.8c-1.1-1.1-3-1.1-4.1,0l-8.9,8.9c-1.1,1.1-1.1,3,0,4.2l13.7,13.7c1.1,1.1,3,1.1,4.2,0l8.9-8.9
		c1.1-1.1,1.1-3,0-4.2L325.2,202.8z"/>
	<path class="st1" d="M230.2,204.4c1.1,1.1,3,1.1,4.1,0l8.9-8.9c1.1-1.1,1.1-3,0-4.1l-13.7-13.7c-1.1-1.1-3-1.1-4.2,0l-8.9,8.9
		c-1.1,1.1-1.1,3,0,4.1L230.2,204.4z"/>
	<path class="st1" d="M259.7,207.9c-1.1-1.1-3-1.1-4.2,0l-8.9,8.9c-1.1,1.1-1.1,3,0,4.2l13.7,13.7c1.1,1.1,3,1.1,4.1,0l8.9-8.9
		c1.1-1.1,1.1-3,0-4.1L259.7,207.9z"/>
	<path class="st1" d="M289.9,238c-1.1-1.1-3-1.1-4.1,0l-8.9,8.9c-1.1,1.1-1.1,3,0,4.2l13.7,13.7c1.1,1.1,3,1.1,4.2,0l8.9-8.9
		c1.1-1.1,1.1-3,0-4.2L289.9,238z"/>
	<path class="st1" d="M194.3,212.9c-1.1-1.1-3-1.1-4.1,0l-8.9,8.9c-1.1,1.1-1.1,3,0,4.2l13.7,13.7c1.1,1.1,3,1.1,4.2,0l8.9-8.9
		c1.1-1.1,1.1-3,0-4.2L194.3,212.9z"/>
	<path class="st1" d="M224.5,243.1c-1.1-1.1-3-1.1-4.2,0l-8.9,8.9c-1.1,1.1-1.1,3,0,4.1l13.7,13.7c1.1,1.1,3,1.1,4.1,0l8.9-8.9
		c1.1-1.1,1.1-3,0-4.1L224.5,243.1z"/>
	<path class="st1" d="M254.6,273.3c-1.1-1.1-3-1.1-4.1,0l-8.9,8.9c-1.1,1.1-1.1,3,0,4.1l13.7,13.7c1.1,1.1,3,1.1,4.1,0l8.9-8.9
		c1.1-1.1,1.1-3,0-4.1L254.6,273.3z"/>
	<path class="st1" d="M173.9,307.3c-3.4-3.4-8.8-3.4-12.1,0c-3.4,3.4-3.4,8.8,0,12.1c3.4,3.4,8.8,3.4,12.1,0
		C177.3,316.1,177.3,310.7,173.9,307.3z"/>
	<polygon class="st1" points="321.3,121.2 295.8,95.6 280.9,110.6 270.3,121 270.4,121 270.3,121.2 	"/>
</g>
<g>
	<path d="M0,38.8v322.6l0,1h0v0.1h448V38.8H0z M381.9,296.5H66.1V104.9h315.8v191.2L381.9,296.5L381.9,296.5z"/>
	<polygon points="72.3,397.8 72.3,472.8 72.3,473 72.3,473 72.3,473.2 375.7,473.2 375.7,397.8 	"/>
	<polygon points="133.1,157 133.1,177.3 133.1,177.3 133.1,177.3 133.1,177.5 158.7,177.5 158.7,244.1 158.7,244.3 158.7,244.3 
		158.7,244.4 184.2,244.4 184.2,177.5 209.7,177.5 209.7,157 	"/>
	<polygon points="314.8,157.2 314.9,157 288.1,157 278.1,183.7 270.5,203.8 253.1,157 233.7,157 226.6,157 226.6,157 226.4,157 
		261.3,244.4 279.9,244.4 305.4,180.7 314.9,157.2 	"/>
</g>
</svg>
