<?xml version="1.0" encoding="utf-8"?>
<!-- Generator: Adobe Illustrator 21.0.0, SVG Export Plug-In . SVG Version: 6.00 Build 0)  -->
<svg version="1.1" id="Vrstva_1" xmlns="http://www.w3.org/2000/svg" xmlns:xlink="http://www.w3.org/1999/xlink" x="0px" y="0px"
	 viewBox="0 0 448 512" style="enable-background:new 0 0 448 512;" xml:space="preserve">
<g>
	<g>
		<path d="M223.8,307.9c9.4,0,17.7-4.1,23.6-10.4H294c12,0,21.7-9.8,21.7-21.7c0-12-9.7-21.7-21.7-21.7h-46.6c-5-5.4-11.8-9-19.4-10
			l-41.5-58.5c-7-9.8-20.5-12.1-30.3-5.1c-9.8,7-12.1,20.5-5.1,30.3l41.4,58.3c-0.4,2.2-0.7,4.4-0.7,6.7
			C191.7,293.5,206.1,307.9,223.8,307.9z"/>
		<path d="M281.7,59.7l5.1,4.8c5,4.7,7.9,11.3,7.9,18.2c0,6.9-2.9,13.5-7.9,18.2l-16.7,15.6c80.4,26.1,113.2,90.3,118.1,144.7h-17.2
			c-8,0-14.5,6.5-14.5,14.5c0,8,6.5,14.5,14.5,14.5h17.2c-7.3,84.8-78.3,151.4-165.1,151.4c-71.6,0-152.5-49.3-164.6-150.7h19.5
			c8,0,14.5-6.5,14.5-14.5c0-8-6.5-14.5-14.5-14.5H58.7c6.5-75.1,62.8-135.9,135.6-149.6v31.4c0,4.1,2.5,7.9,6.2,9.5
			c3.8,1.7,8.2,0.9,11.3-1.9L277,90.5c2.1-2,3.3-4.7,3.3-7.6c0-2.9-1.2-5.6-3.3-7.6l-65.2-60.8c-3-2.8-7.4-3.6-11.3-1.9
			c-3.8,1.7-6.2,5.4-6.2,9.6v31.4c-0.2,0-0.5-0.1-0.7,0C84.2,68.8,0,162.8,0,276.4c0,134.9,112.5,224,223.3,224
			c124,0,228.2-100.6,224.6-224.6C443.5,122.3,319.4,67,281.7,59.7z"/>
	</g>
</g>
</svg>
