<?xml version="1.0" encoding="utf-8"?>
<!-- Generator: Adobe Illustrator 21.0.0, SVG Export Plug-In . SVG Version: 6.00 Build 0)  -->
<svg version="1.1" id="Vrstva_1" xmlns="http://www.w3.org/2000/svg" xmlns:xlink="http://www.w3.org/1999/xlink" x="0px" y="0px"
	 viewBox="0 0 448 512" style="enable-background:new 0 0 448 512;" xml:space="preserve">
<style type="text/css">
	.st0{display:none;}
	.st1{display:inline;}
	.st2{display:none;fill:#374149;}
</style>
<polygon class="st0" points="395.3,107.5 409.9,107.5 409.9,63.2 395.3,63.2 395.3,72.9 275.1,72.9 275.1,0 173,0 173,182.3 
	52.7,182.3 52.7,172.5 38.1,172.5 38.1,216.9 52.7,216.9 173,216.9 173,401 52.7,401 52.7,391.2 38.1,391.2 38.1,435.6 52.7,435.6 
	173,435.6 173,518 275.1,518 275.1,326.2 395.3,326.2 409.9,326.2 409.9,281.9 395.3,281.9 395.3,291.6 275.1,291.6 275.1,107.5 "/>
<g class="st0">
	<polygon class="st1" points="100.6,392.6 100.6,392.3 100.6,392.3 100.6,392.1 71.8,392.1 71.8,511.5 71.8,511.8 71.8,511.8 
		71.8,512 155.1,512 155.1,486.7 100.6,486.7 	"/>
	<path class="st1" d="M217.5,392.1l-33.5,87.9l-12.2,31.7h0.1l-0.1,0.2H202l7.2-20.2h38.9l7.1,20.2h30.3l-46-119.8L217.5,392.1
		L217.5,392.1z M243.8,470.3h-22.3l-7.5-0.1l15.1-41.6l11.1,31.3L243.8,470.3z"/>
	<polygon class="st1" points="377.6,392.1 377.6,427.2 377.4,456 334.1,392.1 309.1,392.1 309.1,512 337.9,512 337.9,476.8 338,448 
		381.4,512 406.4,512 406.4,392.1 	"/>
	<polygon class="st1" points="169.9,93.9 169.9,93.8 169.9,93.8 169.9,93.6 154.1,93.6 154.1,129.6 169.9,129.6 	"/>
	<polygon class="st1" points="189.5,129.4 189.5,129.6 205.3,129.6 205.3,93.6 189.5,93.6 189.5,129.3 	"/>
	<rect x="219" y="93.6" class="st1" width="15.8" height="36"/>
	<rect x="260.2" y="93.6" class="st1" width="15.8" height="36"/>
	<rect x="295.5" y="93.6" class="st1" width="15.8" height="36"/>
	<path class="st1" d="M411,0H42.9C30.3,0,20.2,10.2,20.2,22.8v278c0,12.5,10.2,22.7,22.7,22.7H411c12.5,0,22.7-10.2,22.7-22.7v-278
		C433.7,10.2,423.5,0,411,0z M357.3,202.1v0.3h-49.2v42.1h-53.9l-0.3,0v0h-0.2v20.1H200v-20.1h-54.2h-0.2v-42.1H96.5V60.5h260.2
		l0.6,0V202.1z"/>
</g>
<g class="st0">
	<path class="st1" d="M224,53.5C112.2,53.5,21.5,144.2,21.5,256S112.2,458.5,224,458.5c111.8,0,202.5-90.7,202.5-202.5
		S335.8,53.5,224,53.5z M365.7,310.6c-1.2,3.2-2.6,6.3-4,9.4c-0.3,0.6-0.6,1.2-0.9,1.8c-1.3,2.6-2.5,5.2-3.9,7.7
		c-0.4,0.8-0.9,1.5-1.3,2.2c-1.4,2.3-2.7,4.7-4.2,7c-0.4,0.7-0.9,1.3-1.3,1.9c-1.6,2.3-3.2,4.6-4.8,6.9c-0.3,0.5-0.7,0.9-1.1,1.3
		c-1.8,2.4-3.7,4.7-5.7,7c-0.2,0.2-0.4,0.5-0.7,0.7c-2.2,2.4-4.4,4.8-6.7,7.1c-0.1,0.1-0.1,0.1-0.2,0.2c-2.5,2.4-5,4.8-7.6,7.1
		c0,0,0,0-0.1,0c-2.7,2.3-5.4,4.5-8.2,6.6c-0.4,0.3-0.8,0.5-1.2,0.8c-2.4,1.8-4.9,3.6-7.5,5.2c-6,3.9-12.3,7.3-18.9,10.4l-4.3-30.1
		l-1.7-12.4c0,0,0,0,0,0l0-0.1c-17.4,10.9-37.3,17.2-58.2,18.5l-5.4,37.9C136.9,404.4,72.1,337.7,72.1,256
		c0-83.7,68.1-151.9,151.9-151.9c83.7,0,151.9,68.1,151.9,151.9c0,19.1-3.5,37.4-10,54.2C365.8,310.3,365.8,310.4,365.7,310.6z"/>
	<path class="st1" d="M153.8,192.6L153.8,192.6c0,0-0.1,0.1-0.1,0.1l34.3,48l2.4,3.4l20.3-20.3l3.4-3.4l0,0l0.1-0.1l-3.4-2.4
		l-42.1-30l-5.8-4.2c0,0,0,0,0,0l-0.1-0.1c-1,1.9-2.3,3.6-3.9,5.2c-1.5,1.5-3.2,2.7-4.9,3.7C153.8,192.6,153.8,192.6,153.8,192.6z"
		/>
	<path class="st1" d="M150.7,180.7c1.1-1.1,2-2.4,2.5-3.8c1.7-4.2,0.9-9.1-2.5-12.5c-4.5-4.5-11.8-4.5-16.3,0
		c-4.5,4.5-4.5,11.8,0,16.3c3.4,3.4,8.3,4.2,12.5,2.5C148.3,182.6,149.5,181.8,150.7,180.7z"/>
	<path class="st1" d="M287.4,174L287.4,174C287.4,174,287.3,173.9,287.4,174L143.9,317.3c19.8,19.8,45.8,29.7,71.7,29.7
		c3.6,0,7.2-0.2,10.9-0.6c18.2-1.9,36-8.8,51.2-20.6c3.3-2.6,6.6-5.4,9.7-8.5c38.9-38.9,39.5-101.5,1.9-141.3
		C288.6,175.4,288.1,174.7,287.4,174z M292.7,255.6c-7.1,2.6-16-3.8-19.9-14.4c-3.9-10.5-1.2-21.2,5.9-23.8
		c7.1-2.6,16,3.8,19.9,14.4C302.5,242.4,299.8,253,292.7,255.6z"/>
</g>
<g class="st0">
	<path class="st1" d="M393.1,434.3c0-1.1-1.1-2-2.5-2h-27.8c-12.5,0-22.7-10.1-22.7-22.7V408h18.9v-27.7h-0.3c-0.1,0-0.1,0-0.1,0
		h-0.1c-0.3,0-0.6,0-0.9,0c-0.1,0-0.2,0-0.3,0v-0.1h-20.3v-53.7l0.1-41.8c0,0-0.1,0.1-0.1,0.1v-0.2c-4.7,6-9.9,11.8-15.5,17.4
		c-25.2,25.2-55.8,42.8-88.7,51.6v26.6h-20.4v0.2c-0.4,0-0.8,0-1.2,0c-0.1,0-0.2,0-0.3,0h-0.2V408h18.9v1.6
		c0,12.6-10.2,22.7-22.7,22.7H179c-1.5,0-2.5,0.9-2.5,2l-11.4,50.4c0,1,1.2,2,2.5,2H402c1.3,0,2.5-0.9,2.5-2L393.1,434.3z"/>
	<path class="st1" d="M100,315.1c0.4,0.2,0.9,0.5,1.3,0.7c3.1,1.6,6.3,3.1,9.5,4.5c1,0.4,2,0.9,3,1.3c3,1.3,6.1,2.4,9.2,3.5
		c1.1,0.4,2.3,0.8,3.5,1.1c3.2,1,6.4,2,9.6,2.8c0.9,0.2,1.8,0.4,2.8,0.6c3.6,0.8,7.2,1.6,10.9,2.2c0,0,0.1,0,0.1,0
		c11.1,1.8,22.5,2.4,33.8,1.9c0.5,0,1.1,0,1.6-0.1c4.4-0.2,8.7-0.7,13.1-1.2c1.3-0.2,2.5-0.3,3.8-0.5c2.2-0.3,4.4-0.7,6.6-1.2
		c2.9-0.6,5.8-1.2,8.6-1.9c1.9-0.5,3.8-1,5.7-1.6c2.9-0.8,5.7-1.7,8.5-2.7c1.6-0.6,3.2-1.1,4.9-1.7c3.2-1.2,6.3-2.5,9.3-3.8
		c1.4-0.6,2.9-1.3,4.3-1.9c3.2-1.5,6.4-3.2,9.5-4.9c1.7-0.9,3.4-1.9,5.1-2.9c2.8-1.7,5.6-3.4,8.3-5.3c2-1.4,4-2.8,5.9-4.2
		c1.2-0.9,2.5-1.9,3.7-2.8c3.4-2.6,6.6-5.3,9.9-8.2c0.8-0.7,1.6-1.5,2.4-2.2c1.7-1.6,3.5-3.1,5.2-4.8
		c45.8-45.8,61.6-109.6,46.9-165.6c-0.2-0.7-0.3-1.4-0.5-2.1c-0.5-2-1.3-3.9-1.9-5.8c-5.3-16.8-13.3-32.8-24.4-47.3
		c0,0.1,0,0.2,0,0.3c-0.1-0.1-0.1-0.2-0.2-0.3c9.2,45.9-17.9,110.2-74.2,166.5c-54.3,54.3-115.9,81.3-161.4,75
		c-1.7-0.3-3.4-0.5-5-0.9c0.1,0.1,0.2,0.1,0.2,0.2c-0.1,0-0.2,0-0.3,0C85.8,306.9,92.8,311.2,100,315.1z"/>
	<path class="st1" d="M78,272.9c2.8,1,5.8,1.7,8.9,2.3c0.2,0,0.4,0.1,0.6,0.1c11.4,1.8,24.6,0.5,38.9-3.6c0.9-0.3,1.8-0.5,2.7-0.8
		c2-0.6,4.1-1.3,6.2-2c1.1-0.4,2.2-0.8,3.2-1.2c3.5-1.3,7.1-2.8,10.7-4.4c1.2-0.6,2.5-1.1,3.7-1.7c2.1-1,4.2-2.1,6.3-3.1
		c1-0.5,2-1.1,3-1.6c21.4-11.6,43.5-27.9,64.2-48.6c60.6-60.6,85.3-134,55.3-163.9c-7.7-7.7-18.2-11.8-30.6-12.6
		c-0.5-0.1-1-0.2-1.5-0.2l-139.3-6.1c-4.5-0.2-8.4,3.3-8.6,7.9c-0.2,4.5,3.3,8.4,7.9,8.6l44.2,1.9l38.6,1.8
		c-19.3,9.1-39.5,22.4-58.9,39.3c-0.6,0.5-1.1,0.9-1.7,1.4l0,0c0,0-0.1,0.1-0.1,0.1l40.3,40.3c7.5,7.5,7.5,19.7,0,27.2
		c-3.7,3.7-8.7,5.6-13.6,5.6c-4.9,0-9.9-1.9-13.6-5.6l-38.1-38.1l-2.1-2.1l0,0l-0.1-0.1c-16.6,18.8-29.8,38.4-39.1,57.2
		c-0.6,1.2-1.3,2.3-1.8,3.5L60,91.3c-0.2-4.5-4-8.1-8.6-7.9c-4.5,0.2-8.1,4-7.9,8.6l6.1,139.3c0,0.5,0.1,1,0.2,1.5
		c0.8,12.4,4.9,22.9,12.6,30.6c4.2,4.2,9.4,7.3,15.2,9.4C77.7,272.9,77.8,272.9,78,272.9z"/>
	<path class="st1" d="M131.5,86.5c0,0,0.1-0.1,0.1-0.1l0,0c0,0,0.1-0.1,0.1-0.1L88.6,43.2c-3.7-3.7-8.7-5.6-13.6-5.6
		c-4.9,0-9.8,1.8-13.6,5.6c-7.5,7.5-7.5,19.7,0,27.2l43.1,43.1c4.2-4.8,8.6-9.4,13.2-14C122.2,95,126.8,90.6,131.5,86.5z"/>
</g>
<g class="st0">
	<path class="st1" d="M411.5,262.6l12.4,0.1l-0.1-0.1h0.2L313.6,125.2H136.4h-2.9l-10.2,12.7l-61.6,76.9L24,261.7h0.1l-0.1,0.1h35.2
		V357H36.4v29.8h375.2V357h-19.9v-94.4L411.5,262.6L411.5,262.6z M67.8,243.9l-6-0.1l53.9-67.2l17.9-22.2l66,106.4v91.8h-42.7v-80.4
		h-41.4v80.4H77.8V243.9H67.8z M373.1,262.6v89.9H218.2v-89.9H373.1z"/>
	<rect x="239.8" y="284" class="st1" width="44.2" height="35"/>
	<rect x="305.7" y="284" class="st1" width="44.2" height="35"/>
</g>
<g class="st0">
	<path class="st1" d="M279.8,352.1L279.8,352.1c-0.1,0,0-0.1,0-0.1h-67.3v23.7v0.1l0,0v0.1h55.9c0-0.3,0.1-0.6,0.2-0.9
		c1.3-4.1,4-7.6,7.4-10c-0.3-4.2,0.7-8.4,3.1-12.1c0.1-0.3,0.3-0.5,0.5-0.7C279.7,352.2,279.7,352.1,279.8,352.1z"/>
	<path class="st1" d="M77.4,267.2l0.8-0.8l0.5-0.4v109.9h51.1V352h-27.2V241.9l116.2-116.6l0.4-0.4l116.6,117v55.4l0,18.7
		c0,0,0,0,0,0v0.1c2.1-0.8,4.4-1.2,6.7-1.2c4.7,0,9.2,1.7,12.7,4.7c1.5-0.4,3-0.7,4.5-0.8v-31.1l0.1-21.8l1.3,1.3l29.5-20.1l5.5-3.7
		l0,0l0.1-0.1l-68-68.1V99.9v-0.2l0,0v-0.1h-37.9v22.1l-0.1,15.6l-70.8-71l-0.1-0.1l0,0l-0.1-0.1L70.2,215.4l-27.8,27.8l0,0
		l-0.1,0.1L77.4,267.2z"/>
	<polygon class="st1" points="198.2,243.4 144.2,243.4 144.2,352 144.2,363.9 198.2,363.9 198.2,352 	"/>
	<rect x="130.9" y="386.1" class="st1" width="80.6" height="21.5"/>
	<rect x="116.5" y="420.5" class="st1" width="109.3" height="21.5"/>
	<rect x="59.8" y="402.8" class="st1" width="42.9" height="19.2"/>
	<path class="st1" d="M269.1,411.5c-1.9-2.5-3.2-5.5-3.7-8.7h-24.2v19.1v0.1l0,0v0.1h29.1C268.9,418.7,268.5,415,269.1,411.5z"/>
	<path class="st1" d="M239.6,306.1h55.9v-62.8h-55.9L239.6,306.1L239.6,306.1z M253.9,291.8v-34.1h27.2v34.1H253.9z"/>
	<path class="st1" d="M403.7,395.6l-2.2-1.8c-2.1-1.7-2.6-4.6-1.2-6.9l2.1-3.1c1.8-2.8,0.6-6.5-2.5-7.6l-3.3-1.3
		c-2.6-1-3.9-3.8-3.1-6.4l1.1-3.5c1-3.1-1.1-6.3-4.3-6.7l-3.6-0.4c-2.7-0.3-4.7-2.7-4.5-5.4l0.2-3.5c0.1-3.1-2.2-5.5-5.2-5.5
		c-0.3,0-0.5,0-0.8,0l-3.6,0.6c-0.3,0-0.6,0.1-0.8,0.1c-2.3,0-4.4-1.6-5-3.9L366,337c-0.6-2.4-2.7-3.9-5-3.9c-0.4,0-0.8,0-1.2,0.1
		c-0.4,0.1-0.9,0.3-1.2,0.5l-3.2,1.7c-0.3,0.2-0.6,0.2-0.8,0.3c-0.2,0.1-0.5,0.1-0.8,0.2c-0.3,0-0.6,0.1-0.9,0.1
		c-1.6,0-3.1-0.7-4.2-2.1l-2-2.7c-1-1.4-2.6-2.1-4.2-2.1c-1.6,0-3.1,0.7-4.2,2.1l-2,2.7c-0.1,0.2-0.3,0.4-0.5,0.6
		c-1,1-2.3,1.5-3.6,1.5c-0.3,0-0.6-0.1-0.9-0.1c-0.3,0-0.5-0.1-0.7-0.2c-0.3-0.1-0.6-0.2-0.8-0.3l-3.1-1.7c-0.8-0.5-1.7-0.7-2.5-0.7
		c-2.3,0-4.4,1.5-5,3.9l-0.9,3.3c-0.6,2.3-2.7,3.9-5,3.9c-0.2,0-0.5,0-0.8-0.1l-3.6-0.6c-0.3,0-0.5,0-0.8,0c-2.9,0-5.3,2.4-5.2,5.5
		l0.1,3l0,0.5c0.2,2.7-1.8,5.1-4.5,5.4l-3.6,0.4c-3.2,0.4-5.3,3.6-4.3,6.7l1.1,3.5c0.9,2.6-0.5,5.4-3.1,6.4l-2.3,0.9l-1,0.4
		c-3.1,1.1-4.3,4.9-2.5,7.6l2.1,3.1c1.4,2.2,1,5.2-1.2,6.9l-2.2,1.7c-2.3,1.8-2.6,5.1-0.9,7.3c0.3,0.5,0.8,0.9,1.2,1.2l1,0.6
		c2.4,1.6,3.1,4.9,1.4,7.3c-2.2,3.1-0.3,7.5,3.5,8.1l0.1,0c1.4,0.2,2.6,1,3.3,2c0.8,1,1.2,2.4,1,3.9l0,0.3c-0.5,3.2,2.1,6,5.1,6
		c0.5,0,1-0.1,1.5-0.2h0c0.5-0.1,1-0.2,1.5-0.2c2.4,0,4.5,1.6,5.1,4l0.1,0.6c0.6,2.5,2.8,4.1,5.1,4.1c1,0,2-0.3,2.9-0.9l0.3-0.2
		c0.9-0.6,1.9-0.9,2.9-0.9c1.9,0,3.7,1,4.6,2.8l0.3,0.6c0.9,1.9,2.8,2.8,4.6,2.8c1.3,0,2.6-0.5,3.7-1.5l0.4-0.4
		c1-1.1,2.3-1.6,3.7-1.6c1.6,0,3.2,0.7,4.2,2.1l0.4,0.5c1,1.4,2.6,2.1,4.2,2.1c1.6,0,3.2-0.7,4.2-2.1l0.4-0.5c1-1.4,2.6-2.1,4.2-2.1
		c1.3,0,2.7,0.5,3.7,1.6l0.4,0.4c1,1,2.3,1.5,3.7,1.5c1.9,0,3.7-1,4.6-2.8l0.3-0.6c0.9-1.8,2.8-2.8,4.6-2.8c1,0,2,0.3,2.9,0.9
		l0.3,0.2c0.9,0.6,1.9,0.9,2.9,0.9c2.3,0,4.4-1.5,5-4l0.1-0.6c0.6-2.4,2.7-4,5.1-4c0.5,0,1,0,1.5,0.2l0.1,0c0.5,0.1,1,0.2,1.5,0.2
		c3,0,5.5-2.7,5.1-6l0-0.3c-0.2-1.5,0.2-2.9,1-3.9c0.8-1,2-1.8,3.4-2h0.1c3.8-0.6,5.7-5,3.5-8.1h0c-1.7-2.4-1-5.7,1.4-7.3l1-0.6
		c0.5-0.3,1-0.7,1.3-1.2C406.3,400.6,406,397.4,403.7,395.6z M318.8,362.7l0.1,0c3.1-0.9,5.9-2.7,8-5.1l0.1-0.1h2.7
		c1.5,0,3.1-0.4,4.4-1l2-0.9l2,0.9c1.4,0.6,2.9,1,4.4,1h2.7l1.4,1.6c0.9,1,2,1.8,3.1,2.3l-0.1,8.6c-4,1.9-7.8,4.3-11.4,7.2
		c-7.8,6.5-13.4,14.9-16.1,24.3l-7,2.8c-0.6-0.3-1.1-0.6-1.8-0.9l-1.8-0.7l-0.8-1.7c-0.3-0.6-0.6-1-0.9-1.4
		c-0.4-0.5-0.8-0.9-1.1-1.3l-1.2-1.3l-0.1-1.8c0-0.5-0.1-1-0.2-1.5c-0.1-0.6-0.3-1.3-0.5-1.9l-0.8-2c1.4-3,2-6.3,1.5-9.6l0-0.2
		l1.6-1.6c1.4-1.6,2.3-3.5,2.6-5.6l0.3-2.2l1.9-1.2c1.9-1.1,3.2-2.8,4.1-4.7l0.5-1.2L318.8,362.7z"/>
</g>
<rect y="-83.7" class="st2" width="448" height="50"/>
<rect x="-130" class="st2" width="42" height="512"/>
<g class="st0">
	<polygon class="st1" points="168.4,195.7 168.4,195.6 154.6,195.6 154.5,195.6 154.5,195.6 154.4,195.6 154.4,227.5 168.4,227.5 
		168.4,195.8 	"/>
	<polygon class="st1" points="199.7,195.7 199.7,195.6 185.9,195.6 185.8,195.6 185.8,195.6 185.7,195.6 185.7,227.5 199.7,227.5 
		199.7,195.8 	"/>
	<polygon class="st1" points="231,195.7 231,195.6 217.2,195.6 217.1,195.6 217.1,195.6 217,195.6 217,227.5 231,227.5 231,195.8 	
		"/>
	<polygon class="st1" points="262.3,195.7 262.3,195.6 248.5,195.6 248.4,195.6 248.4,195.6 248.3,195.6 248.3,227.5 262.3,227.5 
		262.3,195.8 	"/>
	<polygon class="st1" points="279.7,195.6 279.7,195.6 279.6,195.6 279.6,227.5 293.6,227.5 293.6,195.6 279.8,195.6 	"/>
	<path class="st1" d="M370.6,112.7H77.4c-11.1,0-20.1,9-20.1,20.2v246.3c0,11.1,9,20.1,20.1,20.1h293.3c11.1,0,20.1-9,20.1-20.1
		V132.9C390.7,121.7,381.7,112.7,370.6,112.7z M296.1,292L296.1,292H296v37.3h-47.7h-0.3l0,0h-0.1v17.8h-47.4h-0.2v-17.7v-0.1l0,0
		v-0.1h-48H152v-37.1v-0.1l0,0V292h-35.2h-0.1V166.3h214.7V292h-35.1H296.1z"/>
</g>
<g>
	<path d="M207.1,382.2l-96.9-0.1c0,0,0.1,0.1,0.1,0.1h-0.2C140.2,409.5,180.2,426,224,426c37.7,0,72.5-12.3,100.7-33.1
		c0.6-0.4,1.2-0.8,1.7-1.3c3-2.3,5.9-4.7,8.7-7.1c0.9-0.8,1.9-1.4,2.7-2.2h-0.2c0,0,0.1-0.1,0.2-0.1H207.1z"/>
	<path d="M338,129.8C307.8,102.5,267.8,86,224,86c-37.7,0-72.5,12.3-100.7,33.1c-0.6,0.4-1.2,0.8-1.8,1.3c-3,2.3-5.9,4.6-8.7,7.1
		c-0.9,0.8-1.9,1.4-2.7,2.2h0.2c-0.1,0-0.1,0.1-0.2,0.1C110.1,129.8,338,129.8,338,129.8z"/>
	<path d="M333.5,150.5H114.5C56.3,150.5,9,197.9,9,256c0,58.2,47.3,105.5,105.5,105.5h219.1c58.1,0,105.5-47.3,105.5-105.5
		C439,197.9,391.7,150.5,333.5,150.5z M102.2,261l0.1-0.2l0.1,0.3l13.1-45.1h14.4l7,24.2l5.9,20.9l0.1-0.2l0.1,0.3l11.2-45.2h16.1
		l4,0l-22.4,83.5H136l-13.3-44l-13.4,44H93.6l-17.7-66.5l-4.5-17h20l5.9,24.1L102.2,261z M204.4,242.7v56.7h-18.3v-56.7L204.4,242.7
		L204.4,242.7z M195.2,233.4c-5.7,0-10.4-4.7-10.4-10.4c0-5.7,4.7-10.4,10.4-10.4c5.8,0,10.4,4.7,10.4,10.4
		C205.6,228.7,200.9,233.4,195.2,233.4z M226.8,337.1c5.9-8.9,9.4-19.6,9.4-31.1V206c0-17.1,13.4-31,29.8-31v-0.2h67.6
		c44.7,0,81.1,36.4,81.1,81.1c0,44.7-36.4,81.1-81.1,81.1h-68.8L226.8,337.1z"/>
	<polygon points="264,215.8 264,299.3 283.2,299.3 283.2,266.9 314.8,266.9 314.8,249.3 283.2,249.3 283.2,233.4 320.2,233.4 
		320.2,215.8 	"/>
	<rect x="336.3" y="242.5" width="18.2" height="56.8"/>
	<path d="M345.4,233.5c5.7,0,10.4-4.7,10.4-10.4s-4.7-10.4-10.4-10.4c-5.7,0-10.4,4.7-10.4,10.4S339.7,233.5,345.4,233.5z"/>
</g>
<g class="st0">
	<polygon class="st1" points="179.8,375.3 174.2,398.1 169.3,417.6 157,375.3 143.4,375.3 136.8,398 131.1,417.5 120.7,375.3 
		105.8,375.3 102,375.2 102,375.3 101.8,375.3 122.8,453.9 137.7,453.9 144.5,431.2 150.3,412.7 162.8,453.9 177.6,453.9 
		194.3,391.6 198.7,375.4 198.7,375.4 198.7,375.3 	"/>
	<rect x="213.4" y="400.5" class="st1" width="17.2" height="53.4"/>
	<path class="st1" d="M221.9,372.1c-5.4,0-9.8,4.4-9.8,9.8c0,5.4,4.4,9.8,9.8,9.8c5.4,0,9.8-4.4,9.8-9.8
		C231.8,376.5,227.4,372.1,221.9,372.1z"/>
	<polygon class="st1" points="255.8,375.3 255.8,453.5 255.8,453.8 255.8,453.8 255.8,453.9 273.9,453.9 273.9,423.4 303.6,423.4 
		303.6,406.8 273.9,406.8 273.9,391.8 308.7,391.8 308.7,375.3 	"/>
	<polygon class="st1" points="327.3,400.5 327.3,453.6 327.3,453.8 327.3,453.8 327.3,453.9 344.5,453.9 344.5,400.5 	"/>
	<path class="st1" d="M335.9,372.4c-5.4,0-9.8,4.4-9.8,9.8c0,5.4,4.4,9.8,9.8,9.8c5.4,0,9.8-4.4,9.8-9.8
		C345.7,376.7,341.3,372.4,335.9,372.4z"/>
	<path class="st1" d="M38,190.3c0-33.8,9.1-65.5,24.9-92.8c8.1-14.1,18.1-27,29.5-38.4L73.7,40.3C60.7,53.4,49.3,68.1,40,84.2
		c-18.1,31.2-28.5,67.5-28.5,106.1S21.9,265.2,40,296.4c9.3,16.1,20.7,30.9,33.8,43.9l18.8-18.8c-11.4-11.4-21.4-24.3-29.5-38.4
		C47.1,255.8,38,224.1,38,190.3z"/>
	<path class="st1" d="M407.5,84.2c-9.2-15.9-20.4-30.4-33.2-43.3c-0.2-0.2-0.3-0.4-0.5-0.5l0,0c0,0-0.1-0.1-0.1-0.1L355,59.1
		c11.4,11.4,21.4,24.4,29.5,38.4c15.9,27.3,24.9,59.1,24.9,92.8c0,33.8-9.1,65.5-24.9,92.8c-8.1,14.1-18.1,27-29.5,38.4l18.8,18.8
		c13.1-13.1,24.5-27.8,33.8-43.9c18.1-31.2,28.5-67.5,28.5-106.1S425.6,115.4,407.5,84.2z"/>
	<path class="st1" d="M361.6,269.9c13.6-23.4,21.4-50.6,21.4-79.6s-7.8-56.1-21.4-79.6c-6.9-11.9-15.2-22.7-24.8-32.4
		c-0.1-0.1-0.3-0.3-0.4-0.4l0,0c0,0-0.1-0.1-0.1-0.1l-18.8,18.8c8.2,8.2,15.3,17.4,21.1,27.4c11.3,19.5,17.8,42.2,17.8,66.3
		s-6.5,46.8-17.8,66.3c-5.8,10.1-12.9,19.3-21.1,27.4l18.8,18.8C346.1,293,354.6,282,361.6,269.9z"/>
	<path class="st1" d="M64.6,190.3c0,29,7.8,56.2,21.4,79.6c7,12.1,15.5,23.1,25.3,32.9l18.8-18.8c-8.2-8.2-15.3-17.4-21.1-27.4
		c-11.3-19.5-17.8-42.2-17.8-66.3s6.5-46.8,17.8-66.3c5.8-10.1,12.9-19.3,21.1-27.4l-18.8-18.8c-9.8,9.8-18.3,20.9-25.3,33
		C72.3,134.2,64.6,161.3,64.6,190.3z"/>
	<path class="st1" d="M131.9,243.4c4.6,8,10.3,15.4,16.9,21.9l18.8-18.7c-4.9-4.9-9.2-10.5-12.7-16.5c-6.8-11.7-10.7-25.3-10.7-39.8
		c0-14.5,3.9-28.1,10.7-39.8c3.5-6,7.7-11.6,12.7-16.5l-18.8-18.8c-6.5,6.5-12.2,13.9-16.9,21.9c-9,15.6-14.2,33.7-14.2,53.1
		S122.8,227.7,131.9,243.4z"/>
	<path class="st1" d="M315.6,137.2c-4.6-7.9-10.2-15.1-16.5-21.6c-0.1-0.1-0.2-0.2-0.2-0.3l0,0c0,0-0.1-0.1-0.1-0.1L280,134.1
		c4.9,4.9,9.2,10.4,12.7,16.5c6.8,11.7,10.7,25.3,10.7,39.8c0,14.5-3.9,28.1-10.7,39.8c-3.5,6-7.7,11.6-12.7,16.5l18.8,18.7
		c6.5-6.5,12.2-13.9,16.9-21.9c9-15.6,14.2-33.7,14.2-53.1S324.7,152.9,315.6,137.2z"/>
	<path class="st1" d="M245.5,175.4c-0.5-0.8-1.1-1.5-1.7-2.3c-0.4-0.5-0.8-1.1-1.2-1.6c-0.5-0.5-1.1-0.8-1.6-1.2
		c-0.7-0.6-1.5-1.2-2.3-1.7c-0.6-0.4-1-0.9-1.6-1.2c-3.9-2.3-8.4-3.6-13.3-3.6s-9.4,1.3-13.3,3.6c-0.6,0.3-1.1,0.9-1.6,1.2
		c-0.8,0.5-1.5,1.1-2.3,1.7c-0.5,0.4-1.1,0.8-1.6,1.2c-0.5,0.5-0.8,1.1-1.2,1.6c-0.6,0.7-1.2,1.5-1.7,2.3c-0.4,0.6-0.9,1-1.2,1.6
		c-2.3,3.9-3.6,8.4-3.6,13.3c0,4.9,1.3,9.4,3.6,13.3c0.3,0.6,0.8,1,1.2,1.6c0.6,0.8,1.2,1.6,1.8,2.4c0.4,0.5,0.7,1.1,1.2,1.5
		c0.5,0.5,1.1,0.8,1.6,1.2c0.7,0.6,1.5,1.2,2.3,1.7c0.6,0.4,1,0.9,1.6,1.2c3.9,2.3,8.4,3.6,13.3,3.6s9.4-1.3,13.3-3.6
		c0.6-0.3,1.1-0.9,1.6-1.2c0.8-0.5,1.5-1.1,2.3-1.7c0.5-0.4,1.1-0.8,1.6-1.2c0.5-0.5,0.8-1.1,1.2-1.5c0.6-0.7,1.2-1.5,1.8-2.4
		c0.4-0.6,0.9-1,1.2-1.6c2.3-3.9,3.6-8.4,3.6-13.3c0-4.8-1.3-9.4-3.6-13.3C246.4,176.5,245.9,176,245.5,175.4z"/>
</g>
</svg>
