<?xml version="1.0" encoding="utf-8"?>
<!-- Generator: Adobe Illustrator 21.0.0, SVG Export Plug-In . SVG Version: 6.00 Build 0)  -->
<svg version="1.1" id="Vrstva_1" xmlns="http://www.w3.org/2000/svg" xmlns:xlink="http://www.w3.org/1999/xlink" x="0px" y="0px"
	 viewBox="0 0 448 512" style="enable-background:new 0 0 448 512;" xml:space="preserve">
<g>
	<path d="M207.1,382.2l-96.9-0.1l0.1,0.1h-0.2C140.2,409.5,180.2,426,224,426c37.7,0,72.5-12.3,100.7-33.1c0.6-0.4,1.2-0.8,1.7-1.3
		c3-2.3,5.9-4.7,8.7-7.1c0.9-0.8,1.9-1.4,2.7-2.2h-0.2c0,0,0.1-0.1,0.2-0.1L207.1,382.2L207.1,382.2z"/>
	<path d="M338,129.8C307.8,102.5,267.8,86,224,86c-37.7,0-72.5,12.3-100.7,33.1c-0.6,0.4-1.2,0.8-1.8,1.3c-3,2.3-5.9,4.6-8.7,7.1
		c-0.9,0.8-1.9,1.4-2.7,2.2h0.2c-0.1,0-0.1,0.1-0.2,0.1C110.1,129.8,338,129.8,338,129.8z"/>
	<path d="M333.5,150.5h-219C56.3,150.5,9,197.9,9,256c0,58.2,47.3,105.5,105.5,105.5h219.1c58.1,0,105.5-47.3,105.5-105.5
		C439,197.9,391.7,150.5,333.5,150.5z M102.2,261l0.1-0.2l0.1,0.3l13.1-45.1h14.4l7,24.2l5.9,20.9l0.1-0.2l0.1,0.3l11.2-45.2h16.1h4
		l-22.4,83.5H136l-13.3-44l-13.4,44H93.6L75.9,233l-4.5-17h20l5.9,24.1L102.2,261z M204.4,242.7v56.7h-18.3v-56.7H204.4L204.4,242.7
		z M195.2,233.4c-5.7,0-10.4-4.7-10.4-10.4s4.7-10.4,10.4-10.4c5.8,0,10.4,4.7,10.4,10.4C205.6,228.7,200.9,233.4,195.2,233.4z
		 M226.8,337.1c5.9-8.9,9.4-19.6,9.4-31.1V206c0-17.1,13.4-31,29.8-31v-0.2h67.6c44.7,0,81.1,36.4,81.1,81.1S378.3,337,333.6,337
		h-68.8L226.8,337.1z"/>
	<polygon points="264,215.8 264,299.3 283.2,299.3 283.2,266.9 314.8,266.9 314.8,249.3 283.2,249.3 283.2,233.4 320.2,233.4 
		320.2,215.8 	"/>
	<rect x="336.3" y="242.5" width="18.2" height="56.8"/>
	<path d="M345.4,233.5c5.7,0,10.4-4.7,10.4-10.4s-4.7-10.4-10.4-10.4c-5.7,0-10.4,4.7-10.4,10.4S339.7,233.5,345.4,233.5z"/>
</g>
</svg>
