<?xml version="1.0" encoding="utf-8"?>
<!-- Generator: Adobe Illustrator 21.0.0, SVG Export Plug-In . SVG Version: 6.00 Build 0)  -->
<svg version="1.1" id="Vrstva_1" xmlns="http://www.w3.org/2000/svg" xmlns:xlink="http://www.w3.org/1999/xlink" x="0px" y="0px"
	 viewBox="0 0 448 512" style="enable-background:new 0 0 448 512;" xml:space="preserve">
<g>
	<path d="M224,32C100.3,32,0,132.3,0,256s100.3,224,224,224s224-100.3,224-224S347.7,32,224,32z M380.8,316.4
		c-1.4,3.5-2.8,7-4.4,10.4c-0.3,0.7-0.7,1.3-1,2c-1.4,2.9-2.8,5.7-4.4,8.5c-0.5,0.8-1,1.6-1.5,2.5c-1.5,2.6-3,5.2-4.7,7.7
		c-0.5,0.7-1,1.4-1.5,2.1c-1.7,2.6-3.5,5.1-5.4,7.6c-0.4,0.5-0.8,1-1.2,1.5c-2,2.6-4.1,5.2-6.3,7.7c-0.2,0.3-0.5,0.5-0.7,0.8
		c-2.4,2.7-4.8,5.3-7.4,7.9c-0.1,0.1-0.1,0.1-0.2,0.2c-2.7,2.7-5.5,5.3-8.4,7.8c0,0,0,0-0.1,0.1c-2.9,2.5-6,5-9.1,7.3
		c-0.4,0.3-0.9,0.6-1.3,0.9c-2.7,2-5.4,3.9-8.3,5.8c-6.6,4.3-13.6,8.1-20.9,11.5l-4.7-33.2l-1.9-13.7c0,0,0,0-0.1,0v-0.2
		C268,373.6,246,380.7,223,382l-5.9,41.9C127.7,420.2,56,346.3,56,256c0-92.6,75.4-168,168-168s168,75.4,168,168
		c0,21.1-3.9,41.3-11.1,60C380.9,316.1,380.8,316.2,380.8,316.4z"/>
	<path d="M146.3,185.9L146.3,185.9l-0.1,0.1l37.9,53.1l2.7,3.7l22.5-22.5l3.8-3.7l0,0l0.1-0.1l-3.7-2.7L163,180.6l-6.5-4.6l0,0
		l-0.1-0.1c-1.1,2.1-2.6,4-4.3,5.7s-3.5,3-5.5,4.1C146.4,185.8,146.3,185.9,146.3,185.9z"/>
	<path d="M142.9,172.7c1.2-1.2,2.2-2.7,2.8-4.2c1.9-4.6,1-10.1-2.8-13.8c-5-5-13-5-18,0s-5,13.1,0,18c3.7,3.7,9.2,4.7,13.8,2.8
		C140.2,174.8,141.6,173.9,142.9,172.7z"/>
	<path d="M294.1,165.3L294.1,165.3C294.1,165.3,294.1,165.2,294.1,165.3L135.4,323.8c21.9,21.9,50.6,32.9,79.3,32.9
		c4,0,8-0.2,12-0.7c20.1-2.2,39.8-9.7,56.6-22.8c3.7-2.8,7.3-6,10.7-9.4c43-43,43.7-112.3,2.2-156.2
		C295.5,166.8,294.9,166,294.1,165.3z M300,255.6c-7.9,2.9-17.7-4.2-22-15.9s-1.3-23.4,6.5-26.3c7.9-2.9,17.7,4.2,22,15.9
		C310.8,240.9,307.9,252.7,300,255.6z"/>
</g>
</svg>
