<?xml version="1.0" encoding="utf-8"?>
<!-- Generator: Adobe Illustrator 21.0.0, SVG Export Plug-In . SVG Version: 6.00 Build 0)  -->
<svg version="1.1" id="Vrstva_1" xmlns="http://www.w3.org/2000/svg" xmlns:xlink="http://www.w3.org/1999/xlink" x="0px" y="0px"
	 viewBox="0 0 448 512" style="enable-background:new 0 0 448 512;" xml:space="preserve">
<g>
	<g>
		<g>
			<path d="M224,32c-7.3,0-13.1,5.9-13.1,13.1s5.9,13.1,13.1,13.1c108.6,0,197.8,89.2,197.8,197.8S332.6,453.8,224,453.8
				S26.3,364.6,26.3,256c0-52.8,23.1-103.3,60.4-140.1v22c0,7.3,5.9,13.1,13.1,13.1s13.1-5.9,13.1-13.1V85.4
				c0-7.3-6.3-13.1-13.6-13.1H46.8c-7.3,0-13.1,5.9-13.1,13.1s5.9,13,13.1,13h19.7C25.1,140,0,196.8,0,256c0,123,101,224,224,224
				s224-101,224-224S347,32,224,32z"/>
		</g>
	</g>
	<g>
		<g>
			<path d="M355.3,269.1c-7.3,0-13.1-5.9-13.1-13.1c0-7.3,5.9-13.1,13.1-13.1h12.5c-2.7-30-14.6-57.3-32.8-79.2l-8.8,8.8
				c-5.1,5.1-13.4,5.1-18.6,0c-5.1-5.1-5.1-13.4,0-18.6l8.8-8.8c-21.9-18.3-49.2-30.1-79.2-32.8v12.5c0,7.3-5.9,13.1-13.1,13.1
				c-7.3,0-13.1-5.9-13.1-13.1v-12.5c-30,2.7-57.3,14.6-79.2,32.8l8.8,8.8c5.1,5.1,5.1,13.4,0,18.6c-5.1,5.1-13.4,5.1-18.6,0
				l-8.8-8.8c-18.3,21.9-30.1,49.2-32.8,79.2h12.5c7.3,0,13.1,5.9,13.1,13.1c0,7.3-5.9,13.1-13.1,13.1H80.3
				c2.7,30,14.6,57.3,32.8,79.2l8.8-8.8c5.1-5.1,13.4-5.1,18.6,0c5.1,5.1,5.1,13.4,0,18.6l-8.8,8.8c21.9,18.3,49.2,30.1,79.2,32.8
				v-12.5c0-7.3,5.9-13.1,13.1-13.1c7.3,0,13.1,5.9,13.1,13.1v12.5c30-2.7,57.3-14.6,79.2-32.8l-8.8-8.8c-5.1-5.1-5.1-13.4,0-18.6
				c5.1-5.1,13.4-5.1,18.6,0l8.8,8.8c18.3-21.9,30.1-49.2,32.8-79.2H355.3z M259.5,291.5c-5.1,5.1-13.4,5.1-18.6,0l-26.3-26.3
				c-2.5-2.5-3.8-5.8-3.8-9.3v-52.5c0-7.3,5.9-13.1,13.1-13.1c7.3,0,13.1,5.9,13.1,13.1v47.1l22.4,22.4
				C264.7,278.1,264.7,286.4,259.5,291.5z"/>
		</g>
	</g>
</g>
</svg>
