<?xml version="1.0" encoding="utf-8"?>
<!-- Generator: Adobe Illustrator 21.0.0, SVG Export Plug-In . SVG Version: 6.00 Build 0)  -->
<svg version="1.1" id="Vrstva_1" xmlns="http://www.w3.org/2000/svg" xmlns:xlink="http://www.w3.org/1999/xlink" x="0px" y="0px"
	 viewBox="0 0 448 512" style="enable-background:new 0 0 448 512;" xml:space="preserve">
<g>
	<g>
		<g>
			<path d="M255.9,64C149.8,64,64,150,64,256H0l83.1,83.1l1.5,3.1l86.1-86.2h-64c0-82.5,66.9-149.3,149.3-149.3
				S405.3,173.5,405.3,256S338.5,405.3,256,405.3c-41.3,0-78.5-16.9-105.5-43.8l-30.2,30.2C155,426.5,202.9,448,255.9,448
				C362,448,448,362,448,256S362,64,255.9,64z"/>
			<polygon points="234.7,170.7 234.7,277.3 326,331.5 341.3,305.6 266.7,261.3 266.7,170.7 			"/>
		</g>
	</g>
</g>
</svg>
