<?xml version="1.0" encoding="utf-8"?>
<!-- Generator: Adobe Illustrator 21.0.0, SVG Export Plug-In . SVG Version: 6.00 Build 0)  -->
<svg version="1.1" id="Vrstva_1" xmlns="http://www.w3.org/2000/svg" xmlns:xlink="http://www.w3.org/1999/xlink" x="0px" y="0px"
	 viewBox="0 0 448 512" style="enable-background:new 0 0 448 512;" xml:space="preserve">
<g>
	<polygon points="100.6,392.6 100.6,392.3 100.6,392.3 100.6,392.1 71.8,392.1 71.8,511.5 71.8,511.8 71.8,511.8 71.8,512 
		155.1,512 155.1,486.7 100.6,486.7 	"/>
	<path d="M217.5,392.1L184,480l-12.2,31.7h0.1l-0.1,0.2H202l7.2-20.2h38.9l7.1,20.2h30.3l-46-119.8L217.5,392.1L217.5,392.1z
		 M243.8,470.3h-22.3l-7.5-0.1l15.1-41.6l11.1,31.3L243.8,470.3z"/>
	<polygon points="377.6,392.1 377.6,427.2 377.4,456 334.1,392.1 309.1,392.1 309.1,512 337.9,512 337.9,476.8 338,448 381.4,512 
		406.4,512 406.4,392.1 	"/>
	<polygon points="169.9,93.9 169.9,93.8 169.9,93.8 169.9,93.6 154.1,93.6 154.1,129.6 169.9,129.6 	"/>
	<polygon points="189.5,129.4 189.5,129.6 205.3,129.6 205.3,93.6 189.5,93.6 189.5,129.3 	"/>
	<rect x="219" y="93.6" width="15.8" height="36"/>
	<rect x="260.2" y="93.6" width="15.8" height="36"/>
	<rect x="295.5" y="93.6" width="15.8" height="36"/>
	<path d="M411,0H42.9C30.3,0,20.2,10.2,20.2,22.8v278c0,12.5,10.2,22.7,22.7,22.7H411c12.5,0,22.7-10.2,22.7-22.7v-278
		C433.7,10.2,423.5,0,411,0z M357.3,202.1v0.3h-49.2v42.1h-53.9h-0.3l0,0h-0.2v20.1H200v-20.1h-54.2h-0.2v-42.1H96.5V60.5h260.2h0.6
		L357.3,202.1L357.3,202.1z"/>
</g>
</svg>
