<?xml version="1.0" encoding="utf-8"?>
<!-- Generator: Adobe Illustrator 21.0.0, SVG Export Plug-In . SVG Version: 6.00 Build 0)  -->
<svg version="1.1" id="Vrstva_1" xmlns="http://www.w3.org/2000/svg" xmlns:xlink="http://www.w3.org/1999/xlink" x="0px" y="0px"
	 viewBox="0 0 448 512" style="enable-background:new 0 0 448 512;" xml:space="preserve">
<g>
	<path d="M0,38.8v322.6v1l0,0v0.1h448V38.8H0z M381.9,296.5H66.1V104.9h315.8v191.2V296.5L381.9,296.5z"/>
	<polygon points="72.3,397.8 72.3,472.8 72.3,473 72.3,473 72.3,473.2 375.7,473.2 375.7,397.8 	"/>
	<polygon points="133.1,157 133.1,177.3 133.1,177.3 133.1,177.3 133.1,177.5 158.7,177.5 158.7,244.1 158.7,244.3 158.7,244.3 
		158.7,244.4 184.2,244.4 184.2,177.5 209.7,177.5 209.7,157 	"/>
	<polygon points="314.8,157.2 314.9,157 288.1,157 278.1,183.7 270.5,203.8 253.1,157 233.7,157 226.6,157 226.6,157 226.4,157 
		261.3,244.4 279.9,244.4 305.4,180.7 314.9,157.2 	"/>
</g>
</svg>
