<?xml version="1.0" encoding="utf-8"?>
<!-- Generator: Adobe Illustrator 21.0.0, SVG Export Plug-In . SVG Version: 6.00 Build 0)  -->
<svg version="1.1" id="Vrstva_1" xmlns="http://www.w3.org/2000/svg" xmlns:xlink="http://www.w3.org/1999/xlink" x="0px" y="0px"
	 viewBox="0 0 448 512" style="enable-background:new 0 0 448 512;" xml:space="preserve">
<g>
	<g>
		<g>
			<path d="M135.9,363.7l-21.2,18.8c6.7,7.6,14.1,14.6,21.9,21.1l17.9-21.9C147.8,376.2,141.6,370.2,135.9,363.7z"/>
			<path d="M108,320l-26,11.1c4,9.4,8.8,18.4,14.3,26.9l23.8-15.1C115.5,335.7,111.5,328,108,320z"/>
			<path d="M352.9,91c-29-16.8-62-25.7-95.6-25.7c-95.5,0.2-176.2,70.9-188.8,165.5l-48.4-48.4l-20,20L80.8,283l80.6-80.6l-20-20
				l-43.7,43.6c16.6-88.1,101.4-146,189.5-129.4s146,101.4,129.4,189.5s-101.4,146-189.5,129.4c-18.1-3.4-35.4-9.8-51.3-19.1
				l-14.2,24.4c91.1,52.8,207.8,21.8,260.6-69.3C475.1,260.5,444,143.8,352.9,91z"/>
			<polygon points="236.2,128.9 236.2,284.2 298.3,330.8 315.3,308.2 264.4,270.1 264.4,128.9 			"/>
		</g>
	</g>
</g>
</svg>
