<?xml version="1.0" encoding="utf-8"?>
<!-- Generator: Adobe Illustrator 21.0.0, SVG Export Plug-In . SVG Version: 6.00 Build 0)  -->
<svg version="1.1" id="Vrstva_1" xmlns="http://www.w3.org/2000/svg" xmlns:xlink="http://www.w3.org/1999/xlink" x="0px" y="0px"
	 viewBox="0 0 448 512" style="enable-background:new 0 0 448 512;" xml:space="preserve">
<g>
	<g>
		<path d="M315.5,233.6h-56.1c-7.4-11.7-20.4-19.4-35.3-19.4c-23.1,0-41.8,18.7-41.8,41.8c0,1.3,0.3,2.5,0.4,3.7l-68.4,52.7
			c-9.8,7.5-11.6,21.6-4.1,31.4c4.4,5.7,11.1,8.7,17.8,8.7c4.8,0,9.6-1.5,13.7-4.7l68.3-52.6c4.4,1.6,9.2,2.6,14.2,2.6
			c14.9,0,27.8-7.8,35.3-19.5h56.1c12.4,0,22.4-10,22.4-22.4C337.9,243.6,327.9,233.6,315.5,233.6z"/>
		<path d="M224.1,110.9c8.3,0,14.9-6.7,14.9-14.9v-49c0-8.2-6.7-14.9-14.9-14.9s-14.9,6.7-14.9,14.9v49
			C209.2,104.3,215.9,110.9,224.1,110.9z"/>
		<path d="M433.1,241.1h-49c-8.3,0-14.9,6.7-14.9,14.9s6.7,14.9,14.9,14.9h49c8.3,0,14.9-6.7,14.9-14.9
			C448,247.7,441.3,241.1,433.1,241.1z"/>
		<path d="M224.1,401.1c-8.3,0-14.9,6.7-14.9,14.9v49c0,8.2,6.7,14.9,14.9,14.9s14.9-6.7,14.9-14.9v-49
			C239,407.8,232.4,401.1,224.1,401.1z"/>
		<path d="M79.1,256c0-8.2-6.7-14.9-14.9-14.9h-49c-8.3,0-14.9,6.7-14.9,14.9c0,8.2,6.7,14.9,14.9,14.9h49
			C72.4,270.9,79.1,264.2,79.1,256z"/>
		<path d="M350,137.6c1.9,0,3.8-0.7,5.3-2.2l21.8-21.9c2.9-2.9,2.9-7.6,0-10.6c-2.9-2.9-7.6-2.9-10.6,0l-21.8,21.9
			c-2.9,2.9-2.9,7.6,0,10.6C346.2,136.8,348.1,137.6,350,137.6z"/>
		<path d="M355.3,376.6c-2.9-2.9-7.6-2.9-10.6,0c-2.9,2.9-2.9,7.6,0,10.6l21.8,21.8c1.5,1.5,3.4,2.2,5.3,2.2s3.8-0.7,5.3-2.2
			c2.9-2.9,2.9-7.6,0-10.6L355.3,376.6z"/>
		<path d="M93,376.6l-21.9,21.9c-2.9,2.9-2.9,7.6,0,10.6c1.5,1.5,3.4,2.2,5.3,2.2c1.9,0,3.8-0.7,5.3-2.2l21.9-21.9
			c2.9-2.9,2.9-7.6,0-10.6C100.6,373.7,95.9,373.7,93,376.6z"/>
		<path d="M93,135.4c1.5,1.5,3.4,2.2,5.3,2.2c1.9,0,3.8-0.7,5.3-2.2c2.9-2.9,2.9-7.6,0-10.6L81.7,103c-2.9-2.9-7.6-2.9-10.6,0
			c-2.9,2.9-2.9,7.6,0,10.6L93,135.4z"/>
	</g>
</g>
</svg>
